G04*
G04 #@! TF.GenerationSoftware,Altium Limited,Altium Designer,22.9.1 (49)*
G04*
G04 Layer_Physical_Order=2*
G04 Layer_Color=36540*
%FSLAX25Y25*%
%MOIN*%
G70*
G04*
G04 #@! TF.SameCoordinates,E7B6729E-600D-4C31-B664-834E27CDD885*
G04*
G04*
G04 #@! TF.FilePolarity,Positive*
G04*
G01*
G75*
%ADD12C,0.01000*%
G04:AMPARAMS|DCode=59|XSize=39.37mil|YSize=82.68mil|CornerRadius=19.68mil|HoleSize=0mil|Usage=FLASHONLY|Rotation=270.000|XOffset=0mil|YOffset=0mil|HoleType=Round|Shape=RoundedRectangle|*
%AMROUNDEDRECTD59*
21,1,0.03937,0.04331,0,0,270.0*
21,1,0.00000,0.08268,0,0,270.0*
1,1,0.03937,-0.02165,0.00000*
1,1,0.03937,-0.02165,0.00000*
1,1,0.03937,0.02165,0.00000*
1,1,0.03937,0.02165,0.00000*
%
%ADD59ROUNDEDRECTD59*%
G04:AMPARAMS|DCode=60|XSize=39.37mil|YSize=70.87mil|CornerRadius=19.68mil|HoleSize=0mil|Usage=FLASHONLY|Rotation=270.000|XOffset=0mil|YOffset=0mil|HoleType=Round|Shape=RoundedRectangle|*
%AMROUNDEDRECTD60*
21,1,0.03937,0.03150,0,0,270.0*
21,1,0.00000,0.07087,0,0,270.0*
1,1,0.03937,-0.01575,0.00000*
1,1,0.03937,-0.01575,0.00000*
1,1,0.03937,0.01575,0.00000*
1,1,0.03937,0.01575,0.00000*
%
%ADD60ROUNDEDRECTD60*%
%ADD65R,0.06000X0.06000*%
%ADD67C,0.15748*%
%ADD69C,0.02000*%
G36*
X442500Y262248D02*
X439000D01*
Y255248D01*
X442500D01*
Y254248D01*
X439000D01*
Y247248D01*
X442500D01*
Y246250D01*
X439000D01*
Y239250D01*
X442500D01*
Y238250D01*
X439000D01*
Y231250D01*
X442500D01*
Y230252D01*
X439000D01*
Y223252D01*
X442500D01*
Y222752D01*
X438500D01*
Y220752D01*
X442500D01*
Y216752D01*
X438500D01*
Y214752D01*
X442500D01*
Y211400D01*
X368980D01*
Y214917D01*
X361980D01*
Y211400D01*
X360980D01*
Y214917D01*
X353980D01*
Y211400D01*
X352980D01*
Y214917D01*
X345980D01*
Y211400D01*
X344980D01*
Y214917D01*
X337980D01*
Y211400D01*
X321200D01*
Y266300D01*
X442500D01*
Y262248D01*
D02*
G37*
%LPC*%
G36*
X380898Y260100D02*
X380302D01*
X379750Y259872D01*
X379328Y259450D01*
X379100Y258898D01*
Y258302D01*
X379328Y257750D01*
X379750Y257328D01*
X380302Y257100D01*
X380898D01*
X381450Y257328D01*
X381872Y257750D01*
X382100Y258302D01*
Y258898D01*
X381872Y259450D01*
X381450Y259872D01*
X380898Y260100D01*
D02*
G37*
G36*
X363797Y261500D02*
X362803D01*
X361884Y261119D01*
X361181Y260416D01*
X360800Y259497D01*
Y258503D01*
X361181Y257584D01*
X361884Y256881D01*
X362803Y256500D01*
X363797D01*
X364716Y256881D01*
X365419Y257584D01*
X365800Y258503D01*
Y259497D01*
X365419Y260416D01*
X364716Y261119D01*
X363797Y261500D01*
D02*
G37*
G36*
X347955Y258857D02*
X347248D01*
X346594Y258587D01*
X346093Y258086D01*
X345822Y257432D01*
Y256724D01*
X346093Y256070D01*
X346594Y255569D01*
X347248Y255298D01*
X347955D01*
X348610Y255569D01*
X349110Y256070D01*
X349381Y256724D01*
Y257432D01*
X349110Y258086D01*
X348610Y258587D01*
X347955Y258857D01*
D02*
G37*
G36*
X357203Y256981D02*
X356208D01*
X355289Y256601D01*
X354586Y255897D01*
X354206Y254978D01*
Y253984D01*
X354586Y253065D01*
X355289Y252362D01*
X356208Y251981D01*
X357203D01*
X358122Y252362D01*
X358825Y253065D01*
X359206Y253984D01*
Y254978D01*
X358825Y255897D01*
X358122Y256601D01*
X357203Y256981D01*
D02*
G37*
G36*
X368149Y255538D02*
X367155D01*
X366236Y255157D01*
X365533Y254454D01*
X365152Y253535D01*
Y252540D01*
X365533Y251622D01*
X366236Y250918D01*
X367155Y250538D01*
X368149D01*
X369068Y250918D01*
X369771Y251622D01*
X370152Y252540D01*
Y253535D01*
X369771Y254454D01*
X369068Y255157D01*
X368149Y255538D01*
D02*
G37*
G36*
X414783Y256230D02*
X414186D01*
X413635Y256002D01*
X413213Y255580D01*
X412985Y255029D01*
Y254432D01*
X413213Y253881D01*
X413233Y253860D01*
X413026Y253361D01*
X413025D01*
X412474Y253132D01*
X412052Y252710D01*
X411824Y252159D01*
Y251562D01*
X412052Y251011D01*
X412474Y250589D01*
X413025Y250360D01*
X413622D01*
X414173Y250589D01*
X414595Y251011D01*
X414823Y251562D01*
Y252159D01*
X414595Y252710D01*
X414575Y252730D01*
X414782Y253231D01*
X414783D01*
X415334Y253459D01*
X415756Y253881D01*
X415984Y254432D01*
Y255029D01*
X415756Y255580D01*
X415334Y256002D01*
X414783Y256230D01*
D02*
G37*
G36*
X396333Y250037D02*
X395737D01*
X395185Y249808D01*
X394763Y249386D01*
X394535Y248835D01*
Y248238D01*
X394763Y247687D01*
X395185Y247265D01*
X395737Y247037D01*
X396333D01*
X396885Y247265D01*
X397307Y247687D01*
X397535Y248238D01*
Y248835D01*
X397307Y249386D01*
X396885Y249808D01*
X396333Y250037D01*
D02*
G37*
G36*
X368898Y250000D02*
X368302D01*
X367750Y249772D01*
X367328Y249350D01*
X367100Y248798D01*
Y248202D01*
X367328Y247650D01*
X367750Y247228D01*
X368302Y247000D01*
X368898D01*
X369450Y247228D01*
X369872Y247650D01*
X370100Y248202D01*
Y248798D01*
X369872Y249350D01*
X369450Y249772D01*
X368898Y250000D01*
D02*
G37*
G36*
X383023Y248910D02*
X382427D01*
X381875Y248682D01*
X381453Y248260D01*
X381225Y247709D01*
Y247112D01*
X381453Y246561D01*
X381875Y246139D01*
X382427Y245911D01*
X383023D01*
X383575Y246139D01*
X383997Y246561D01*
X384225Y247112D01*
Y247709D01*
X383997Y248260D01*
X383575Y248682D01*
X383023Y248910D01*
D02*
G37*
G36*
X331922Y258768D02*
X327059D01*
Y245824D01*
X331922D01*
Y258768D01*
D02*
G37*
G36*
X387519Y248790D02*
X386923D01*
X386371Y248561D01*
X385949Y248139D01*
X385721Y247588D01*
Y246991D01*
X385949Y246440D01*
X386371Y246018D01*
X386923Y245790D01*
X387519D01*
X388071Y246018D01*
X388493Y246440D01*
X388721Y246991D01*
Y247588D01*
X388493Y248139D01*
X388071Y248561D01*
X387519Y248790D01*
D02*
G37*
G36*
X403798Y247100D02*
X403202D01*
X402650Y246872D01*
X402228Y246450D01*
X402000Y245898D01*
Y245302D01*
X402228Y244750D01*
X402650Y244328D01*
X403202Y244100D01*
X403798D01*
X404350Y244328D01*
X404772Y244750D01*
X405000Y245302D01*
Y245898D01*
X404772Y246450D01*
X404350Y246872D01*
X403798Y247100D01*
D02*
G37*
G36*
X411419Y247044D02*
X410822D01*
X410271Y246816D01*
X409849Y246394D01*
X409621Y245843D01*
Y245246D01*
X409849Y244695D01*
X410271Y244273D01*
X410822Y244044D01*
X411419D01*
X411970Y244273D01*
X412392Y244695D01*
X412620Y245246D01*
Y245843D01*
X412392Y246394D01*
X411970Y246816D01*
X411419Y247044D01*
D02*
G37*
G36*
X393797Y246692D02*
X393200D01*
X392649Y246464D01*
X392227Y246042D01*
X391999Y245491D01*
Y244894D01*
X392227Y244343D01*
X392649Y243921D01*
X393200Y243692D01*
X393797D01*
X394348Y243921D01*
X394770Y244343D01*
X394999Y244894D01*
Y245491D01*
X394770Y246042D01*
X394348Y246464D01*
X393797Y246692D01*
D02*
G37*
G36*
X368398Y242500D02*
X367802D01*
X367250Y242272D01*
X366828Y241850D01*
X366600Y241298D01*
Y240702D01*
X366828Y240150D01*
X367250Y239728D01*
X367802Y239500D01*
X368398D01*
X368950Y239728D01*
X369372Y240150D01*
X369600Y240702D01*
Y241298D01*
X369372Y241850D01*
X368950Y242272D01*
X368398Y242500D01*
D02*
G37*
G36*
X347739Y254474D02*
X347143D01*
X346591Y254246D01*
X346169Y253824D01*
X345941Y253273D01*
Y252676D01*
X346169Y252125D01*
X346591Y251703D01*
X346623Y251690D01*
Y251148D01*
X346591Y251135D01*
X346169Y250713D01*
X345941Y250162D01*
Y249565D01*
X346169Y249014D01*
X346363Y248819D01*
X346538Y248493D01*
X346363Y248166D01*
X346169Y247972D01*
X345941Y247421D01*
Y246824D01*
X346169Y246273D01*
X346406Y246036D01*
X346536Y245711D01*
X346406Y245386D01*
X346169Y245150D01*
X345941Y244598D01*
Y244002D01*
X346169Y243450D01*
X346461Y243159D01*
X346544Y242850D01*
X346461Y242541D01*
X346169Y242250D01*
X345941Y241698D01*
Y241102D01*
X346169Y240550D01*
X346412Y240307D01*
X346536Y239984D01*
X346412Y239661D01*
X346169Y239418D01*
X345941Y238867D01*
Y238270D01*
X346169Y237719D01*
X346591Y237297D01*
X347143Y237069D01*
X347739D01*
X348291Y237297D01*
X348713Y237719D01*
X348941Y238270D01*
Y238867D01*
X348713Y239418D01*
X348469Y239661D01*
X348346Y239984D01*
X348469Y240307D01*
X348713Y240550D01*
X348941Y241102D01*
Y241698D01*
X348713Y242250D01*
X348421Y242541D01*
X348338Y242850D01*
X348421Y243159D01*
X348713Y243450D01*
X348941Y244002D01*
Y244598D01*
X348713Y245150D01*
X348476Y245386D01*
X348346Y245711D01*
X348476Y246036D01*
X348713Y246273D01*
X348941Y246824D01*
Y247421D01*
X348713Y247972D01*
X348518Y248166D01*
X348343Y248493D01*
X348518Y248819D01*
X348713Y249014D01*
X348941Y249565D01*
Y250162D01*
X348713Y250713D01*
X348291Y251135D01*
X348258Y251148D01*
Y251690D01*
X348291Y251703D01*
X348713Y252125D01*
X348941Y252676D01*
Y253273D01*
X348713Y253824D01*
X348291Y254246D01*
X347739Y254474D01*
D02*
G37*
G36*
X358105Y239518D02*
X357111D01*
X356192Y239137D01*
X355489Y238434D01*
X355108Y237515D01*
Y236521D01*
X355489Y235602D01*
X356192Y234899D01*
X357111Y234518D01*
X358105D01*
X359024Y234899D01*
X359727Y235602D01*
X360108Y236521D01*
Y237515D01*
X359727Y238434D01*
X359024Y239137D01*
X358105Y239518D01*
D02*
G37*
G36*
X347955Y236102D02*
X347248D01*
X346594Y235831D01*
X346093Y235330D01*
X345822Y234676D01*
Y233968D01*
X346093Y233314D01*
X346594Y232813D01*
X347248Y232542D01*
X347955D01*
X348610Y232813D01*
X349110Y233314D01*
X349381Y233968D01*
Y234676D01*
X349110Y235330D01*
X348610Y235831D01*
X347955Y236102D01*
D02*
G37*
G36*
X397688Y234625D02*
X397092D01*
X396540Y234397D01*
X396118Y233975D01*
X395890Y233423D01*
Y232827D01*
X396118Y232275D01*
X396246Y232148D01*
X396447Y231739D01*
X396246Y231494D01*
X396039Y231288D01*
X395811Y230736D01*
Y230140D01*
X396039Y229588D01*
X396461Y229166D01*
X397013Y228938D01*
X397609D01*
X398161Y229166D01*
X398583Y229588D01*
X398811Y230140D01*
Y230736D01*
X398583Y231288D01*
X398455Y231415D01*
X398254Y231824D01*
X398455Y232069D01*
X398662Y232275D01*
X398890Y232827D01*
Y233423D01*
X398662Y233975D01*
X398240Y234397D01*
X397688Y234625D01*
D02*
G37*
G36*
X358169Y228821D02*
X357175D01*
X356256Y228441D01*
X355553Y227738D01*
X355172Y226819D01*
Y225824D01*
X355553Y224905D01*
X356256Y224202D01*
X357175Y223821D01*
X358169D01*
X359088Y224202D01*
X359791Y224905D01*
X360172Y225824D01*
Y226819D01*
X359791Y227738D01*
X359088Y228441D01*
X358169Y228821D01*
D02*
G37*
G36*
X395197Y228701D02*
X394203D01*
X393284Y228320D01*
X392581Y227617D01*
X392200Y226698D01*
Y225704D01*
X392581Y224785D01*
X393284Y224081D01*
X394203Y223701D01*
X395197D01*
X396116Y224081D01*
X396819Y224785D01*
X397200Y225704D01*
Y226698D01*
X396819Y227617D01*
X396116Y228320D01*
X395197Y228701D01*
D02*
G37*
G36*
X332997Y226724D02*
X332003D01*
X331084Y226343D01*
X330381Y225640D01*
X330000Y224721D01*
Y223726D01*
X330381Y222808D01*
X331084Y222104D01*
X332003Y221724D01*
X332997D01*
X333916Y222104D01*
X334619Y222808D01*
X335000Y223726D01*
Y224721D01*
X334619Y225640D01*
X333916Y226343D01*
X332997Y226724D01*
D02*
G37*
G36*
X413482Y227162D02*
X412886D01*
X412334Y226933D01*
X411912Y226511D01*
X411684Y225960D01*
Y225363D01*
X411912Y224812D01*
X412334Y224390D01*
X412886Y224162D01*
X413077D01*
X413309Y223687D01*
X413081Y223136D01*
Y222539D01*
X413309Y221988D01*
X413731Y221566D01*
X414283Y221338D01*
X414879D01*
X415431Y221566D01*
X415853Y221988D01*
X416081Y222539D01*
Y223136D01*
X415853Y223687D01*
X415431Y224109D01*
X414879Y224338D01*
X414688D01*
X414456Y224812D01*
X414684Y225363D01*
Y225960D01*
X414456Y226511D01*
X414034Y226933D01*
X413482Y227162D01*
D02*
G37*
G36*
X390669Y225118D02*
X389843D01*
X389081Y224802D01*
X388497Y224219D01*
X388181Y223456D01*
Y222631D01*
X388497Y221868D01*
X389081Y221284D01*
X389843Y220969D01*
X390669D01*
X391431Y221284D01*
X392015Y221868D01*
X392331Y222631D01*
Y223456D01*
X392015Y224219D01*
X391431Y224802D01*
X390669Y225118D01*
D02*
G37*
G36*
X351712Y223042D02*
X351116D01*
X350565Y222814D01*
X350143Y222392D01*
X349914Y221840D01*
Y221244D01*
X350143Y220692D01*
X350565Y220270D01*
X351116Y220042D01*
X351712D01*
X352264Y220270D01*
X352686Y220692D01*
X352914Y221244D01*
Y221840D01*
X352686Y222392D01*
X352264Y222814D01*
X351712Y223042D01*
D02*
G37*
G36*
X382658Y221997D02*
X381663D01*
X380744Y221616D01*
X380041Y220913D01*
X379661Y219994D01*
Y219000D01*
X380041Y218081D01*
X380744Y217378D01*
X381663Y216997D01*
X382658D01*
X383577Y217378D01*
X384280Y218081D01*
X384661Y219000D01*
Y219994D01*
X384280Y220913D01*
X383577Y221616D01*
X382658Y221997D01*
D02*
G37*
G36*
X366062Y225118D02*
X365237D01*
X364474Y224802D01*
X363891Y224219D01*
X363575Y223456D01*
Y222631D01*
X363891Y221868D01*
X364474Y221284D01*
X364855Y221127D01*
X365153Y220734D01*
X365081Y220533D01*
X364779Y219806D01*
Y218811D01*
X365160Y217893D01*
X365863Y217189D01*
X366782Y216809D01*
X367777D01*
X368696Y217189D01*
X369399Y217893D01*
X369779Y218811D01*
Y219806D01*
X369399Y220725D01*
X368696Y221428D01*
X367903Y221756D01*
X367665Y222110D01*
X367591Y222309D01*
X367724Y222631D01*
Y223456D01*
X367408Y224219D01*
X366825Y224802D01*
X366062Y225118D01*
D02*
G37*
G36*
X346917Y221551D02*
X345922D01*
X345003Y221170D01*
X344300Y220467D01*
X343919Y219548D01*
Y218554D01*
X344300Y217635D01*
X345003Y216932D01*
X345922Y216551D01*
X346917D01*
X347835Y216932D01*
X348539Y217635D01*
X348919Y218554D01*
Y219548D01*
X348539Y220467D01*
X347835Y221170D01*
X346917Y221551D01*
D02*
G37*
%LPD*%
G36*
X327598Y255143D02*
X327626Y255137D01*
X327659Y255132D01*
X327698Y255126D01*
X327798Y255104D01*
X327909Y255071D01*
X328031Y255027D01*
X328164Y254971D01*
X328292Y254899D01*
X328297D01*
X328308Y254888D01*
X328330Y254877D01*
X328353Y254854D01*
X328392Y254832D01*
X328430Y254799D01*
X328480Y254760D01*
X328536Y254716D01*
X328603Y254666D01*
X328669Y254605D01*
X328747Y254538D01*
X328830Y254460D01*
X328913Y254377D01*
X329008Y254283D01*
X329107Y254183D01*
X329213Y254072D01*
X329219Y254066D01*
X329235Y254050D01*
X329257Y254028D01*
X329291Y253994D01*
X329324Y253950D01*
X329368Y253905D01*
X329468Y253805D01*
X329574Y253706D01*
X329679Y253606D01*
X329724Y253561D01*
X329773Y253517D01*
X329812Y253484D01*
X329846Y253461D01*
X329857Y253456D01*
X329885Y253439D01*
X329929Y253412D01*
X329990Y253384D01*
X330057Y253356D01*
X330134Y253328D01*
X330212Y253312D01*
X330295Y253306D01*
X330301D01*
X330306D01*
X330334D01*
X330384Y253312D01*
X330439Y253323D01*
X330501Y253339D01*
X330562Y253362D01*
X330623Y253395D01*
X330678Y253439D01*
X330684Y253445D01*
X330700Y253461D01*
X330723Y253495D01*
X330745Y253534D01*
X330767Y253589D01*
X330789Y253650D01*
X330806Y253722D01*
X330811Y253805D01*
Y253844D01*
X330806Y253889D01*
X330795Y253939D01*
X330778Y254000D01*
X330750Y254061D01*
X330717Y254122D01*
X330673Y254177D01*
X330667Y254183D01*
X330645Y254200D01*
X330612Y254222D01*
X330562Y254244D01*
X330501Y254272D01*
X330417Y254294D01*
X330323Y254316D01*
X330212Y254327D01*
X330284Y255060D01*
X330290D01*
X330312Y255054D01*
X330340D01*
X330384Y255043D01*
X330434Y255038D01*
X330489Y255021D01*
X330551Y255004D01*
X330623Y254988D01*
X330761Y254932D01*
X330906Y254866D01*
X330978Y254821D01*
X331045Y254771D01*
X331100Y254716D01*
X331155Y254655D01*
X331161Y254649D01*
X331167Y254638D01*
X331178Y254621D01*
X331200Y254594D01*
X331217Y254560D01*
X331239Y254516D01*
X331266Y254471D01*
X331289Y254416D01*
X331316Y254355D01*
X331339Y254288D01*
X331383Y254144D01*
X331411Y253972D01*
X331416Y253883D01*
X331422Y253789D01*
Y253733D01*
X331416Y253695D01*
X331411Y253645D01*
X331405Y253589D01*
X331394Y253528D01*
X331383Y253461D01*
X331344Y253317D01*
X331289Y253173D01*
X331255Y253095D01*
X331217Y253028D01*
X331167Y252956D01*
X331111Y252895D01*
X331105Y252890D01*
X331100Y252879D01*
X331078Y252868D01*
X331056Y252845D01*
X331028Y252818D01*
X330989Y252790D01*
X330950Y252762D01*
X330900Y252729D01*
X330789Y252673D01*
X330662Y252618D01*
X330589Y252596D01*
X330512Y252585D01*
X330428Y252573D01*
X330345Y252568D01*
X330334D01*
X330301D01*
X330251Y252573D01*
X330190Y252579D01*
X330112Y252590D01*
X330029Y252607D01*
X329940Y252629D01*
X329851Y252662D01*
X329840Y252668D01*
X329812Y252679D01*
X329762Y252701D01*
X329701Y252734D01*
X329629Y252773D01*
X329546Y252823D01*
X329457Y252884D01*
X329363Y252956D01*
X329357Y252962D01*
X329329Y252984D01*
X329291Y253017D01*
X329235Y253067D01*
X329169Y253134D01*
X329080Y253217D01*
X328985Y253317D01*
X328869Y253439D01*
X328863Y253445D01*
X328858Y253456D01*
X328841Y253472D01*
X328819Y253495D01*
X328763Y253556D01*
X328697Y253628D01*
X328625Y253700D01*
X328553Y253772D01*
X328491Y253839D01*
X328464Y253861D01*
X328442Y253883D01*
X328436Y253889D01*
X328425Y253900D01*
X328403Y253917D01*
X328375Y253939D01*
X328314Y253989D01*
X328242Y254033D01*
Y252568D01*
X327559D01*
Y255149D01*
X327565D01*
X327576D01*
X327598Y255143D01*
D02*
G37*
D12*
X440173Y216425D02*
X442500Y218752D01*
X321700Y210908D02*
Y266782D01*
X442992D01*
Y210908D02*
Y266782D01*
X321700Y210908D02*
X442992D01*
D59*
X349570Y228692D02*
D03*
Y262708D02*
D03*
D60*
X333113Y228692D02*
D03*
Y262708D02*
D03*
D65*
X442500Y218752D02*
D03*
D67*
X405512Y220276D02*
D03*
Y257480D02*
D03*
D69*
X384389Y223292D02*
D03*
X362672Y245650D02*
D03*
X414726Y248604D02*
D03*
X403900Y235724D02*
D03*
X383858Y233465D02*
D03*
X377953Y239370D02*
D03*
Y237402D02*
D03*
Y235433D02*
D03*
X391492Y252486D02*
D03*
X340551Y219291D02*
D03*
X338779Y223228D02*
D03*
X340551D02*
D03*
X366880Y233891D02*
D03*
X366895Y230316D02*
D03*
X377953Y233465D02*
D03*
X338779Y221260D02*
D03*
X357900Y259000D02*
D03*
X363963Y253553D02*
D03*
X381890Y233465D02*
D03*
X379921D02*
D03*
X340551Y221260D02*
D03*
X338779Y219291D02*
D03*
M02*
