G04*
G04 #@! TF.GenerationSoftware,Altium Limited,Altium Designer,22.9.1 (49)*
G04*
G04 Layer_Physical_Order=1*
G04 Layer_Color=255*
%FSLAX25Y25*%
%MOIN*%
G70*
G04*
G04 #@! TF.SameCoordinates,E7B6729E-600D-4C31-B664-834E27CDD885*
G04*
G04*
G04 #@! TF.FilePolarity,Positive*
G04*
G01*
G75*
%ADD12C,0.01000*%
%ADD14C,0.00500*%
%ADD17R,0.01968X0.02362*%
%ADD18R,0.06496X0.04921*%
%ADD19C,0.01181*%
%ADD20C,0.00394*%
%ADD21R,0.07480X0.02362*%
%ADD22R,0.11024X0.08268*%
%ADD23R,0.05339X0.04153*%
%ADD24R,0.02362X0.04331*%
%ADD25R,0.04528X0.02362*%
%ADD26R,0.04528X0.01181*%
%ADD27R,0.01417X0.01260*%
%ADD28R,0.02165X0.01772*%
%ADD29R,0.02000X0.01402*%
%ADD30R,0.01968X0.00984*%
%ADD31C,0.01063*%
%ADD32R,0.02165X0.02362*%
%ADD33R,0.02362X0.01968*%
%ADD34R,0.02362X0.02165*%
%ADD35R,0.01772X0.02165*%
%ADD36R,0.01378X0.02362*%
G04:AMPARAMS|DCode=37|XSize=21.89mil|YSize=11.52mil|CornerRadius=5.76mil|HoleSize=0mil|Usage=FLASHONLY|Rotation=0.000|XOffset=0mil|YOffset=0mil|HoleType=Round|Shape=RoundedRectangle|*
%AMROUNDEDRECTD37*
21,1,0.02189,0.00000,0,0,0.0*
21,1,0.01038,0.01152,0,0,0.0*
1,1,0.01152,0.00519,0.00000*
1,1,0.01152,-0.00519,0.00000*
1,1,0.01152,-0.00519,0.00000*
1,1,0.01152,0.00519,0.00000*
%
%ADD37ROUNDEDRECTD37*%
%ADD38R,0.02189X0.01152*%
%ADD47C,0.09035*%
%ADD53R,0.04331X0.06693*%
%ADD58C,0.02559*%
G04:AMPARAMS|DCode=59|XSize=39.37mil|YSize=82.68mil|CornerRadius=19.68mil|HoleSize=0mil|Usage=FLASHONLY|Rotation=270.000|XOffset=0mil|YOffset=0mil|HoleType=Round|Shape=RoundedRectangle|*
%AMROUNDEDRECTD59*
21,1,0.03937,0.04331,0,0,270.0*
21,1,0.00000,0.08268,0,0,270.0*
1,1,0.03937,-0.02165,0.00000*
1,1,0.03937,-0.02165,0.00000*
1,1,0.03937,0.02165,0.00000*
1,1,0.03937,0.02165,0.00000*
%
%ADD59ROUNDEDRECTD59*%
G04:AMPARAMS|DCode=60|XSize=39.37mil|YSize=70.87mil|CornerRadius=19.68mil|HoleSize=0mil|Usage=FLASHONLY|Rotation=270.000|XOffset=0mil|YOffset=0mil|HoleType=Round|Shape=RoundedRectangle|*
%AMROUNDEDRECTD60*
21,1,0.03937,0.03150,0,0,270.0*
21,1,0.00000,0.07087,0,0,270.0*
1,1,0.03937,-0.01575,0.00000*
1,1,0.03937,-0.01575,0.00000*
1,1,0.03937,0.01575,0.00000*
1,1,0.03937,0.01575,0.00000*
%
%ADD60ROUNDEDRECTD60*%
%ADD64C,0.02000*%
%ADD65R,0.06000X0.06000*%
%ADD66R,0.06000X0.06000*%
%ADD67C,0.15748*%
%ADD68C,0.03150*%
%ADD69C,0.02000*%
%ADD70C,0.04000*%
G36*
X392157Y254224D02*
X392234Y253833D01*
X392455Y253503D01*
X395485Y250473D01*
X395367Y249884D01*
X395185Y249808D01*
X394763Y249386D01*
X394535Y248835D01*
Y248238D01*
X394763Y247687D01*
X395048Y247402D01*
Y246472D01*
X394548Y246264D01*
X394348Y246464D01*
X393797Y246692D01*
X393200D01*
X392649Y246464D01*
X392227Y246042D01*
X391999Y245491D01*
Y244894D01*
X392227Y244343D01*
X392480Y244090D01*
Y242259D01*
X392114D01*
Y239094D01*
Y236141D01*
X392480D01*
Y235886D01*
X392558Y235496D01*
X392779Y235165D01*
X393058Y234886D01*
X392851Y234386D01*
X391241D01*
Y233965D01*
X391034Y233906D01*
X390592Y234293D01*
Y235226D01*
X390437Y235620D01*
X390592Y236013D01*
Y237194D01*
X390437Y237588D01*
X390592Y237982D01*
Y239163D01*
X390437Y239557D01*
X390592Y239950D01*
Y241131D01*
X390433Y241514D01*
X390050Y241673D01*
X387177D01*
X387160Y241666D01*
X386927Y241782D01*
X386863Y241846D01*
X386746Y242080D01*
X386753Y242097D01*
Y242572D01*
X387592D01*
X387982Y242650D01*
X388313Y242871D01*
X390221Y244779D01*
X390442Y245110D01*
X390520Y245500D01*
Y248700D01*
X390442Y249090D01*
X390221Y249421D01*
X389028Y250615D01*
X388749Y250999D01*
Y252570D01*
X389002D01*
Y254200D01*
X389502D01*
Y254700D01*
X391211D01*
Y255314D01*
X392157D01*
Y254224D01*
D02*
G37*
G36*
X367328Y247650D02*
X367750Y247228D01*
X368302Y247000D01*
X368898D01*
X368916Y247007D01*
X369344Y246579D01*
Y243523D01*
X368859Y243486D01*
Y243486D01*
X364393D01*
X364224Y243520D01*
X362134D01*
Y244373D01*
X362634Y244638D01*
X362672Y244631D01*
X363062Y244708D01*
X363393Y244929D01*
X363614Y245260D01*
X363692Y245650D01*
X363614Y246041D01*
X363393Y246371D01*
X363367Y246397D01*
X363036Y246619D01*
X362646Y246696D01*
X362134D01*
Y247773D01*
X364131D01*
X364341Y247814D01*
X367261D01*
X367328Y247650D01*
D02*
G37*
G36*
X442500Y262248D02*
X439000D01*
Y255248D01*
X442500D01*
Y254248D01*
X439000D01*
Y251768D01*
X432901D01*
X432511Y251690D01*
X432180Y251469D01*
X422444Y241733D01*
X419030D01*
Y242395D01*
X410550D01*
Y241832D01*
X409787D01*
X409321Y242298D01*
Y244662D01*
X409821Y244761D01*
X409849Y244695D01*
X410271Y244273D01*
X410550Y244157D01*
Y242969D01*
X419030D01*
Y246332D01*
X412418D01*
X412392Y246394D01*
X411970Y246816D01*
X411419Y247044D01*
X410822D01*
X410271Y246816D01*
X409849Y246394D01*
X409792Y246257D01*
X409321Y246187D01*
X409222Y246187D01*
X408620D01*
Y246800D01*
X408542Y247190D01*
X408321Y247521D01*
X407021Y248821D01*
X406690Y249042D01*
X406300Y249120D01*
X401844D01*
X396920Y254044D01*
Y258714D01*
X396842Y259104D01*
X396621Y259435D01*
X396035Y260021D01*
X395704Y260242D01*
X395314Y260320D01*
X394759D01*
Y260686D01*
X389980D01*
X389345Y261321D01*
X389014Y261542D01*
X388624Y261620D01*
X376809D01*
X376419Y261542D01*
X376089Y261321D01*
X375503Y260735D01*
X375282Y260404D01*
X375204Y260014D01*
Y259986D01*
X374641D01*
Y257214D01*
X375180D01*
Y255030D01*
X373506D01*
Y255530D01*
X372298D01*
Y253900D01*
Y252270D01*
X372551D01*
Y250999D01*
X374060D01*
X374267Y250499D01*
X374103Y250335D01*
X373882Y250004D01*
X373804Y249614D01*
Y249186D01*
X373241D01*
Y246414D01*
X376757D01*
Y245892D01*
X376369Y245511D01*
X375188D01*
X374805Y245353D01*
X374647Y244970D01*
Y242097D01*
X374654Y242080D01*
X374537Y241846D01*
X374473Y241782D01*
X374240Y241666D01*
X374223Y241673D01*
X371369D01*
Y242337D01*
X371383Y242406D01*
Y247002D01*
X371305Y247392D01*
X371084Y247723D01*
X370100Y248707D01*
Y248798D01*
X369872Y249350D01*
X369450Y249772D01*
X368898Y250000D01*
X368559D01*
Y250586D01*
X368559Y250586D01*
X368559D01*
X368965Y250876D01*
X369068Y250918D01*
X369771Y251622D01*
X369862Y251841D01*
X370089Y252270D01*
Y252270D01*
X370089Y252270D01*
X371298D01*
Y253900D01*
Y255530D01*
X370089D01*
Y254843D01*
X369589Y254636D01*
X369068Y255157D01*
X368149Y255538D01*
X367155D01*
X366654Y255331D01*
X366154Y255665D01*
Y257383D01*
X365872D01*
X365543Y257883D01*
X365800Y258503D01*
Y259497D01*
X365419Y260416D01*
X364716Y261119D01*
X363797Y261500D01*
X362803D01*
X361884Y261119D01*
X361181Y260416D01*
X360800Y259497D01*
Y258503D01*
X361181Y257584D01*
X361382Y257383D01*
X361175Y256883D01*
X358946D01*
Y256484D01*
X358446Y256277D01*
X358122Y256601D01*
X357203Y256981D01*
X356208D01*
X355477Y256678D01*
X354598D01*
Y256830D01*
X349381D01*
Y257432D01*
X349110Y258086D01*
X348610Y258587D01*
X347955Y258857D01*
X347248D01*
X346594Y258587D01*
X346093Y258086D01*
X345822Y257432D01*
Y256724D01*
X346093Y256070D01*
X346594Y255569D01*
X347248Y255298D01*
X347955D01*
X348570Y255553D01*
X349070Y255377D01*
Y254168D01*
X348570Y253967D01*
X348291Y254246D01*
X347739Y254474D01*
X347143D01*
X346591Y254246D01*
X346169Y253824D01*
X345941Y253273D01*
Y252676D01*
X346169Y252125D01*
X346591Y251703D01*
X346623Y251690D01*
Y251148D01*
X346591Y251135D01*
X346169Y250713D01*
X345941Y250162D01*
Y249565D01*
X346169Y249014D01*
X346363Y248819D01*
X346538Y248493D01*
X346363Y248166D01*
X346169Y247972D01*
X345941Y247421D01*
Y246824D01*
X346169Y246273D01*
X346406Y246036D01*
X346536Y245711D01*
X346406Y245386D01*
X346169Y245150D01*
X345941Y244598D01*
Y244002D01*
X346169Y243450D01*
X346461Y243159D01*
X346544Y242850D01*
X346461Y242541D01*
X346169Y242250D01*
X345941Y241698D01*
Y241102D01*
X346169Y240550D01*
X346412Y240307D01*
X346536Y239984D01*
X346412Y239661D01*
X346169Y239418D01*
X345941Y238867D01*
Y238270D01*
X346169Y237719D01*
X346591Y237297D01*
X347143Y237069D01*
X347739D01*
X348291Y237297D01*
X348570Y237576D01*
X349070Y237401D01*
Y236023D01*
X348570Y235847D01*
X347955Y236102D01*
X347248D01*
X346594Y235831D01*
X346093Y235330D01*
X345822Y234676D01*
Y233968D01*
X346093Y233314D01*
X346594Y232813D01*
X347248Y232542D01*
X347955D01*
X348610Y232813D01*
X349110Y233314D01*
X349381Y233968D01*
Y234570D01*
X354598D01*
Y234903D01*
X355911D01*
X355969Y234914D01*
X356423Y234581D01*
Y234352D01*
X356452Y234204D01*
Y230323D01*
X363948D01*
X363948Y230323D01*
Y230323D01*
X363948Y230323D01*
X364385Y230172D01*
Y229016D01*
X366566D01*
Y228516D01*
X367067D01*
Y226532D01*
X367476D01*
Y224858D01*
X366976Y224651D01*
X366825Y224802D01*
X366062Y225118D01*
X365237D01*
X364474Y224802D01*
X363891Y224219D01*
X363575Y223456D01*
Y222661D01*
X361533D01*
Y223990D01*
X361417Y224575D01*
X361085Y225071D01*
X360172Y225984D01*
Y226819D01*
X359791Y227738D01*
X359088Y228441D01*
X358169Y228821D01*
X357175D01*
X356256Y228441D01*
X355553Y227738D01*
X355172Y226819D01*
Y226252D01*
X354300D01*
Y224169D01*
X353300D01*
Y226252D01*
X352625D01*
Y226773D01*
X350943D01*
Y224788D01*
X349943D01*
Y226773D01*
X348262D01*
Y226742D01*
X348188Y226273D01*
X344825D01*
Y225120D01*
X344325Y224835D01*
X344219Y224856D01*
X343181D01*
X343015Y224992D01*
Y225547D01*
X340350D01*
Y221200D01*
Y216853D01*
X343015D01*
Y217408D01*
X343181Y217544D01*
X344219D01*
X344362Y217573D01*
X345003Y216932D01*
X345922Y216551D01*
X346917D01*
X347835Y216932D01*
X348048Y217144D01*
X348744D01*
Y216811D01*
X351713D01*
Y218265D01*
X351758Y218492D01*
Y218657D01*
X351713Y218884D01*
Y219522D01*
X351787Y219562D01*
X352287Y219262D01*
Y216811D01*
X355256D01*
Y220173D01*
X355186D01*
Y222087D01*
X355686D01*
Y224119D01*
X356148Y224310D01*
X356256Y224202D01*
X357175Y223821D01*
X358009D01*
X358474Y223356D01*
Y222661D01*
X356452D01*
Y216740D01*
X363948D01*
Y221157D01*
X364410Y221349D01*
X364474Y221284D01*
X364855Y221127D01*
X365153Y220734D01*
X365081Y220533D01*
X364779Y219806D01*
Y218811D01*
X365160Y217893D01*
X365863Y217189D01*
X366782Y216809D01*
X367476D01*
Y216574D01*
X373815D01*
Y218038D01*
X374537D01*
X374854Y217625D01*
X375428Y217184D01*
X376097Y216907D01*
X376815Y216813D01*
Y216822D01*
X377108Y216880D01*
X377356Y217046D01*
X377574Y216912D01*
X377668Y216855D01*
X377668D01*
X377668Y216855D01*
X377668Y216855D01*
X377961Y216797D01*
X378027Y216810D01*
X378027Y216812D01*
X378508Y216875D01*
X379186Y217156D01*
X379767Y217602D01*
X379792Y217635D01*
X380131Y217740D01*
X380176Y217744D01*
X380311Y217731D01*
X380450Y217672D01*
X380744Y217378D01*
X381663Y216997D01*
X382658D01*
X383577Y217378D01*
X383853Y217654D01*
X383934Y217653D01*
X384406Y217563D01*
X384988Y217117D01*
X385665Y216837D01*
X386146Y216773D01*
X386146Y216772D01*
X386213Y216758D01*
X386505Y216816D01*
X386505Y216816D01*
X386505Y216817D01*
X386505D01*
X386599Y216874D01*
X386818Y217008D01*
X387066Y216842D01*
X387358Y216784D01*
Y216775D01*
X388076Y216869D01*
X388745Y217146D01*
X389320Y217587D01*
X389492Y217812D01*
X389512Y217825D01*
X389577Y217922D01*
X389666Y218039D01*
X392709D01*
X393295Y218155D01*
X393791Y218487D01*
X395781Y220477D01*
X396113Y220973D01*
X396229Y221558D01*
Y224195D01*
X396819Y224785D01*
X397200Y225704D01*
Y226698D01*
X396819Y227617D01*
X396116Y228320D01*
X395648Y228514D01*
X395747Y229014D01*
X396829D01*
X397013Y228938D01*
X397609D01*
X398161Y229166D01*
X398583Y229588D01*
X398757Y230009D01*
X398874Y230044D01*
X399244Y230066D01*
X399278Y230060D01*
X399439Y229819D01*
X400296Y228962D01*
X400627Y228741D01*
X401017Y228663D01*
X410550D01*
Y227221D01*
X411915D01*
X412122Y226721D01*
X411912Y226511D01*
X411684Y225960D01*
Y225363D01*
X411912Y224812D01*
X412334Y224390D01*
X412886Y224162D01*
X412936D01*
X413256Y223736D01*
X413236Y223510D01*
X413081Y223136D01*
Y222539D01*
X413309Y221988D01*
X413731Y221566D01*
X414283Y221338D01*
X414879D01*
X415431Y221566D01*
X415683Y221818D01*
X417462D01*
X417852Y221896D01*
X418183Y222116D01*
X419032Y222967D01*
X419253Y223297D01*
X419331Y223688D01*
Y223991D01*
X419791D01*
Y227354D01*
X419030D01*
Y227981D01*
X422494D01*
X424444Y226031D01*
X424775Y225810D01*
X425165Y225732D01*
X439000D01*
Y223252D01*
X442500D01*
Y222752D01*
X438500D01*
Y220752D01*
X442500D01*
Y216752D01*
X438500D01*
Y214752D01*
X442500D01*
Y211400D01*
X368980D01*
Y212000D01*
Y214917D01*
X361980D01*
Y212000D01*
Y211400D01*
X360980D01*
Y212000D01*
Y214917D01*
X353980D01*
Y212000D01*
Y211400D01*
X352980D01*
Y212000D01*
Y214917D01*
X345980D01*
Y212000D01*
Y211400D01*
X344980D01*
Y212000D01*
Y214917D01*
X337980D01*
Y212000D01*
Y211400D01*
X321200D01*
Y266300D01*
X442500D01*
Y262248D01*
D02*
G37*
G36*
X386212Y242214D02*
Y242097D01*
X386122Y241880D01*
X385956Y241714D01*
X385739Y241624D01*
X385504D01*
X385287Y241714D01*
X385121Y241880D01*
X385031Y242097D01*
Y242214D01*
Y244970D01*
X386212D01*
Y242214D01*
D02*
G37*
G36*
X384243D02*
Y242097D01*
X384153Y241880D01*
X383987Y241714D01*
X383770Y241624D01*
X383535D01*
X383318Y241714D01*
X383152Y241880D01*
X383062Y242097D01*
Y242214D01*
X383062D01*
Y244970D01*
X384243D01*
Y242214D01*
D02*
G37*
G36*
X382275D02*
Y242097D01*
X382185Y241880D01*
X382019Y241714D01*
X381802Y241624D01*
X381567D01*
X381350Y241714D01*
X381184Y241880D01*
X381094Y242097D01*
Y242214D01*
Y244970D01*
X382275D01*
Y242214D01*
D02*
G37*
G36*
X380306D02*
Y242097D01*
X380216Y241880D01*
X380050Y241714D01*
X379833Y241624D01*
X379598D01*
X379381Y241714D01*
X379215Y241880D01*
X379125Y242097D01*
Y242214D01*
Y244970D01*
X380306D01*
Y242214D01*
D02*
G37*
G36*
X378338D02*
Y242097D01*
X378248Y241880D01*
X378082Y241714D01*
X377865Y241624D01*
X377630D01*
X377413Y241714D01*
X377247Y241880D01*
X377157Y242097D01*
Y242214D01*
Y244970D01*
X378338D01*
X378338Y242214D01*
D02*
G37*
G36*
X376369D02*
Y242097D01*
X376279Y241880D01*
X376113Y241714D01*
X375896Y241624D01*
X375661D01*
X375444Y241714D01*
X375278Y241880D01*
X375188Y242097D01*
Y242214D01*
Y244970D01*
X376369D01*
Y242214D01*
D02*
G37*
G36*
X390050Y239950D02*
X387177D01*
X386960Y240040D01*
X386794Y240206D01*
X386704Y240423D01*
Y240541D01*
Y240658D01*
X386794Y240876D01*
X386960Y241042D01*
X387177Y241131D01*
X390050D01*
Y239950D01*
D02*
G37*
G36*
X374440Y241042D02*
X374606Y240876D01*
X374696Y240658D01*
Y240541D01*
Y240423D01*
X374606Y240206D01*
X374440Y240040D01*
X374223Y239950D01*
X371350D01*
Y241131D01*
X374223D01*
X374440Y241042D01*
D02*
G37*
G36*
X439000Y247248D02*
X442500D01*
Y246250D01*
X439000D01*
Y243770D01*
X428774D01*
X428384Y243692D01*
X428054Y243471D01*
X422478Y237895D01*
X419030D01*
Y238458D01*
X410550D01*
Y238299D01*
X410050Y238092D01*
X408668Y239474D01*
X408974Y239871D01*
X409365Y239793D01*
X410550D01*
Y239032D01*
X419030D01*
Y239694D01*
X422866D01*
X423257Y239772D01*
X423588Y239992D01*
X433323Y249728D01*
X439000D01*
Y247248D01*
D02*
G37*
G36*
X390050Y237982D02*
X387295Y237982D01*
X387177D01*
X386960Y238072D01*
X386794Y238238D01*
X386704Y238455D01*
Y238572D01*
Y238690D01*
X386794Y238907D01*
X386960Y239073D01*
X387177Y239163D01*
X390050D01*
Y237982D01*
D02*
G37*
G36*
X374440Y239073D02*
X374606Y238907D01*
X374696Y238690D01*
Y238572D01*
Y238455D01*
X374606Y238238D01*
X374440Y238072D01*
X374223Y237982D01*
X374106D01*
Y237982D01*
X371350D01*
Y239163D01*
X374223D01*
X374440Y239073D01*
D02*
G37*
G36*
X390050Y236013D02*
X387177D01*
X386960Y236103D01*
X386794Y236269D01*
X386704Y236487D01*
Y236604D01*
Y236721D01*
X386794Y236939D01*
X386960Y237105D01*
X387177Y237194D01*
X390050D01*
Y236013D01*
D02*
G37*
G36*
X374440Y237105D02*
X374606Y236939D01*
X374696Y236721D01*
Y236604D01*
Y236487D01*
X374606Y236269D01*
X374440Y236103D01*
X374223Y236013D01*
X371350D01*
Y237194D01*
X374223D01*
X374440Y237105D01*
D02*
G37*
G36*
X439000Y239250D02*
X442500D01*
Y238250D01*
X439000D01*
Y235770D01*
X424775D01*
X424385Y235692D01*
X424054Y235471D01*
X422442Y233859D01*
X419030D01*
Y234521D01*
X410550D01*
Y233958D01*
X409321D01*
Y235431D01*
X409821Y235801D01*
X409894Y235787D01*
X410550D01*
Y235095D01*
X419030D01*
Y235856D01*
X422900D01*
X423290Y235934D01*
X423621Y236155D01*
X429197Y241730D01*
X439000D01*
Y239250D01*
D02*
G37*
G36*
X390050Y234045D02*
X387177D01*
X386960Y234135D01*
X386794Y234301D01*
X386704Y234518D01*
Y234635D01*
Y234753D01*
X386794Y234970D01*
X386960Y235136D01*
X387177Y235226D01*
X390050D01*
Y234045D01*
D02*
G37*
G36*
X374440Y235136D02*
X374606Y234970D01*
X374696Y234753D01*
Y234635D01*
Y234518D01*
X374606Y234301D01*
X374440Y234135D01*
X374223Y234045D01*
X371350D01*
Y235226D01*
X374223D01*
X374440Y235136D01*
D02*
G37*
G36*
X390050Y232076D02*
X387177D01*
X386960Y232166D01*
X386794Y232332D01*
X386704Y232550D01*
Y232667D01*
Y232784D01*
X386794Y233001D01*
X386960Y233168D01*
X387177Y233258D01*
X387295D01*
Y233258D01*
X390050D01*
Y232076D01*
D02*
G37*
G36*
X374106Y233258D02*
X374223D01*
X374440Y233168D01*
X374606Y233001D01*
X374696Y232784D01*
Y232667D01*
Y232550D01*
X374606Y232332D01*
X374440Y232166D01*
X374223Y232076D01*
X371350D01*
Y233258D01*
X374106Y233258D01*
D02*
G37*
G36*
X385720Y230600D02*
X375680D01*
Y239655D01*
X376665Y240639D01*
X385720D01*
Y230600D01*
D02*
G37*
G36*
X390050Y230108D02*
X387177D01*
X386960Y230198D01*
X386794Y230364D01*
X386704Y230581D01*
Y230698D01*
Y230816D01*
X386794Y231033D01*
X386960Y231199D01*
X387177Y231289D01*
X390050D01*
Y230108D01*
D02*
G37*
G36*
X374440Y231199D02*
X374606Y231033D01*
X374696Y230816D01*
Y230698D01*
Y230581D01*
X374606Y230364D01*
X374440Y230198D01*
X374223Y230108D01*
X371350D01*
Y231289D01*
X374223D01*
X374440Y231199D01*
D02*
G37*
G36*
X391241Y229014D02*
X393653D01*
X393752Y228514D01*
X393284Y228320D01*
X392581Y227617D01*
X392200Y226698D01*
Y225704D01*
X392581Y224785D01*
X393171Y224195D01*
Y222192D01*
X392371Y221392D01*
X392267Y221413D01*
X392172Y221584D01*
X392055Y221965D01*
X392331Y222631D01*
Y223456D01*
X392015Y224219D01*
X391431Y224802D01*
X390669Y225118D01*
X389843D01*
X389081Y224802D01*
X388497Y224219D01*
X388181Y223456D01*
Y222700D01*
X388062Y222519D01*
X387791Y222265D01*
X387358Y222322D01*
Y222313D01*
X387066Y222255D01*
X386818Y222089D01*
X386599Y222223D01*
X386505Y222280D01*
X386505D01*
X386505Y222280D01*
X386505Y222280D01*
X386213Y222338D01*
X386146Y222325D01*
X386146Y222323D01*
X385665Y222260D01*
X384988Y221979D01*
X384406Y221533D01*
X384389Y221511D01*
X384090Y221404D01*
X383838Y221371D01*
X383823Y221370D01*
X383577Y221616D01*
X382658Y221997D01*
X381663D01*
X380744Y221616D01*
X380440Y221312D01*
X379990Y221341D01*
X379928Y221387D01*
X379867Y221446D01*
X379856Y221463D01*
X379845Y221470D01*
X379767Y221572D01*
X379186Y222018D01*
X378508Y222298D01*
X378386Y222314D01*
X378419Y222814D01*
X381759D01*
Y225586D01*
X382200Y225728D01*
X382275D01*
X382668Y225882D01*
X383062Y225728D01*
X384243D01*
X384637Y225882D01*
X385031Y225728D01*
X386212D01*
X386595Y225887D01*
X386753Y226269D01*
Y229143D01*
X386746Y229159D01*
X386884Y229436D01*
D01*
X387160Y229574D01*
X387177Y229567D01*
X390050D01*
X390321Y229679D01*
X391241D01*
Y229014D01*
D02*
G37*
G36*
X439000Y231250D02*
X442500D01*
Y230252D01*
X439000D01*
Y227772D01*
X425587D01*
X423637Y229722D01*
X423306Y229943D01*
X422916Y230020D01*
X419030D01*
Y230584D01*
X414571D01*
X414491Y230658D01*
X414687Y231158D01*
X419030D01*
Y231820D01*
X422864D01*
X423255Y231897D01*
X423586Y232119D01*
X425197Y233730D01*
X439000D01*
Y231250D01*
D02*
G37*
G36*
X385956Y229526D02*
X386122Y229360D01*
X386212Y229143D01*
Y229025D01*
Y226269D01*
X385031D01*
Y229025D01*
Y229143D01*
X385121Y229360D01*
X385287Y229526D01*
X385504Y229616D01*
X385739D01*
X385956Y229526D01*
D02*
G37*
G36*
X383987D02*
X384153Y229360D01*
X384243Y229143D01*
Y229025D01*
Y226269D01*
X383062D01*
X383062Y229025D01*
Y229143D01*
X383152Y229360D01*
X383318Y229526D01*
X383535Y229616D01*
X383770D01*
X383987Y229526D01*
D02*
G37*
G36*
X382019D02*
X382185Y229360D01*
X382275Y229143D01*
Y229025D01*
Y226269D01*
X381094D01*
Y229025D01*
Y229143D01*
X381184Y229360D01*
X381350Y229526D01*
X381567Y229616D01*
X381802D01*
X382019Y229526D01*
D02*
G37*
G36*
X380050D02*
X380216Y229360D01*
X380306Y229143D01*
Y229025D01*
Y226269D01*
X379125D01*
Y229025D01*
Y229143D01*
X379215Y229360D01*
X379381Y229526D01*
X379598Y229616D01*
X379833D01*
X380050Y229526D01*
D02*
G37*
G36*
X378082D02*
X378248Y229360D01*
X378338Y229143D01*
Y229025D01*
X378338D01*
Y226269D01*
X377157D01*
Y229025D01*
Y229143D01*
X377247Y229360D01*
X377413Y229526D01*
X377630Y229616D01*
X377865D01*
X378082Y229526D01*
D02*
G37*
G36*
X376113D02*
X376279Y229360D01*
X376369Y229143D01*
Y229025D01*
Y226269D01*
X375188D01*
Y229025D01*
Y229143D01*
X375278Y229360D01*
X375444Y229526D01*
X375661Y229616D01*
X375896D01*
X376113Y229526D01*
D02*
G37*
G36*
X379815Y220567D02*
Y218587D01*
X377961Y217587D01*
Y218587D01*
X376961Y219587D01*
X377961Y220587D01*
Y221612D01*
X379815Y220567D01*
D02*
G37*
G36*
X376815Y220980D02*
X375620Y219785D01*
Y219368D01*
X376815Y218173D01*
Y217567D01*
X375815Y218067D01*
X374815Y218567D01*
Y220567D01*
X375815Y221067D01*
X376795Y221567D01*
X376815Y221587D01*
Y220980D01*
D02*
G37*
G36*
X388358Y221068D02*
X389358Y220568D01*
Y218568D01*
X388358Y218068D01*
X387378Y217568D01*
X387358Y217548D01*
Y218155D01*
X388553Y219350D01*
Y219767D01*
X387358Y220962D01*
Y221568D01*
X388358Y221068D01*
D02*
G37*
G36*
X386213Y220548D02*
X387213Y219548D01*
X386213Y218548D01*
Y217523D01*
X384358Y218568D01*
Y220548D01*
X386213Y221548D01*
Y220548D01*
D02*
G37*
%LPC*%
G36*
X391211Y253700D02*
X390002D01*
Y252570D01*
X391211D01*
Y253700D01*
D02*
G37*
G36*
X414783Y256230D02*
X414186D01*
X413635Y256002D01*
X413213Y255580D01*
X412985Y255029D01*
Y254432D01*
X413158Y254013D01*
X413213Y253811D01*
X413026Y253361D01*
X413025D01*
X412474Y253132D01*
X412052Y252710D01*
X411824Y252159D01*
Y251562D01*
X412052Y251011D01*
X412474Y250589D01*
X413025Y250360D01*
X413279D01*
Y250201D01*
X416248D01*
Y253520D01*
X416823D01*
Y250201D01*
X419791D01*
Y253563D01*
X419111D01*
Y253953D01*
X419034Y254344D01*
X418813Y254674D01*
X418227Y255260D01*
X417896Y255481D01*
X417506Y255559D01*
X415765D01*
X415756Y255580D01*
X415334Y256002D01*
X414783Y256230D01*
D02*
G37*
G36*
X331922Y257980D02*
X327059D01*
Y245935D01*
X331922D01*
Y257980D01*
D02*
G37*
G36*
X366067Y228016D02*
X364385D01*
Y226532D01*
X366067D01*
Y228016D01*
D02*
G37*
G36*
X332997Y226724D02*
X332003D01*
X331084Y226343D01*
X330381Y225640D01*
X330000Y224721D01*
Y223726D01*
X330031Y223650D01*
Y221372D01*
X329744Y221204D01*
X329457Y221372D01*
Y224225D01*
X326488D01*
Y220863D01*
X326559D01*
Y220260D01*
X326445D01*
Y217488D01*
X328898D01*
Y216988D01*
X330480D01*
Y218874D01*
X331480D01*
Y216988D01*
X331516D01*
Y216543D01*
X333000D01*
Y218724D01*
X334000D01*
Y216543D01*
X335484D01*
Y217034D01*
X335499D01*
Y218641D01*
X336499D01*
Y217034D01*
X336518D01*
X336684Y216898D01*
Y216853D01*
X339350D01*
Y221200D01*
Y225547D01*
X336684D01*
X336684Y225547D01*
Y225547D01*
X336184Y225465D01*
X335904Y225521D01*
X334669D01*
X334619Y225640D01*
X333916Y226343D01*
X332997Y226724D01*
D02*
G37*
%LPD*%
G36*
X330451Y257475D02*
X330456Y257469D01*
X330462Y257453D01*
X330467Y257430D01*
X330495Y257375D01*
X330528Y257297D01*
X330573Y257203D01*
X330634Y257097D01*
X330712Y256981D01*
X330800Y256859D01*
X330806Y256853D01*
X330811Y256842D01*
X330828Y256825D01*
X330850Y256803D01*
X330906Y256742D01*
X330978Y256676D01*
X331067Y256598D01*
X331178Y256520D01*
X331294Y256448D01*
X331422Y256393D01*
Y255793D01*
X327559D01*
Y256531D01*
X330340D01*
X330334Y256537D01*
X330323Y256548D01*
X330306Y256570D01*
X330278Y256603D01*
X330245Y256642D01*
X330212Y256687D01*
X330173Y256742D01*
X330129Y256803D01*
X330084Y256870D01*
X330040Y256942D01*
X329990Y257020D01*
X329946Y257103D01*
X329862Y257280D01*
X329785Y257480D01*
X330451D01*
Y257475D01*
D02*
G37*
D12*
X355400Y240340D02*
X355986Y240926D01*
X351834Y238810D02*
X351839Y238806D01*
X355400Y239391D02*
Y240340D01*
X351743Y238720D02*
X351834Y238810D01*
X351839Y238806D02*
X354814D01*
X355400Y239391D01*
X360106Y245676D02*
X362646D01*
X360080Y245650D02*
X360106Y245676D01*
X357500Y245650D02*
X360080D01*
X362646Y245676D02*
X362672Y245650D01*
X425165Y226752D02*
X442500D01*
X422916Y229001D02*
X425165Y226752D01*
X414549Y229001D02*
X422916D01*
X414790Y232839D02*
X422864D01*
X424775Y234750D01*
X442500D01*
X414548Y236876D02*
X422900D01*
X428774Y242750D01*
X414790Y240714D02*
X422866D01*
X432901Y250748D01*
X428774Y242750D02*
X442500D01*
X432901Y250748D02*
X442500D01*
X414479Y236806D02*
X414548Y236876D01*
X408321Y232939D02*
X414790D01*
X400160Y230540D02*
Y234619D01*
X413867Y229683D02*
X414548Y229002D01*
X400160Y230540D02*
X401017Y229683D01*
X413867D01*
X394086Y235300D02*
X399479D01*
X393500Y235886D02*
Y237724D01*
Y235886D02*
X394086Y235300D01*
X399479D02*
X400160Y234619D01*
X407640Y233620D02*
Y233679D01*
X396100Y237724D02*
X406676D01*
X407640Y236760D01*
Y233620D02*
X408321Y232939D01*
X407640Y233679D02*
Y236760D01*
X401540Y239760D02*
X406940D01*
X409894Y236806D01*
X414479D01*
X393176Y254224D02*
X400160Y247240D01*
Y243521D02*
Y247240D01*
X393176Y254224D02*
Y256700D01*
X400200Y241100D02*
X401540Y239760D01*
X400200Y241100D02*
Y243481D01*
X407600Y243561D02*
X407640Y243521D01*
Y242537D02*
Y243521D01*
X414691Y240813D02*
X414790Y240714D01*
X407640Y242537D02*
X409365Y240813D01*
X414691D01*
X395900Y253621D02*
Y258714D01*
X395314Y259300D02*
X395900Y258714D01*
Y253621D02*
X401421Y248100D01*
X393176Y259300D02*
X395314D01*
X407600Y243561D02*
Y246800D01*
X401421Y248100D02*
X406300D01*
X407600Y246800D01*
X378472Y235359D02*
X378734Y235620D01*
X380700D01*
X378526D02*
X380700D01*
X375573Y238572D02*
X378526Y235620D01*
X373023Y238572D02*
X375573D01*
X389538Y259686D02*
X389641D01*
X388624Y260600D02*
X389538Y259686D01*
X376224Y260014D02*
X376809Y260600D01*
X376224Y258100D02*
Y260014D01*
X376809Y260600D02*
X388624D01*
X390024Y259200D02*
Y259303D01*
X389641Y259686D02*
X390024Y259303D01*
X396035Y248537D02*
X396068Y248504D01*
Y240709D02*
Y248504D01*
X393499Y240677D02*
Y245192D01*
X393498Y245193D02*
X393499Y245192D01*
X345631Y223788D02*
X346335Y224492D01*
X346532D01*
X343729Y223788D02*
X345631D01*
X343700Y223759D02*
X343729Y223788D01*
X351388Y221568D02*
X351414Y221542D01*
X349201Y221568D02*
X351388D01*
X349159Y221610D02*
X349201Y221568D01*
X331172Y222200D02*
X331516Y222544D01*
Y223248D02*
X332491Y224224D01*
X332500D01*
X347637Y252518D02*
Y252975D01*
X366887Y230324D02*
Y233884D01*
X366880Y233891D02*
X366887Y233884D01*
X347637Y252518D02*
X349443Y250712D01*
X351743D01*
X347463Y249863D02*
X347734D01*
X348897Y248700D02*
X351787D01*
X347734Y249863D02*
X348897Y248700D01*
X347606Y247123D02*
X347748D01*
X347750Y238720D02*
X351743D01*
X347598Y238568D02*
X347750Y238720D01*
X351743Y250712D02*
X351834Y250621D01*
X348286Y244716D02*
X351834D01*
X347600Y244300D02*
X347871D01*
X348286Y244716D01*
X348186Y246684D02*
X351834D01*
X347748Y247123D02*
X348186Y246684D01*
X366731Y228680D02*
Y230152D01*
X366566Y228516D02*
X366731Y228680D01*
X366887Y230324D02*
X366895Y230316D01*
X366731Y230152D02*
X366895Y230316D01*
X367859Y241517D02*
X367909Y241468D01*
Y241191D02*
Y241468D01*
X367859Y241517D02*
Y241714D01*
X367909Y241191D02*
X368100Y241000D01*
X379082Y219497D02*
X379813D01*
X358131Y221269D02*
X360092Y219309D01*
X360200D01*
X370607Y219112D02*
X371062Y219567D01*
X384358Y219523D02*
X386187D01*
X382160Y219497D02*
X382186Y219523D01*
X386187D02*
X386213Y219548D01*
X379007Y219573D02*
X379082Y219497D01*
X417462Y222837D02*
X418312Y223688D01*
X414581Y222837D02*
X417462D01*
X418092Y252097D02*
Y253953D01*
X414676Y254539D02*
X417506D01*
X418092Y252097D02*
X418307Y251882D01*
X417506Y254539D02*
X418092Y253953D01*
X414485Y254731D02*
X414676Y254539D01*
X413184Y225662D02*
X413189Y225667D01*
X414758D01*
X414764Y225673D01*
X414753Y251871D02*
X414764Y251882D01*
X413334Y251871D02*
X414753D01*
X413323Y251860D02*
X413334Y251871D01*
X387442Y258600D02*
X388956Y257086D01*
X389641D01*
X385076Y258600D02*
X387442D01*
X389641Y257086D02*
X390127Y256600D01*
X385076Y258600D02*
X385326Y258350D01*
X387268Y254170D02*
X387273Y254176D01*
X387249Y252200D02*
X387273Y252224D01*
Y254176D02*
X387298Y254200D01*
X387273Y252224D02*
Y254176D01*
X385882Y254170D02*
X387268D01*
X385076Y254975D02*
X385882Y254170D01*
X385631Y245970D02*
X386950Y247289D01*
X387221D01*
X383665Y245018D02*
X384616Y245970D01*
X385631D01*
X381684Y246099D02*
X382725Y247140D01*
X381684Y243358D02*
Y246099D01*
X382725Y247140D02*
Y247410D01*
X393499Y240677D02*
X393500Y240676D01*
X383700Y252200D02*
X385800Y250100D01*
X388100D02*
X389500Y248700D01*
X385800Y250100D02*
X388100D01*
X389500Y245500D02*
Y248700D01*
X370535Y228516D02*
Y230688D01*
X370503Y225007D02*
Y228516D01*
Y225007D02*
X370646Y224865D01*
X327579Y219126D02*
X327831Y218874D01*
X327579Y219126D02*
Y222544D01*
X353786Y218114D02*
Y220810D01*
X371940Y230698D02*
X373023D01*
X355986Y240926D02*
X360650D01*
Y239404D02*
Y240926D01*
Y239404D02*
X361454Y238600D01*
X365627D01*
X365700Y238673D01*
X370525Y230698D02*
X371940D01*
X373023Y229616D02*
Y230698D01*
Y232667D01*
Y229616D02*
X374684Y227955D01*
X418312Y223688D02*
Y225668D01*
X418307Y225673D02*
X418312Y225668D01*
X396068Y240709D02*
X396100Y240676D01*
X338779Y220130D02*
X339849Y221200D01*
X338487Y218641D02*
X338779Y218933D01*
X335999Y218641D02*
X338487D01*
X340900Y221200D02*
X343700D01*
X368865Y248500D02*
X370363Y247002D01*
X366976Y249200D02*
X367362Y248814D01*
X368329Y248500D02*
X368865D01*
X370363Y242406D02*
Y247002D01*
X367362Y248814D02*
X368015D01*
X368329Y248500D01*
X370350Y237568D02*
X371301Y236616D01*
X370350Y242392D02*
X370363Y242406D01*
X370350Y237568D02*
Y242392D01*
X368000Y237700D02*
Y240900D01*
X368100Y241000D01*
X367473Y242100D02*
X367859Y241714D01*
X367276Y242100D02*
X367473D01*
X368000Y237700D02*
X371053Y234647D01*
X373011D01*
X347598Y241400D02*
X347771D01*
X347500D02*
X347598D01*
X351834Y246684D02*
X355016D01*
X347771Y241400D02*
X349071Y242700D01*
X351787D01*
X351834Y242747D01*
X351787Y248700D02*
X351834Y248653D01*
X355557Y247225D02*
X360650D01*
X355016Y246684D02*
X355557Y247225D01*
X355424Y244076D02*
X360650D01*
X351847Y244703D02*
X354797D01*
X355424Y244076D01*
X354028Y242657D02*
X354183Y242501D01*
X357500D01*
X354128Y248800D02*
X357500D01*
X351924Y248743D02*
X354072D01*
X351834Y248653D02*
X351924Y248743D01*
X354072D02*
X354128Y248800D01*
X371301Y236616D02*
X372950D01*
X372962Y236604D01*
X373011Y234647D02*
X373023Y234635D01*
X331516Y222544D02*
Y223248D01*
X387592Y243592D02*
X389500Y245500D01*
X383665Y243309D02*
Y245018D01*
X385638Y243297D02*
X385934Y243592D01*
X385621Y243297D02*
X385638D01*
X385934Y243592D02*
X387592D01*
X379149Y252786D02*
X379735Y252200D01*
X379149Y252786D02*
Y254169D01*
X379735Y252200D02*
X383700D01*
X381852Y250232D02*
X382151D01*
X381651Y250031D02*
X381852Y250232D01*
X381651Y249618D02*
Y250031D01*
X380219Y248186D02*
X381651Y249618D01*
X378162Y248186D02*
X380219D01*
X377776Y247800D02*
X378162Y248186D01*
X383653Y243297D02*
X383665Y243309D01*
X387226Y252224D02*
X387249Y252200D01*
X385076Y254975D02*
Y258100D01*
X379118Y250200D02*
X379149Y250232D01*
X375409Y250200D02*
X379118D01*
X374824Y249614D02*
X375409Y250200D01*
X374824Y247800D02*
Y249614D01*
X382076Y256100D02*
X382114Y256063D01*
Y254206D02*
Y256063D01*
Y254206D02*
X382151Y254169D01*
X379136Y254181D02*
Y256087D01*
Y254181D02*
X379149Y254169D01*
X379124Y256100D02*
X379136Y256087D01*
X374074Y252224D02*
Y253876D01*
X374098Y253900D01*
X374051Y252200D02*
X374074Y252224D01*
X376200Y258076D02*
X376224Y258100D01*
X376200Y254486D02*
Y258076D01*
X374098Y253900D02*
X375614D01*
X376200Y254486D01*
X377747Y243297D02*
Y243314D01*
X377776Y243343D02*
Y246700D01*
X377747Y243314D02*
X377776Y243343D01*
X403900Y243521D02*
X404581Y244202D01*
X353786Y220810D02*
X353800Y220824D01*
X335923Y223835D02*
X335999Y223759D01*
X388377Y230698D02*
X392228D01*
X392627Y230300D01*
X392824D01*
X392603Y232679D02*
X392824Y232900D01*
X388377Y232667D02*
X388389Y232679D01*
X392603D01*
X379716Y227882D02*
X379728Y227870D01*
Y224568D02*
Y227870D01*
Y224568D02*
X380076Y224220D01*
X377027Y224200D02*
X377224D01*
X377747Y224646D02*
Y227942D01*
X377321Y224220D02*
X377747Y224646D01*
X375779Y227942D02*
X377747D01*
X374684Y227955D02*
X375767D01*
X375779Y227942D01*
X355525Y250375D02*
X360646D01*
X360638Y250383D02*
Y255289D01*
X360627Y255300D02*
X360638Y255289D01*
X360646Y250375D02*
X360650D01*
X360638Y250383D02*
X360646Y250375D01*
X357984Y242500D02*
X364224D01*
X355279Y250621D02*
X355525Y250375D01*
X351834Y250621D02*
X355279D01*
X357984Y248792D02*
X364131D01*
X321700Y210908D02*
Y266782D01*
X442992D01*
Y210908D02*
Y266782D01*
X321700Y210908D02*
X442992D01*
D14*
X379813Y219497D02*
G03*
X379315Y220922I-2031J90D01*
G01*
X379440Y218411D02*
G03*
X379813Y219497I-1658J1176D01*
G01*
X387358Y217548D02*
G03*
X388971Y218366I0J2000D01*
G01*
X389332Y219225D02*
G03*
X389358Y219568I-1974J323D01*
G01*
D02*
G03*
X389326Y219905I-2000J-20D01*
G01*
D02*
G03*
X387358Y221548I-1968J-357D01*
G01*
X374815Y219567D02*
G03*
X376815Y217587I2000J20D01*
G01*
Y221587D02*
G03*
X374921Y220230I0J-2000D01*
G01*
X374841Y219910D02*
G03*
X374815Y219567I1974J-323D01*
G01*
X384358Y219523D02*
G03*
X384890Y218177I2033J26D01*
G01*
X384867Y220894D02*
G03*
X384358Y219523I1524J-1345D01*
G01*
X388971Y218366D02*
G03*
X389119Y218599I-1613J1183D01*
G01*
D02*
G03*
X389332Y219225I-1760J950D01*
G01*
X384890Y218177D02*
G03*
X386213Y217523I1501J1371D01*
G01*
Y221574D02*
G03*
X384867Y220894I179J-2025D01*
G01*
X379315Y220922D02*
G03*
X377961Y221612I-1533J-1335D01*
G01*
Y217561D02*
G03*
X379315Y218251I-179J2025D01*
G01*
X374921Y220230D02*
G03*
X374841Y219910I1894J-643D01*
G01*
X379315Y218251D02*
G03*
X379367Y218313I-1533J1335D01*
G01*
D02*
G03*
X379440Y218411I-1585J1274D01*
G01*
X377461Y220087D02*
X377527Y220153D01*
X376961Y219587D02*
X377461Y220087D01*
Y219087D02*
X377527Y219021D01*
X376961Y219587D02*
X377461Y219087D01*
X387358Y217548D02*
Y218155D01*
X388553Y219350D02*
Y219568D01*
Y219767D01*
X387358Y220962D02*
Y221548D01*
X375620Y219567D02*
Y219785D01*
Y219531D02*
Y219567D01*
X386213Y218548D02*
X386713Y219048D01*
X386213Y220548D02*
X386713Y220048D01*
X387213Y219548D01*
X386713Y219048D02*
X387213Y219548D01*
X387358Y220962D02*
X388553Y219767D01*
X386213Y217548D02*
Y218548D01*
Y220548D02*
Y221548D01*
X387358Y218155D02*
X388313Y219109D01*
X388553Y219350D01*
X375620Y219368D02*
X376815Y218173D01*
X375620Y219785D02*
X376815Y220980D01*
X377961Y220587D02*
Y221587D01*
Y217587D02*
Y218587D01*
X376815Y217587D02*
Y218173D01*
Y220980D02*
Y221587D01*
X375620Y219368D02*
Y219531D01*
X377527Y220153D02*
X377961Y220587D01*
X377527Y219021D02*
X377961Y218587D01*
D17*
X350228Y218492D02*
D03*
X353772D02*
D03*
X414764Y225673D02*
D03*
X418307D02*
D03*
X414764Y251882D02*
D03*
X418307D02*
D03*
X327972Y222544D02*
D03*
X331516D02*
D03*
X333500Y222661D02*
D03*
Y218724D02*
D03*
D18*
X360200Y233283D02*
D03*
Y219701D02*
D03*
D19*
X386213Y219548D02*
D03*
X377961Y219587D02*
D03*
D20*
X388989Y219568D02*
D03*
X375184Y219567D02*
D03*
D21*
X414790Y240714D02*
D03*
Y232839D02*
D03*
Y248587D02*
D03*
Y228903D02*
D03*
Y244651D02*
D03*
Y236776D02*
D03*
D22*
X424042Y216501D02*
D03*
Y260989D02*
D03*
D23*
X370646Y219151D02*
D03*
Y224865D02*
D03*
D24*
X400160Y233679D02*
D03*
X403900D02*
D03*
X407640D02*
D03*
Y243521D02*
D03*
X403900D02*
D03*
X400160D02*
D03*
D25*
X351834Y233102D02*
D03*
Y258298D02*
D03*
Y236251D02*
D03*
Y255149D02*
D03*
D26*
Y238810D02*
D03*
Y240779D02*
D03*
Y242747D02*
D03*
Y244716D02*
D03*
Y246684D02*
D03*
Y248653D02*
D03*
Y250621D02*
D03*
Y252590D02*
D03*
D27*
X374002Y253900D02*
D03*
X371798D02*
D03*
X387298Y254200D02*
D03*
X389502D02*
D03*
X370514Y230709D02*
D03*
X368310D02*
D03*
D28*
X328028Y218874D02*
D03*
X379124Y256100D02*
D03*
X382076D02*
D03*
X382124Y258600D02*
D03*
X385076D02*
D03*
X376224D02*
D03*
X379176D02*
D03*
X377776Y247800D02*
D03*
X374824D02*
D03*
X377224Y224200D02*
D03*
X380176D02*
D03*
X390224Y259300D02*
D03*
X393176D02*
D03*
X395776Y233000D02*
D03*
X392824D02*
D03*
X395776Y230400D02*
D03*
X392824D02*
D03*
X393176Y256700D02*
D03*
X390224D02*
D03*
X367276Y242100D02*
D03*
X364324D02*
D03*
X366976Y249200D02*
D03*
X364024D02*
D03*
X330980Y218874D02*
D03*
D29*
X382151Y254169D02*
D03*
Y250232D02*
D03*
X387249Y252200D02*
D03*
X374051D02*
D03*
X379149Y254169D02*
D03*
Y250232D02*
D03*
D30*
X360650Y250375D02*
D03*
Y240926D02*
D03*
Y244076D02*
D03*
Y247225D02*
D03*
X357500Y245650D02*
D03*
Y248800D02*
D03*
Y242501D02*
D03*
Y238958D02*
D03*
Y252343D02*
D03*
D31*
X375779Y243358D02*
D03*
X377747Y243297D02*
D03*
X379716D02*
D03*
X381684Y243358D02*
D03*
X383653Y243297D02*
D03*
X385621D02*
D03*
Y226860D02*
D03*
X383653Y227942D02*
D03*
X381684D02*
D03*
X379716Y227882D02*
D03*
X377747Y227942D02*
D03*
X375779D02*
D03*
X388438Y240541D02*
D03*
X388377Y238572D02*
D03*
Y236604D02*
D03*
X388438Y234635D02*
D03*
X388377Y232667D02*
D03*
Y230698D02*
D03*
X371940D02*
D03*
X373023Y232667D02*
D03*
Y234635D02*
D03*
X372962Y236604D02*
D03*
X373023Y238572D02*
D03*
Y240541D02*
D03*
D32*
X365700Y235327D02*
D03*
Y238673D02*
D03*
D33*
X370503Y228516D02*
D03*
X366566D02*
D03*
X346507Y224788D02*
D03*
X350444D02*
D03*
D34*
X363973Y255300D02*
D03*
X360627D02*
D03*
D35*
X353800Y224169D02*
D03*
Y221217D02*
D03*
X393500Y237724D02*
D03*
Y240676D02*
D03*
X396100Y237724D02*
D03*
Y240676D02*
D03*
D36*
X346516Y221776D02*
D03*
X349075D02*
D03*
D37*
X343700Y223759D02*
D03*
Y221200D02*
D03*
Y218641D02*
D03*
X335999D02*
D03*
Y221200D02*
D03*
D38*
Y223759D02*
D03*
D47*
X380700Y235620D02*
D03*
D53*
X339849Y221200D02*
D03*
D58*
X347602Y234322D02*
D03*
Y257078D02*
D03*
D59*
X349570Y228692D02*
D03*
Y262708D02*
D03*
D60*
X333113Y228692D02*
D03*
Y262708D02*
D03*
D64*
X360004Y219897D02*
Y223990D01*
Y219897D02*
X360200Y219701D01*
X357672Y226322D02*
X360004Y223990D01*
X356114Y236635D02*
X357225D01*
X352015Y236432D02*
X355911D01*
X356114Y236635D01*
X347343Y218673D02*
X350213D01*
X346824Y219193D02*
Y219456D01*
Y219193D02*
X347343Y218673D01*
X350228Y218492D02*
Y218657D01*
X346419Y219051D02*
X346467Y219099D01*
X350213Y218673D02*
X350228Y218657D01*
X346467Y219099D02*
Y221595D01*
X346516Y221776D02*
Y223788D01*
Y224476D01*
X346532Y224492D01*
X335923Y223835D02*
Y223973D01*
X332732Y223991D02*
X335904D01*
X332500Y224224D02*
X332732Y223991D01*
X335904D02*
X335923Y223973D01*
X382186Y219523D02*
X384358D01*
X379813Y219497D02*
X382160D01*
X394700Y221558D02*
Y226200D01*
X392709Y219568D02*
X394700Y221558D01*
X389358Y219568D02*
X392709D01*
X371062Y219567D02*
X374815D01*
X357608Y237018D02*
X357952Y236674D01*
Y234352D02*
Y236674D01*
Y234352D02*
X359413Y232891D01*
X351834Y236251D02*
X352015Y236432D01*
X357225Y236635D02*
X357608Y237018D01*
X359413Y232891D02*
X360200D01*
X335999Y221200D02*
Y223759D01*
X351834Y255149D02*
X356279D01*
D65*
X442500Y218752D02*
D03*
Y250748D02*
D03*
Y226752D02*
D03*
Y234750D02*
D03*
Y242750D02*
D03*
Y258748D02*
D03*
D66*
X341480Y211417D02*
D03*
X349480D02*
D03*
X365480D02*
D03*
X357480D02*
D03*
D67*
X405512Y220276D02*
D03*
Y257480D02*
D03*
D68*
X390256Y223043D02*
D03*
X365650D02*
D03*
D69*
X384389Y223292D02*
D03*
X362672Y245650D02*
D03*
X414726Y248604D02*
D03*
X411121Y245545D02*
D03*
X403900Y235724D02*
D03*
X383858Y233465D02*
D03*
X377953Y239370D02*
D03*
Y237402D02*
D03*
Y235433D02*
D03*
X391492Y252486D02*
D03*
X380600Y258600D02*
D03*
X396035Y248537D02*
D03*
X393498Y245193D02*
D03*
X340551Y219291D02*
D03*
X351414Y221542D02*
D03*
X338779Y223228D02*
D03*
X340551D02*
D03*
X366880Y233891D02*
D03*
X366895Y230316D02*
D03*
X347441Y249863D02*
D03*
Y247123D02*
D03*
Y252975D02*
D03*
Y238568D02*
D03*
Y244300D02*
D03*
X368100Y241000D02*
D03*
X377953Y233465D02*
D03*
X414485Y254731D02*
D03*
X413184Y225662D02*
D03*
X413323Y251860D02*
D03*
X387221Y247289D02*
D03*
X382725Y247410D02*
D03*
X368600Y248500D02*
D03*
X414581Y222837D02*
D03*
X397311Y230438D02*
D03*
X397390Y233125D02*
D03*
X338779Y221260D02*
D03*
X347441Y241400D02*
D03*
X357900Y259000D02*
D03*
X363963Y253553D02*
D03*
X403500Y245600D02*
D03*
X381890Y233465D02*
D03*
X379921D02*
D03*
X340551Y221260D02*
D03*
X338779Y219291D02*
D03*
D70*
X357672Y226322D02*
D03*
X357608Y237018D02*
D03*
X346419Y219051D02*
D03*
X332500Y224224D02*
D03*
X367280Y219309D02*
D03*
X394700Y226201D02*
D03*
X382160Y219497D02*
D03*
X367652Y253038D02*
D03*
X363300Y259000D02*
D03*
X356706Y254481D02*
D03*
M02*
