G04*
G04 #@! TF.GenerationSoftware,Altium Limited,Altium Designer,22.9.1 (49)*
G04*
G04 Layer_Physical_Order=4*
G04 Layer_Color=16711680*
%FSLAX25Y25*%
%MOIN*%
G70*
G04*
G04 #@! TF.SameCoordinates,E7B6729E-600D-4C31-B664-834E27CDD885*
G04*
G04*
G04 #@! TF.FilePolarity,Positive*
G04*
G01*
G75*
%ADD12C,0.01000*%
%ADD58C,0.02559*%
G04:AMPARAMS|DCode=59|XSize=39.37mil|YSize=82.68mil|CornerRadius=19.68mil|HoleSize=0mil|Usage=FLASHONLY|Rotation=270.000|XOffset=0mil|YOffset=0mil|HoleType=Round|Shape=RoundedRectangle|*
%AMROUNDEDRECTD59*
21,1,0.03937,0.04331,0,0,270.0*
21,1,0.00000,0.08268,0,0,270.0*
1,1,0.03937,-0.02165,0.00000*
1,1,0.03937,-0.02165,0.00000*
1,1,0.03937,0.02165,0.00000*
1,1,0.03937,0.02165,0.00000*
%
%ADD59ROUNDEDRECTD59*%
G04:AMPARAMS|DCode=60|XSize=39.37mil|YSize=70.87mil|CornerRadius=19.68mil|HoleSize=0mil|Usage=FLASHONLY|Rotation=270.000|XOffset=0mil|YOffset=0mil|HoleType=Round|Shape=RoundedRectangle|*
%AMROUNDEDRECTD60*
21,1,0.03937,0.03150,0,0,270.0*
21,1,0.00000,0.07087,0,0,270.0*
1,1,0.03937,-0.01575,0.00000*
1,1,0.03937,-0.01575,0.00000*
1,1,0.03937,0.01575,0.00000*
1,1,0.03937,0.01575,0.00000*
%
%ADD60ROUNDEDRECTD60*%
%ADD64C,0.02000*%
%ADD65R,0.06000X0.06000*%
%ADD66R,0.06000X0.06000*%
%ADD67C,0.15748*%
%ADD68C,0.03150*%
%ADD69C,0.02000*%
%ADD70C,0.04000*%
%ADD71R,0.03937X0.07480*%
G36*
X442500Y262248D02*
X439000D01*
Y255248D01*
X442500D01*
Y254248D01*
X439000D01*
Y247248D01*
X442500D01*
Y246250D01*
X439000D01*
Y239250D01*
X442500D01*
Y238250D01*
X439000D01*
Y231250D01*
X442500D01*
Y230252D01*
X439000D01*
Y223252D01*
X442500D01*
Y222752D01*
X438760D01*
X438500Y222752D01*
X438260Y223152D01*
Y260399D01*
X433358D01*
Y217374D01*
X438000D01*
X438260Y217374D01*
X438500Y216973D01*
Y214752D01*
X442500D01*
Y211400D01*
X368980D01*
Y214917D01*
X366500D01*
Y216384D01*
X366782Y216809D01*
X367777D01*
X368696Y217189D01*
X369399Y217893D01*
X369779Y218811D01*
Y219806D01*
X369399Y220725D01*
X368696Y221428D01*
X367903Y221756D01*
X367665Y222110D01*
X367591Y222309D01*
X367724Y222631D01*
Y223456D01*
X367408Y224219D01*
X366825Y224802D01*
X366062Y225118D01*
X365237D01*
X364594Y224852D01*
X364094Y225076D01*
Y239980D01*
X366998D01*
X367250Y239728D01*
X367802Y239500D01*
X368398D01*
X368950Y239728D01*
X369372Y240150D01*
X369600Y240702D01*
Y241298D01*
X369372Y241850D01*
X368950Y242272D01*
X368398Y242500D01*
X367802D01*
X367250Y242272D01*
X366998Y242020D01*
X363661D01*
X363270Y241942D01*
X362940Y241721D01*
X362354Y241135D01*
X362192Y240892D01*
X361772Y240944D01*
X361692Y240976D01*
Y246057D01*
X363116Y247480D01*
X367498D01*
X367750Y247228D01*
X368302Y247000D01*
X368898D01*
X369450Y247228D01*
X369872Y247650D01*
X370100Y248202D01*
Y248798D01*
X369872Y249350D01*
X369450Y249772D01*
X368898Y250000D01*
X368302D01*
X367750Y249772D01*
X367498Y249520D01*
X362693D01*
X362303Y249442D01*
X361972Y249221D01*
X359951Y247200D01*
X359730Y246869D01*
X359652Y246479D01*
Y239162D01*
X359191Y238971D01*
X359024Y239137D01*
X358105Y239518D01*
X357111D01*
X356192Y239137D01*
X355489Y238434D01*
X355108Y237515D01*
Y236521D01*
X355489Y235602D01*
X356192Y234899D01*
X357111Y234518D01*
X358105D01*
X359024Y234899D01*
X359191Y235065D01*
X359652Y234874D01*
Y228530D01*
X359191Y228339D01*
X359088Y228441D01*
X358169Y228821D01*
X357175D01*
X356256Y228441D01*
X355553Y227738D01*
X355172Y226819D01*
Y225824D01*
X355553Y224905D01*
X356256Y224202D01*
X357175Y223821D01*
X358169D01*
X359088Y224202D01*
X359191Y224304D01*
X359652Y224113D01*
Y219204D01*
X356759Y216311D01*
X356538Y215981D01*
X356461Y215590D01*
Y214917D01*
X353980D01*
Y211400D01*
X352980D01*
Y214917D01*
X350352D01*
Y216745D01*
X350361Y216759D01*
X350439Y217149D01*
Y219781D01*
X350939Y220115D01*
X351116Y220042D01*
X351712D01*
X352264Y220270D01*
X352686Y220692D01*
X352914Y221244D01*
Y221840D01*
X352686Y222392D01*
X352264Y222814D01*
X351712Y223042D01*
X351116D01*
X350827Y222922D01*
X350440Y222914D01*
X350174Y223130D01*
X350098Y223242D01*
X347501Y225839D01*
X347501Y225839D01*
X345456Y227885D01*
Y233546D01*
X345956Y233645D01*
X346093Y233314D01*
X346594Y232813D01*
X347248Y232542D01*
X347955D01*
X348610Y232813D01*
X349110Y233314D01*
X349381Y233968D01*
Y234676D01*
X349110Y235330D01*
X348610Y235831D01*
X347955Y236102D01*
X347248D01*
X346594Y235831D01*
X346093Y235330D01*
X345956Y234999D01*
X345456Y235098D01*
Y236797D01*
X346132Y237473D01*
X346415D01*
X346591Y237297D01*
X347143Y237069D01*
X347739D01*
X348291Y237297D01*
X348713Y237719D01*
X348941Y238270D01*
Y238867D01*
X348713Y239418D01*
X348469Y239661D01*
X348356Y239958D01*
X348607Y240380D01*
X349303D01*
X349693Y240458D01*
X350024Y240679D01*
X350827Y241482D01*
X351048Y241813D01*
X351126Y242203D01*
Y246517D01*
X351048Y246908D01*
X350827Y247238D01*
X350222Y247843D01*
X349891Y248064D01*
X349501Y248142D01*
X348644D01*
X348389Y248579D01*
X348518Y248819D01*
X348713Y249014D01*
X348941Y249565D01*
Y250162D01*
X348713Y250713D01*
X348291Y251135D01*
X348258Y251148D01*
Y251690D01*
X348291Y251703D01*
X348713Y252125D01*
X348941Y252676D01*
Y253273D01*
X348713Y253824D01*
X348291Y254246D01*
X347739Y254474D01*
X347143D01*
X346591Y254246D01*
X346297Y253952D01*
X345550D01*
X345159Y253874D01*
X344829Y253654D01*
X342215Y251040D01*
X341994Y250709D01*
X341917Y250319D01*
Y214917D01*
X337980D01*
Y211400D01*
X321200D01*
Y266300D01*
X442500D01*
Y262248D01*
D02*
G37*
G36*
X436672Y259810D02*
X436705Y259727D01*
X436733Y259643D01*
X436750Y259566D01*
X436761Y259505D01*
X436766Y259455D01*
Y259410D01*
X436761Y259344D01*
X436755Y259288D01*
X436739Y259233D01*
X436722Y259188D01*
X436705Y259149D01*
X436694Y259116D01*
X436683Y259099D01*
X436678Y259094D01*
X436639Y259038D01*
X436583Y258988D01*
X436522Y258933D01*
X436461Y258889D01*
X436400Y258844D01*
X436350Y258811D01*
X436317Y258789D01*
X436311Y258783D01*
X436705D01*
Y258100D01*
X433919D01*
Y258839D01*
X434774D01*
X434902D01*
X435018D01*
X435124Y258844D01*
X435218Y258850D01*
X435307D01*
X435379Y258855D01*
X435451Y258861D01*
X435507Y258866D01*
X435557Y258872D01*
X435601Y258877D01*
X435634Y258883D01*
X435662D01*
X435679Y258889D01*
X435695Y258894D01*
X435706D01*
X435784Y258916D01*
X435851Y258944D01*
X435906Y258972D01*
X435945Y258999D01*
X435978Y259022D01*
X436001Y259044D01*
X436012Y259055D01*
X436017Y259061D01*
X436045Y259105D01*
X436067Y259149D01*
X436084Y259194D01*
X436095Y259233D01*
X436100Y259266D01*
X436106Y259299D01*
Y259321D01*
X436100Y259383D01*
X436089Y259443D01*
X436067Y259499D01*
X436045Y259555D01*
X436023Y259599D01*
X436001Y259632D01*
X435990Y259660D01*
X435984Y259665D01*
X436622Y259899D01*
X436672Y259810D01*
D02*
G37*
G36*
X435390Y257518D02*
X435523Y257501D01*
X435645Y257479D01*
X435762Y257451D01*
X435862Y257423D01*
X435956Y257390D01*
X436039Y257357D01*
X436112Y257323D01*
X436178Y257290D01*
X436228Y257262D01*
X436272Y257235D01*
X436306Y257212D01*
X436334Y257196D01*
X436345Y257185D01*
X436350Y257179D01*
X436422Y257113D01*
X436489Y257035D01*
X436545Y256957D01*
X436589Y256879D01*
X436633Y256796D01*
X436667Y256713D01*
X436694Y256635D01*
X436717Y256557D01*
X436733Y256485D01*
X436744Y256419D01*
X436755Y256358D01*
X436761Y256308D01*
X436766Y256263D01*
Y256202D01*
X436761Y256102D01*
X436750Y256008D01*
X436728Y255914D01*
X436705Y255831D01*
X436678Y255747D01*
X436644Y255675D01*
X436606Y255603D01*
X436572Y255542D01*
X436533Y255486D01*
X436494Y255436D01*
X436461Y255392D01*
X436434Y255359D01*
X436411Y255331D01*
X436389Y255309D01*
X436378Y255298D01*
X436372Y255292D01*
X436295Y255231D01*
X436211Y255176D01*
X436128Y255126D01*
X436039Y255081D01*
X435945Y255048D01*
X435856Y255020D01*
X435684Y254976D01*
X435601Y254959D01*
X435529Y254948D01*
X435462Y254942D01*
X435407Y254937D01*
X435357Y254931D01*
X435318D01*
X435296D01*
X435290D01*
X435185Y254937D01*
X435079Y254942D01*
X434985Y254959D01*
X434896Y254976D01*
X434807Y254992D01*
X434730Y255020D01*
X434657Y255042D01*
X434591Y255070D01*
X434530Y255092D01*
X434480Y255120D01*
X434436Y255142D01*
X434397Y255159D01*
X434369Y255181D01*
X434347Y255192D01*
X434336Y255198D01*
X434330Y255203D01*
X434247Y255276D01*
X434175Y255348D01*
X434114Y255431D01*
X434058Y255520D01*
X434014Y255609D01*
X433975Y255697D01*
X433942Y255786D01*
X433919Y255875D01*
X433897Y255953D01*
X433886Y256030D01*
X433875Y256102D01*
X433864Y256164D01*
Y256213D01*
X433858Y256247D01*
Y256280D01*
X433869Y256441D01*
X433892Y256591D01*
X433925Y256718D01*
X433964Y256830D01*
X433986Y256879D01*
X434003Y256918D01*
X434019Y256957D01*
X434036Y256985D01*
X434053Y257007D01*
X434058Y257029D01*
X434069Y257035D01*
Y257040D01*
X434158Y257146D01*
X434252Y257240D01*
X434358Y257318D01*
X434458Y257379D01*
X434547Y257429D01*
X434585Y257446D01*
X434619Y257462D01*
X434646Y257473D01*
X434669Y257484D01*
X434680Y257490D01*
X434685D01*
X434807Y256757D01*
X434735Y256730D01*
X434669Y256702D01*
X434619Y256674D01*
X434574Y256641D01*
X434541Y256619D01*
X434519Y256596D01*
X434508Y256580D01*
X434502Y256574D01*
X434469Y256530D01*
X434447Y256480D01*
X434430Y256430D01*
X434419Y256385D01*
X434413Y256347D01*
X434408Y256313D01*
Y256286D01*
X434413Y256197D01*
X434436Y256114D01*
X434463Y256036D01*
X434496Y255975D01*
X434530Y255925D01*
X434558Y255891D01*
X434580Y255864D01*
X434585Y255858D01*
X434657Y255803D01*
X434741Y255764D01*
X434830Y255731D01*
X434907Y255708D01*
X434985Y255697D01*
X435040Y255692D01*
X435063Y255686D01*
X435079D01*
X435090D01*
X435096D01*
Y257529D01*
X435251D01*
X435390Y257518D01*
D02*
G37*
G36*
X437760Y253683D02*
X436378D01*
X436445Y253616D01*
X436506Y253549D01*
X436556Y253483D01*
X436606Y253411D01*
X436639Y253344D01*
X436672Y253277D01*
X436700Y253211D01*
X436717Y253150D01*
X436733Y253089D01*
X436744Y253039D01*
X436755Y252989D01*
X436761Y252950D01*
X436766Y252917D01*
Y252872D01*
X436761Y252778D01*
X436750Y252689D01*
X436733Y252606D01*
X436711Y252523D01*
X436650Y252384D01*
X436617Y252317D01*
X436583Y252262D01*
X436545Y252206D01*
X436511Y252162D01*
X436483Y252123D01*
X436456Y252090D01*
X436428Y252062D01*
X436411Y252045D01*
X436400Y252034D01*
X436395Y252029D01*
X436322Y251973D01*
X436245Y251923D01*
X436162Y251879D01*
X436073Y251840D01*
X435984Y251807D01*
X435895Y251779D01*
X435717Y251740D01*
X435640Y251729D01*
X435562Y251718D01*
X435496Y251712D01*
X435434Y251707D01*
X435385Y251701D01*
X435351D01*
X435323D01*
X435318D01*
X435190Y251707D01*
X435074Y251718D01*
X434963Y251735D01*
X434857Y251757D01*
X434763Y251779D01*
X434674Y251807D01*
X434596Y251840D01*
X434524Y251873D01*
X434458Y251901D01*
X434402Y251934D01*
X434352Y251962D01*
X434313Y251990D01*
X434280Y252007D01*
X434258Y252023D01*
X434247Y252034D01*
X434241Y252040D01*
X434175Y252106D01*
X434114Y252173D01*
X434064Y252245D01*
X434019Y252312D01*
X433980Y252384D01*
X433953Y252450D01*
X433925Y252517D01*
X433908Y252578D01*
X433892Y252639D01*
X433881Y252695D01*
X433869Y252739D01*
X433864Y252783D01*
X433858Y252817D01*
Y252861D01*
X433864Y252950D01*
X433875Y253033D01*
X433892Y253116D01*
X433914Y253189D01*
X433936Y253244D01*
X433953Y253294D01*
X433964Y253322D01*
X433969Y253333D01*
X434019Y253416D01*
X434075Y253494D01*
X434136Y253566D01*
X434191Y253622D01*
X434241Y253672D01*
X434286Y253710D01*
X434313Y253733D01*
X434325Y253738D01*
X433919D01*
Y254421D01*
X437760D01*
Y253683D01*
D02*
G37*
G36*
X435390Y251252D02*
X435523Y251235D01*
X435645Y251213D01*
X435762Y251185D01*
X435862Y251157D01*
X435956Y251124D01*
X436039Y251091D01*
X436112Y251058D01*
X436178Y251024D01*
X436228Y250996D01*
X436272Y250969D01*
X436306Y250946D01*
X436334Y250930D01*
X436345Y250919D01*
X436350Y250913D01*
X436422Y250847D01*
X436489Y250769D01*
X436545Y250691D01*
X436589Y250613D01*
X436633Y250530D01*
X436667Y250447D01*
X436694Y250369D01*
X436717Y250292D01*
X436733Y250219D01*
X436744Y250153D01*
X436755Y250092D01*
X436761Y250042D01*
X436766Y249997D01*
Y249936D01*
X436761Y249836D01*
X436750Y249742D01*
X436728Y249648D01*
X436705Y249565D01*
X436678Y249481D01*
X436644Y249409D01*
X436606Y249337D01*
X436572Y249276D01*
X436533Y249220D01*
X436494Y249170D01*
X436461Y249126D01*
X436434Y249093D01*
X436411Y249065D01*
X436389Y249043D01*
X436378Y249032D01*
X436372Y249026D01*
X436295Y248965D01*
X436211Y248910D01*
X436128Y248860D01*
X436039Y248815D01*
X435945Y248782D01*
X435856Y248754D01*
X435684Y248710D01*
X435601Y248693D01*
X435529Y248682D01*
X435462Y248676D01*
X435407Y248671D01*
X435357Y248665D01*
X435318D01*
X435296D01*
X435290D01*
X435185Y248671D01*
X435079Y248676D01*
X434985Y248693D01*
X434896Y248710D01*
X434807Y248727D01*
X434730Y248754D01*
X434657Y248776D01*
X434591Y248804D01*
X434530Y248826D01*
X434480Y248854D01*
X434436Y248876D01*
X434397Y248893D01*
X434369Y248915D01*
X434347Y248926D01*
X434336Y248932D01*
X434330Y248937D01*
X434247Y249009D01*
X434175Y249082D01*
X434114Y249165D01*
X434058Y249254D01*
X434014Y249342D01*
X433975Y249431D01*
X433942Y249520D01*
X433919Y249609D01*
X433897Y249687D01*
X433886Y249764D01*
X433875Y249836D01*
X433864Y249898D01*
Y249948D01*
X433858Y249981D01*
Y250014D01*
X433869Y250175D01*
X433892Y250325D01*
X433925Y250452D01*
X433964Y250564D01*
X433986Y250613D01*
X434003Y250652D01*
X434019Y250691D01*
X434036Y250719D01*
X434053Y250741D01*
X434058Y250763D01*
X434069Y250769D01*
Y250774D01*
X434158Y250880D01*
X434252Y250974D01*
X434358Y251052D01*
X434458Y251113D01*
X434547Y251163D01*
X434585Y251180D01*
X434619Y251196D01*
X434646Y251207D01*
X434669Y251218D01*
X434680Y251224D01*
X434685D01*
X434807Y250491D01*
X434735Y250464D01*
X434669Y250436D01*
X434619Y250408D01*
X434574Y250375D01*
X434541Y250353D01*
X434519Y250330D01*
X434508Y250314D01*
X434502Y250308D01*
X434469Y250264D01*
X434447Y250214D01*
X434430Y250164D01*
X434419Y250119D01*
X434413Y250081D01*
X434408Y250047D01*
Y250020D01*
X434413Y249931D01*
X434436Y249848D01*
X434463Y249770D01*
X434496Y249709D01*
X434530Y249659D01*
X434558Y249626D01*
X434580Y249598D01*
X434585Y249592D01*
X434657Y249537D01*
X434741Y249498D01*
X434830Y249465D01*
X434907Y249442D01*
X434985Y249431D01*
X435040Y249426D01*
X435063Y249420D01*
X435079D01*
X435090D01*
X435096D01*
Y251263D01*
X435251D01*
X435390Y251252D01*
D02*
G37*
G36*
Y248266D02*
X435523Y248249D01*
X435645Y248227D01*
X435762Y248199D01*
X435862Y248171D01*
X435956Y248138D01*
X436039Y248105D01*
X436112Y248072D01*
X436178Y248038D01*
X436228Y248010D01*
X436272Y247983D01*
X436306Y247961D01*
X436334Y247944D01*
X436345Y247933D01*
X436350Y247927D01*
X436422Y247861D01*
X436489Y247783D01*
X436545Y247705D01*
X436589Y247628D01*
X436633Y247544D01*
X436667Y247461D01*
X436694Y247383D01*
X436717Y247306D01*
X436733Y247234D01*
X436744Y247167D01*
X436755Y247106D01*
X436761Y247056D01*
X436766Y247011D01*
Y246951D01*
X436761Y246851D01*
X436750Y246756D01*
X436728Y246662D01*
X436705Y246579D01*
X436678Y246495D01*
X436644Y246423D01*
X436606Y246351D01*
X436572Y246290D01*
X436533Y246234D01*
X436494Y246185D01*
X436461Y246140D01*
X436434Y246107D01*
X436411Y246079D01*
X436389Y246057D01*
X436378Y246046D01*
X436372Y246040D01*
X436295Y245979D01*
X436211Y245924D01*
X436128Y245874D01*
X436039Y245829D01*
X435945Y245796D01*
X435856Y245768D01*
X435684Y245724D01*
X435601Y245707D01*
X435529Y245696D01*
X435462Y245691D01*
X435407Y245685D01*
X435357Y245679D01*
X435318D01*
X435296D01*
X435290D01*
X435185Y245685D01*
X435079Y245691D01*
X434985Y245707D01*
X434896Y245724D01*
X434807Y245741D01*
X434730Y245768D01*
X434657Y245791D01*
X434591Y245818D01*
X434530Y245841D01*
X434480Y245868D01*
X434436Y245890D01*
X434397Y245907D01*
X434369Y245929D01*
X434347Y245940D01*
X434336Y245946D01*
X434330Y245952D01*
X434247Y246024D01*
X434175Y246096D01*
X434114Y246179D01*
X434058Y246268D01*
X434014Y246357D01*
X433975Y246445D01*
X433942Y246534D01*
X433919Y246623D01*
X433897Y246701D01*
X433886Y246778D01*
X433875Y246851D01*
X433864Y246912D01*
Y246962D01*
X433858Y246995D01*
Y247028D01*
X433869Y247189D01*
X433892Y247339D01*
X433925Y247467D01*
X433964Y247578D01*
X433986Y247628D01*
X434003Y247666D01*
X434019Y247705D01*
X434036Y247733D01*
X434053Y247755D01*
X434058Y247777D01*
X434069Y247783D01*
Y247789D01*
X434158Y247894D01*
X434252Y247988D01*
X434358Y248066D01*
X434458Y248127D01*
X434547Y248177D01*
X434585Y248194D01*
X434619Y248210D01*
X434646Y248221D01*
X434669Y248233D01*
X434680Y248238D01*
X434685D01*
X434807Y247505D01*
X434735Y247478D01*
X434669Y247450D01*
X434619Y247422D01*
X434574Y247389D01*
X434541Y247367D01*
X434519Y247344D01*
X434508Y247328D01*
X434502Y247322D01*
X434469Y247278D01*
X434447Y247228D01*
X434430Y247178D01*
X434419Y247134D01*
X434413Y247095D01*
X434408Y247061D01*
Y247034D01*
X434413Y246945D01*
X434436Y246862D01*
X434463Y246784D01*
X434496Y246723D01*
X434530Y246673D01*
X434558Y246640D01*
X434580Y246612D01*
X434585Y246606D01*
X434657Y246551D01*
X434741Y246512D01*
X434830Y246479D01*
X434907Y246457D01*
X434985Y246445D01*
X435040Y246440D01*
X435063Y246434D01*
X435079D01*
X435090D01*
X435096D01*
Y248277D01*
X435251D01*
X435390Y248266D01*
D02*
G37*
G36*
X437760Y242621D02*
X433919D01*
Y243398D01*
X435551D01*
Y245002D01*
X436200D01*
Y243398D01*
X437111D01*
Y245258D01*
X437760D01*
Y242621D01*
D02*
G37*
G36*
X435684Y240740D02*
X434946D01*
Y242189D01*
X435684D01*
Y240740D01*
D02*
G37*
G36*
X437760Y239364D02*
X436378D01*
X436445Y239297D01*
X436506Y239230D01*
X436556Y239164D01*
X436606Y239092D01*
X436639Y239025D01*
X436672Y238959D01*
X436700Y238892D01*
X436717Y238831D01*
X436733Y238770D01*
X436744Y238720D01*
X436755Y238670D01*
X436761Y238631D01*
X436766Y238598D01*
Y238553D01*
X436761Y238459D01*
X436750Y238370D01*
X436733Y238287D01*
X436711Y238204D01*
X436650Y238065D01*
X436617Y237998D01*
X436583Y237943D01*
X436545Y237887D01*
X436511Y237843D01*
X436483Y237804D01*
X436456Y237771D01*
X436428Y237743D01*
X436411Y237726D01*
X436400Y237715D01*
X436395Y237710D01*
X436322Y237654D01*
X436245Y237604D01*
X436162Y237560D01*
X436073Y237521D01*
X435984Y237488D01*
X435895Y237460D01*
X435717Y237421D01*
X435640Y237410D01*
X435562Y237399D01*
X435496Y237393D01*
X435434Y237388D01*
X435385Y237382D01*
X435351D01*
X435323D01*
X435318D01*
X435190Y237388D01*
X435074Y237399D01*
X434963Y237416D01*
X434857Y237438D01*
X434763Y237460D01*
X434674Y237488D01*
X434596Y237521D01*
X434524Y237554D01*
X434458Y237582D01*
X434402Y237615D01*
X434352Y237643D01*
X434313Y237671D01*
X434280Y237687D01*
X434258Y237704D01*
X434247Y237715D01*
X434241Y237721D01*
X434175Y237787D01*
X434114Y237854D01*
X434064Y237926D01*
X434019Y237993D01*
X433980Y238065D01*
X433953Y238131D01*
X433925Y238198D01*
X433908Y238259D01*
X433892Y238320D01*
X433881Y238376D01*
X433869Y238420D01*
X433864Y238464D01*
X433858Y238498D01*
Y238542D01*
X433864Y238631D01*
X433875Y238714D01*
X433892Y238797D01*
X433914Y238870D01*
X433936Y238925D01*
X433953Y238975D01*
X433964Y239003D01*
X433969Y239014D01*
X434019Y239097D01*
X434075Y239175D01*
X434136Y239247D01*
X434191Y239303D01*
X434241Y239352D01*
X434286Y239391D01*
X434313Y239414D01*
X434325Y239419D01*
X433919D01*
Y240102D01*
X437760D01*
Y239364D01*
D02*
G37*
G36*
X436672Y237138D02*
X436705Y237055D01*
X436733Y236972D01*
X436750Y236894D01*
X436761Y236833D01*
X436766Y236783D01*
Y236738D01*
X436761Y236672D01*
X436755Y236616D01*
X436739Y236561D01*
X436722Y236516D01*
X436705Y236478D01*
X436694Y236444D01*
X436683Y236428D01*
X436678Y236422D01*
X436639Y236367D01*
X436583Y236317D01*
X436522Y236261D01*
X436461Y236217D01*
X436400Y236172D01*
X436350Y236139D01*
X436317Y236117D01*
X436311Y236111D01*
X436705D01*
Y235429D01*
X433919D01*
Y236167D01*
X434774D01*
X434902D01*
X435018D01*
X435124Y236172D01*
X435218Y236178D01*
X435307D01*
X435379Y236184D01*
X435451Y236189D01*
X435507Y236195D01*
X435557Y236200D01*
X435601Y236206D01*
X435634Y236211D01*
X435662D01*
X435679Y236217D01*
X435695Y236222D01*
X435706D01*
X435784Y236245D01*
X435851Y236272D01*
X435906Y236300D01*
X435945Y236328D01*
X435978Y236350D01*
X436001Y236372D01*
X436012Y236383D01*
X436017Y236389D01*
X436045Y236433D01*
X436067Y236478D01*
X436084Y236522D01*
X436095Y236561D01*
X436100Y236594D01*
X436106Y236628D01*
Y236650D01*
X436100Y236711D01*
X436089Y236772D01*
X436067Y236827D01*
X436045Y236883D01*
X436023Y236927D01*
X436001Y236961D01*
X435990Y236988D01*
X435984Y236994D01*
X436622Y237227D01*
X436672Y237138D01*
D02*
G37*
G36*
X433991Y234857D02*
X434058Y234829D01*
X434119Y234807D01*
X434175Y234785D01*
X434219Y234774D01*
X434258Y234763D01*
X434280Y234757D01*
X434286D01*
X434358Y234746D01*
X434447Y234740D01*
X434535Y234729D01*
X434624D01*
X434702Y234724D01*
X434768D01*
X434796D01*
X434813D01*
X434824D01*
X434830D01*
X435690Y234735D01*
X435779D01*
X435856Y234729D01*
X435928Y234724D01*
X435995Y234718D01*
X436056Y234713D01*
X436112Y234702D01*
X436162Y234696D01*
X436200Y234685D01*
X436239Y234674D01*
X436267Y234668D01*
X436317Y234652D01*
X436339Y234641D01*
X436350Y234635D01*
X436411Y234591D01*
X436472Y234541D01*
X436522Y234485D01*
X436567Y234424D01*
X436600Y234374D01*
X436622Y234330D01*
X436639Y234302D01*
X436644Y234296D01*
Y234291D01*
X436667Y234241D01*
X436683Y234191D01*
X436717Y234074D01*
X436739Y233952D01*
X436750Y233836D01*
X436761Y233725D01*
Y233680D01*
X436766Y233642D01*
Y233458D01*
X436755Y233370D01*
X436750Y233281D01*
X436733Y233203D01*
X436722Y233125D01*
X436705Y233059D01*
X436683Y232998D01*
X436667Y232942D01*
X436650Y232898D01*
X436628Y232854D01*
X436611Y232820D01*
X436600Y232787D01*
X436583Y232765D01*
X436578Y232748D01*
X436567Y232743D01*
Y232737D01*
X436483Y232643D01*
X436389Y232565D01*
X436289Y232498D01*
X436195Y232443D01*
X436106Y232404D01*
X436067Y232387D01*
X436034Y232376D01*
X436006Y232365D01*
X435984Y232360D01*
X435973Y232354D01*
X435967D01*
X435845Y233014D01*
X435912Y233042D01*
X435967Y233070D01*
X436017Y233098D01*
X436056Y233131D01*
X436084Y233153D01*
X436100Y233175D01*
X436112Y233187D01*
X436117Y233192D01*
X436145Y233236D01*
X436167Y233286D01*
X436178Y233342D01*
X436189Y233392D01*
X436195Y233436D01*
X436200Y233470D01*
Y233503D01*
X436195Y233603D01*
X436184Y233686D01*
X436173Y233753D01*
X436156Y233808D01*
X436134Y233847D01*
X436123Y233875D01*
X436112Y233891D01*
X436106Y233897D01*
X436067Y233936D01*
X436023Y233963D01*
X435973Y233980D01*
X435923Y233997D01*
X435873Y234002D01*
X435834Y234008D01*
X435812D01*
X435801D01*
X435729D01*
X435712Y233969D01*
X435695Y233919D01*
X435662Y233814D01*
X435634Y233692D01*
X435606Y233575D01*
X435579Y233464D01*
X435568Y233414D01*
X435562Y233370D01*
X435557Y233336D01*
X435551Y233309D01*
X435545Y233292D01*
Y233286D01*
X435518Y233153D01*
X435490Y233031D01*
X435462Y232931D01*
X435434Y232848D01*
X435407Y232781D01*
X435390Y232737D01*
X435379Y232709D01*
X435373Y232698D01*
X435335Y232626D01*
X435290Y232565D01*
X435240Y232509D01*
X435196Y232470D01*
X435157Y232432D01*
X435124Y232410D01*
X435102Y232393D01*
X435090Y232387D01*
X435018Y232348D01*
X434946Y232321D01*
X434879Y232304D01*
X434813Y232293D01*
X434757Y232282D01*
X434713Y232276D01*
X434685D01*
X434674D01*
X434608Y232282D01*
X434547Y232287D01*
X434430Y232315D01*
X434330Y232354D01*
X434247Y232398D01*
X434180Y232443D01*
X434130Y232482D01*
X434097Y232509D01*
X434091Y232521D01*
X434086D01*
X434008Y232620D01*
X433953Y232731D01*
X433914Y232842D01*
X433886Y232953D01*
X433869Y233048D01*
X433864Y233092D01*
Y233125D01*
X433858Y233159D01*
Y233198D01*
X433864Y233286D01*
X433875Y233375D01*
X433886Y233453D01*
X433903Y233520D01*
X433919Y233575D01*
X433936Y233619D01*
X433942Y233647D01*
X433947Y233658D01*
X433986Y233736D01*
X434025Y233814D01*
X434075Y233880D01*
X434119Y233941D01*
X434158Y233991D01*
X434191Y234030D01*
X434213Y234052D01*
X434219Y234063D01*
X434197Y234069D01*
X434169Y234080D01*
X434147Y234086D01*
X434141Y234091D01*
X434136D01*
X434086Y234108D01*
X434041Y234119D01*
X434003Y234130D01*
X433975Y234141D01*
X433953Y234152D01*
X433930Y234158D01*
X433925Y234163D01*
X433919D01*
Y234890D01*
X433991Y234857D01*
D02*
G37*
G36*
X435434Y231893D02*
X435545Y231882D01*
X435645Y231860D01*
X435745Y231838D01*
X435834Y231804D01*
X435923Y231771D01*
X436001Y231732D01*
X436073Y231699D01*
X436134Y231660D01*
X436195Y231621D01*
X436239Y231588D01*
X436284Y231555D01*
X436311Y231533D01*
X436339Y231510D01*
X436350Y231499D01*
X436356Y231494D01*
X436428Y231416D01*
X436489Y231333D01*
X436545Y231249D01*
X436594Y231161D01*
X436633Y231072D01*
X436667Y230989D01*
X436694Y230905D01*
X436717Y230822D01*
X436733Y230750D01*
X436744Y230678D01*
X436755Y230617D01*
X436761Y230561D01*
X436766Y230517D01*
Y230456D01*
X436761Y230306D01*
X436739Y230167D01*
X436711Y230040D01*
X436678Y229929D01*
X436656Y229884D01*
X436639Y229840D01*
X436628Y229801D01*
X436611Y229773D01*
X436600Y229746D01*
X436589Y229729D01*
X436583Y229718D01*
Y229712D01*
X436506Y229596D01*
X436422Y229496D01*
X436334Y229407D01*
X436250Y229335D01*
X436173Y229279D01*
X436112Y229235D01*
X436089Y229218D01*
X436073Y229213D01*
X436062Y229202D01*
X436056D01*
X435928Y229140D01*
X435801Y229102D01*
X435684Y229068D01*
X435579Y229046D01*
X435484Y229035D01*
X435446Y229029D01*
X435412D01*
X435390Y229024D01*
X435368D01*
X435357D01*
X435351D01*
X435179Y229029D01*
X435018Y229052D01*
X434879Y229080D01*
X434818Y229096D01*
X434763Y229113D01*
X434713Y229129D01*
X434669Y229146D01*
X434630Y229163D01*
X434596Y229174D01*
X434569Y229185D01*
X434552Y229196D01*
X434541Y229202D01*
X434535D01*
X434419Y229279D01*
X434319Y229363D01*
X434230Y229451D01*
X434158Y229535D01*
X434102Y229612D01*
X434064Y229673D01*
X434047Y229696D01*
X434036Y229712D01*
X434030Y229723D01*
Y229729D01*
X433975Y229862D01*
X433930Y229990D01*
X433903Y230112D01*
X433881Y230228D01*
X433869Y230323D01*
X433864Y230362D01*
Y230395D01*
X433858Y230423D01*
Y230461D01*
X433864Y230578D01*
X433875Y230683D01*
X433897Y230789D01*
X433925Y230883D01*
X433953Y230978D01*
X433986Y231061D01*
X434025Y231138D01*
X434064Y231211D01*
X434102Y231272D01*
X434141Y231327D01*
X434175Y231377D01*
X434202Y231416D01*
X434230Y231449D01*
X434252Y231471D01*
X434263Y231483D01*
X434269Y231488D01*
X434352Y231560D01*
X434436Y231621D01*
X434519Y231677D01*
X434608Y231727D01*
X434696Y231766D01*
X434785Y231799D01*
X434868Y231827D01*
X434952Y231849D01*
X435024Y231866D01*
X435096Y231877D01*
X435157Y231888D01*
X435213Y231893D01*
X435257Y231899D01*
X435290D01*
X435312D01*
X435318D01*
X435434Y231893D01*
D02*
G37*
G36*
X435151Y228536D02*
X435262Y228513D01*
X435357Y228480D01*
X435446Y228447D01*
X435512Y228414D01*
X435562Y228380D01*
X435595Y228358D01*
X435606Y228352D01*
X435695Y228275D01*
X435768Y228191D01*
X435828Y228097D01*
X435873Y228014D01*
X435912Y227936D01*
X435940Y227870D01*
X435945Y227847D01*
X435951Y227831D01*
X435956Y227820D01*
Y227814D01*
X436006Y227903D01*
X436056Y227981D01*
X436117Y228047D01*
X436167Y228103D01*
X436217Y228141D01*
X436256Y228175D01*
X436284Y228197D01*
X436295Y228203D01*
X436383Y228253D01*
X436467Y228291D01*
X436550Y228314D01*
X436628Y228336D01*
X436694Y228347D01*
X436744Y228352D01*
X436778D01*
X436783D01*
X436789D01*
X436877Y228347D01*
X436966Y228336D01*
X437038Y228314D01*
X437105Y228291D01*
X437160Y228269D01*
X437205Y228247D01*
X437227Y228236D01*
X437238Y228230D01*
X437310Y228186D01*
X437371Y228136D01*
X437427Y228086D01*
X437477Y228042D01*
X437510Y227997D01*
X437538Y227964D01*
X437555Y227942D01*
X437560Y227936D01*
X437605Y227870D01*
X437638Y227797D01*
X437666Y227731D01*
X437688Y227670D01*
X437704Y227614D01*
X437715Y227575D01*
X437721Y227548D01*
Y227537D01*
X437732Y227442D01*
X437743Y227337D01*
X437749Y227226D01*
X437754Y227115D01*
X437760Y227015D01*
Y225328D01*
X433919D01*
Y226993D01*
X433925Y227087D01*
Y227254D01*
X433930Y227320D01*
Y227426D01*
X433936Y227464D01*
Y227520D01*
X433942Y227542D01*
Y227564D01*
X433958Y227675D01*
X433986Y227775D01*
X434014Y227864D01*
X434047Y227942D01*
X434075Y228003D01*
X434102Y228047D01*
X434119Y228075D01*
X434125Y228086D01*
X434186Y228164D01*
X434252Y228225D01*
X434313Y228286D01*
X434380Y228330D01*
X434436Y228369D01*
X434480Y228397D01*
X434508Y228414D01*
X434519Y228419D01*
X434613Y228458D01*
X434702Y228491D01*
X434791Y228513D01*
X434868Y228524D01*
X434935Y228536D01*
X434985Y228541D01*
X435018D01*
X435024D01*
X435029D01*
X435151Y228536D01*
D02*
G37*
G36*
X437760Y224040D02*
X436239Y223158D01*
X437760Y222253D01*
Y221348D01*
X435534Y222752D01*
X433919D01*
Y223530D01*
X435529D01*
X437760Y224934D01*
Y224040D01*
D02*
G37*
G36*
X435995Y221082D02*
X436167Y221065D01*
X436250Y221060D01*
X436322Y221049D01*
X436395Y221038D01*
X436456Y221026D01*
X436511Y221010D01*
X436561Y220999D01*
X436606Y220988D01*
X436639Y220982D01*
X436667Y220971D01*
X436689Y220965D01*
X436700Y220960D01*
X436705D01*
X436839Y220910D01*
X436961Y220849D01*
X437066Y220788D01*
X437155Y220727D01*
X437227Y220677D01*
X437283Y220632D01*
X437316Y220605D01*
X437327Y220599D01*
Y220594D01*
X437416Y220499D01*
X437488Y220405D01*
X437549Y220305D01*
X437599Y220216D01*
X437638Y220138D01*
X437666Y220072D01*
X437671Y220050D01*
X437677Y220033D01*
X437682Y220022D01*
Y220016D01*
X437710Y219911D01*
X437727Y219794D01*
X437743Y219672D01*
X437749Y219556D01*
X437754Y219450D01*
X437760Y219406D01*
Y217874D01*
X433919D01*
Y219328D01*
X433925Y219478D01*
X433930Y219617D01*
X433942Y219733D01*
X433958Y219828D01*
X433975Y219905D01*
X433986Y219966D01*
X433991Y219983D01*
Y220000D01*
X433997Y220005D01*
Y220011D01*
X434041Y220133D01*
X434091Y220244D01*
X434141Y220333D01*
X434191Y220410D01*
X434236Y220471D01*
X434269Y220516D01*
X434291Y220544D01*
X434302Y220555D01*
X434408Y220649D01*
X434519Y220732D01*
X434635Y220804D01*
X434741Y220860D01*
X434841Y220904D01*
X434879Y220926D01*
X434913Y220938D01*
X434946Y220949D01*
X434968Y220960D01*
X434979Y220965D01*
X434985D01*
X435118Y221004D01*
X435257Y221038D01*
X435390Y221060D01*
X435518Y221071D01*
X435579Y221076D01*
X435634Y221082D01*
X435679D01*
X435723Y221088D01*
X435756D01*
X435779D01*
X435795D01*
X435801D01*
X435995Y221082D01*
D02*
G37*
%LPC*%
G36*
X380898Y260100D02*
X380302D01*
X379750Y259872D01*
X379328Y259450D01*
X379100Y258898D01*
Y258302D01*
X379328Y257750D01*
X379750Y257328D01*
X380302Y257100D01*
X380898D01*
X381450Y257328D01*
X381872Y257750D01*
X382100Y258302D01*
Y258898D01*
X381872Y259450D01*
X381450Y259872D01*
X380898Y260100D01*
D02*
G37*
G36*
X421013Y260417D02*
X416035D01*
Y256008D01*
X415535Y255801D01*
X415334Y256002D01*
X414783Y256230D01*
X414186D01*
X413635Y256002D01*
X413213Y255580D01*
X412985Y255029D01*
Y254432D01*
X413213Y253881D01*
X413233Y253860D01*
X413026Y253361D01*
X413025D01*
X412474Y253132D01*
X412052Y252710D01*
X411824Y252159D01*
Y251802D01*
X408399Y248378D01*
X408179Y248048D01*
X408101Y247657D01*
Y234041D01*
X398595D01*
X398240Y234397D01*
X397688Y234625D01*
X397092D01*
X396540Y234397D01*
X396118Y233975D01*
X395890Y233423D01*
Y232827D01*
X396118Y232275D01*
X396246Y232148D01*
X396447Y231739D01*
X396246Y231494D01*
X396039Y231288D01*
X395811Y230736D01*
Y230140D01*
X396039Y229588D01*
X396461Y229166D01*
X397013Y228938D01*
X397609D01*
X398161Y229166D01*
X398413Y229418D01*
X407985D01*
X411684Y225720D01*
Y225363D01*
X411912Y224812D01*
X412334Y224390D01*
X412886Y224162D01*
X413077D01*
X413309Y223687D01*
X413081Y223136D01*
Y222539D01*
X413309Y221988D01*
X413731Y221566D01*
X414283Y221338D01*
X414879D01*
X415431Y221566D01*
X415535Y221671D01*
X416035Y221463D01*
Y217374D01*
X421013D01*
Y260417D01*
D02*
G37*
G36*
X363797Y261500D02*
X362803D01*
X361884Y261119D01*
X361181Y260416D01*
X360800Y259497D01*
Y258503D01*
X361181Y257584D01*
X361884Y256881D01*
X362803Y256500D01*
X363797D01*
X364716Y256881D01*
X365306Y257471D01*
X366967D01*
X368506Y255931D01*
X368222Y255507D01*
X368149Y255538D01*
X367155D01*
X366236Y255157D01*
X365533Y254454D01*
X365152Y253535D01*
Y252540D01*
X365533Y251622D01*
X366236Y250918D01*
X367155Y250538D01*
X368149D01*
X369068Y250918D01*
X369261Y251112D01*
X372604Y247768D01*
Y243228D01*
X371665D01*
Y234748D01*
X372604D01*
Y227524D01*
X372721Y226938D01*
X373052Y226442D01*
X379661Y219834D01*
Y219000D01*
X380041Y218081D01*
X380744Y217378D01*
X381663Y216997D01*
X382658D01*
X383577Y217378D01*
X384280Y218081D01*
X384661Y219000D01*
Y219994D01*
X384280Y220913D01*
X383577Y221616D01*
X382658Y221997D01*
X381823D01*
X375663Y228157D01*
Y234748D01*
X376602D01*
Y243228D01*
X375663D01*
Y248067D01*
X376163Y248274D01*
X380479Y243959D01*
Y243228D01*
X379539D01*
Y234748D01*
X384476D01*
Y243228D01*
X383537D01*
Y244214D01*
X384037Y244421D01*
X384170Y244288D01*
X384501Y244067D01*
X384891Y243989D01*
X392581D01*
X392649Y243921D01*
X393200Y243692D01*
X393797D01*
X394348Y243921D01*
X394770Y244343D01*
X394999Y244894D01*
Y245491D01*
X394770Y246042D01*
X394348Y246464D01*
X393797Y246692D01*
X393200D01*
X392649Y246464D01*
X392227Y246042D01*
X392221Y246028D01*
X388734D01*
X388529Y246528D01*
X388721Y246991D01*
Y247077D01*
X389161Y247517D01*
X394933D01*
X395185Y247265D01*
X395737Y247037D01*
X396333D01*
X396885Y247265D01*
X397307Y247687D01*
X397535Y248238D01*
Y248835D01*
X397307Y249386D01*
X396885Y249808D01*
X396333Y250037D01*
X395737D01*
X395185Y249808D01*
X394933Y249556D01*
X388739D01*
X388349Y249479D01*
X388018Y249258D01*
X387541Y248781D01*
X387519Y248790D01*
X386923D01*
X386371Y248561D01*
X385949Y248139D01*
X385721Y247588D01*
Y246991D01*
X385882Y246603D01*
X385644Y246143D01*
X385245Y246096D01*
X384225Y247117D01*
Y247709D01*
X383997Y248260D01*
X383575Y248682D01*
X383023Y248910D01*
X382427D01*
X381875Y248682D01*
X381453Y248260D01*
X381382Y248088D01*
X380792Y247971D01*
X368681Y260081D01*
X368185Y260413D01*
X367600Y260529D01*
X365306D01*
X364716Y261119D01*
X363797Y261500D01*
D02*
G37*
G36*
X347955Y258857D02*
X347248D01*
X346594Y258587D01*
X346093Y258086D01*
X345822Y257432D01*
Y256724D01*
X346093Y256070D01*
X346594Y255569D01*
X347248Y255298D01*
X347955D01*
X348610Y255569D01*
X349110Y256070D01*
X349381Y256724D01*
Y257432D01*
X349110Y258086D01*
X348610Y258587D01*
X347955Y258857D01*
D02*
G37*
G36*
X357203Y256981D02*
X356208D01*
X355289Y256601D01*
X354586Y255897D01*
X354206Y254978D01*
Y253984D01*
X354586Y253065D01*
X355289Y252362D01*
X356208Y251981D01*
X357203D01*
X358122Y252362D01*
X358825Y253065D01*
X359206Y253984D01*
Y254978D01*
X358825Y255897D01*
X358122Y256601D01*
X357203Y256981D01*
D02*
G37*
G36*
X331999Y257980D02*
X327020D01*
Y245926D01*
X331999D01*
Y257980D01*
D02*
G37*
G36*
X403798Y247100D02*
X403202D01*
X402650Y246872D01*
X402228Y246450D01*
X402000Y245898D01*
Y245302D01*
X402228Y244750D01*
X402650Y244328D01*
X403202Y244100D01*
X403798D01*
X404350Y244328D01*
X404772Y244750D01*
X405000Y245302D01*
Y245898D01*
X404772Y246450D01*
X404350Y246872D01*
X403798Y247100D01*
D02*
G37*
G36*
X337550Y257959D02*
X332571D01*
Y238245D01*
X337550D01*
Y257959D01*
D02*
G37*
G36*
X392350Y243228D02*
X387413D01*
Y234748D01*
X388352D01*
Y231102D01*
X388469Y230517D01*
X388613Y230302D01*
X388616Y230284D01*
X388948Y229788D01*
X392200Y226536D01*
Y225704D01*
X392581Y224785D01*
X393284Y224081D01*
X394203Y223701D01*
X395197D01*
X396116Y224081D01*
X396819Y224785D01*
X397200Y225704D01*
Y226698D01*
X396819Y227617D01*
X396116Y228320D01*
X395197Y228701D01*
X394361D01*
X391411Y231650D01*
Y234748D01*
X392350D01*
Y243228D01*
D02*
G37*
G36*
X332997Y226724D02*
X332003D01*
X331084Y226343D01*
X330381Y225640D01*
X330000Y224721D01*
Y223726D01*
X330381Y222808D01*
X331084Y222104D01*
X332003Y221724D01*
X332997D01*
X333916Y222104D01*
X334619Y222808D01*
X335000Y223726D01*
Y224721D01*
X334619Y225640D01*
X333916Y226343D01*
X332997Y226724D01*
D02*
G37*
G36*
X390669Y225118D02*
X389843D01*
X389081Y224802D01*
X388497Y224219D01*
X388181Y223456D01*
Y222631D01*
X388497Y221868D01*
X389081Y221284D01*
X389843Y220969D01*
X390669D01*
X391431Y221284D01*
X392015Y221868D01*
X392331Y222631D01*
Y223456D01*
X392015Y224219D01*
X391431Y224802D01*
X390669Y225118D01*
D02*
G37*
G36*
X432560Y260410D02*
X427453D01*
Y217374D01*
X432560D01*
Y260410D01*
D02*
G37*
G36*
X426661Y260382D02*
X421941D01*
Y217374D01*
X426661D01*
Y260382D01*
D02*
G37*
%LPD*%
G36*
X416035Y253453D02*
Y224212D01*
X415535Y224004D01*
X415431Y224109D01*
X414879Y224338D01*
X414688D01*
X414456Y224812D01*
X414684Y225363D01*
Y225960D01*
X414456Y226511D01*
X414034Y226933D01*
X413482Y227162D01*
X413126D01*
X409129Y231159D01*
X408798Y231380D01*
X408408Y231458D01*
X398876D01*
X398848Y231502D01*
X399121Y232002D01*
X408535D01*
X408925Y232080D01*
X409256Y232301D01*
X409841Y232887D01*
X410063Y233217D01*
X410140Y233608D01*
Y243786D01*
X410640Y244120D01*
X410822Y244044D01*
X411419D01*
X411970Y244273D01*
X412392Y244695D01*
X412620Y245246D01*
Y245843D01*
X412392Y246394D01*
X411970Y246816D01*
X411419Y247044D01*
X410822D01*
X410471Y247440D01*
X410444Y247539D01*
X413265Y250360D01*
X413622D01*
X414173Y250589D01*
X414595Y251011D01*
X414823Y251562D01*
Y252159D01*
X414595Y252710D01*
X414575Y252730D01*
X414782Y253231D01*
X414783D01*
X415334Y253459D01*
X415535Y253660D01*
X416035Y253453D01*
D02*
G37*
G36*
X420441Y258754D02*
X417821Y258072D01*
X420441Y257385D01*
Y256227D01*
X416608D01*
Y256942D01*
X419621D01*
X416608Y257696D01*
Y258443D01*
X419621Y259197D01*
X416608Y259202D01*
Y259917D01*
X420441D01*
Y258754D01*
D02*
G37*
G36*
Y254643D02*
X418314D01*
X418231D01*
X418153D01*
X418081Y254637D01*
X418015D01*
X417959Y254632D01*
X417904D01*
X417854Y254626D01*
X417810D01*
X417743Y254615D01*
X417693Y254610D01*
X417666Y254604D01*
X417655D01*
X417583Y254588D01*
X417522Y254560D01*
X417466Y254527D01*
X417416Y254493D01*
X417378Y254460D01*
X417350Y254433D01*
X417333Y254410D01*
X417328Y254405D01*
X417283Y254338D01*
X417250Y254255D01*
X417228Y254178D01*
X417211Y254095D01*
X417200Y254023D01*
X417195Y253967D01*
Y253912D01*
X417200Y253795D01*
X417217Y253696D01*
X417239Y253607D01*
X417267Y253529D01*
X417289Y253474D01*
X417311Y253430D01*
X417328Y253408D01*
X417333Y253397D01*
X417389Y253336D01*
X417455Y253286D01*
X417516Y253241D01*
X417577Y253214D01*
X417632Y253191D01*
X417677Y253175D01*
X417704Y253164D01*
X417716D01*
X417749Y253158D01*
X417782Y253153D01*
X417826D01*
X417876Y253147D01*
X417981Y253142D01*
X418092D01*
X418192Y253136D01*
X418236D01*
X418281D01*
X418314D01*
X418336D01*
X418353D01*
X418358D01*
X420441D01*
Y252361D01*
X418391D01*
X418275D01*
X418164Y252366D01*
X418059D01*
X417965Y252372D01*
X417876Y252377D01*
X417799Y252383D01*
X417727Y252388D01*
X417660Y252399D01*
X417605Y252405D01*
X417555Y252410D01*
X417511Y252416D01*
X417477Y252421D01*
X417450Y252427D01*
X417433D01*
X417422Y252432D01*
X417416D01*
X417333Y252460D01*
X417256Y252488D01*
X417184Y252527D01*
X417123Y252560D01*
X417067Y252593D01*
X417023Y252621D01*
X417001Y252643D01*
X416990Y252649D01*
X416918Y252715D01*
X416851Y252787D01*
X416796Y252865D01*
X416746Y252937D01*
X416707Y252998D01*
X416679Y253053D01*
X416663Y253086D01*
X416657Y253092D01*
Y253097D01*
X416635Y253153D01*
X416618Y253214D01*
X416585Y253352D01*
X416563Y253491D01*
X416552Y253624D01*
X416546Y253685D01*
X416541Y253746D01*
Y253795D01*
X416535Y253845D01*
Y253934D01*
X416541Y254095D01*
X416552Y254239D01*
X416574Y254366D01*
X416596Y254471D01*
X416602Y254516D01*
X416613Y254560D01*
X416624Y254593D01*
X416635Y254621D01*
X416641Y254643D01*
X416646Y254660D01*
X416652Y254665D01*
Y254671D01*
X416696Y254770D01*
X416751Y254859D01*
X416801Y254937D01*
X416851Y255003D01*
X416895Y255053D01*
X416929Y255092D01*
X416951Y255114D01*
X416962Y255119D01*
X417040Y255180D01*
X417123Y255230D01*
X417200Y255269D01*
X417278Y255302D01*
X417344Y255324D01*
X417400Y255341D01*
X417416Y255347D01*
X417433D01*
X417439Y255352D01*
X417444D01*
X417505Y255363D01*
X417571Y255374D01*
X417643Y255385D01*
X417716Y255391D01*
X417882Y255402D01*
X418042Y255413D01*
X418114D01*
X418186D01*
X418253Y255419D01*
X418308D01*
X418353D01*
X418391D01*
X418413D01*
X418419D01*
X420441D01*
Y254643D01*
D02*
G37*
G36*
X418369Y250494D02*
X417632D01*
Y251940D01*
X418369D01*
Y250494D01*
D02*
G37*
G36*
X417854Y249923D02*
X417970Y249906D01*
X418076Y249879D01*
X418164Y249851D01*
X418236Y249823D01*
X418286Y249796D01*
X418319Y249779D01*
X418330Y249773D01*
X418419Y249712D01*
X418497Y249640D01*
X418563Y249568D01*
X418618Y249502D01*
X418663Y249441D01*
X418696Y249391D01*
X418718Y249358D01*
X418724Y249352D01*
Y249347D01*
X418751Y249291D01*
X418779Y249236D01*
X418829Y249103D01*
X418873Y248965D01*
X418918Y248832D01*
X418934Y248771D01*
X418951Y248710D01*
X418967Y248654D01*
X418979Y248610D01*
X418990Y248571D01*
X418995Y248543D01*
X419001Y248521D01*
Y248516D01*
X419028Y248416D01*
X419051Y248327D01*
X419073Y248244D01*
X419095Y248167D01*
X419117Y248106D01*
X419139Y248045D01*
X419161Y247995D01*
X419178Y247951D01*
X419195Y247912D01*
X419211Y247884D01*
X419222Y247856D01*
X419233Y247840D01*
X419250Y247812D01*
X419256Y247807D01*
X419294Y247768D01*
X419333Y247740D01*
X419372Y247724D01*
X419411Y247712D01*
X419438Y247701D01*
X419466Y247696D01*
X419483D01*
X419488D01*
X419544Y247701D01*
X419588Y247712D01*
X419632Y247735D01*
X419665Y247757D01*
X419693Y247779D01*
X419710Y247801D01*
X419721Y247812D01*
X419727Y247818D01*
X419776Y247895D01*
X419810Y247978D01*
X419837Y248067D01*
X419854Y248150D01*
X419865Y248222D01*
X419871Y248283D01*
Y248339D01*
X419865Y248455D01*
X419848Y248554D01*
X419826Y248638D01*
X419804Y248704D01*
X419782Y248760D01*
X419760Y248798D01*
X419743Y248820D01*
X419738Y248826D01*
X419682Y248881D01*
X419616Y248931D01*
X419549Y248970D01*
X419477Y248998D01*
X419416Y249020D01*
X419366Y249031D01*
X419328Y249042D01*
X419322D01*
X419316D01*
X419344Y249818D01*
X419444Y249812D01*
X419533Y249796D01*
X419621Y249773D01*
X419699Y249746D01*
X419776Y249718D01*
X419848Y249685D01*
X419909Y249652D01*
X419970Y249618D01*
X420020Y249579D01*
X420064Y249546D01*
X420103Y249513D01*
X420136Y249485D01*
X420159Y249463D01*
X420175Y249447D01*
X420186Y249435D01*
X420192Y249430D01*
X420247Y249358D01*
X420297Y249280D01*
X420341Y249197D01*
X420380Y249109D01*
X420408Y249020D01*
X420436Y248931D01*
X420474Y248754D01*
X420485Y248671D01*
X420497Y248599D01*
X420502Y248527D01*
X420508Y248466D01*
X420513Y248416D01*
Y248349D01*
X420508Y248189D01*
X420491Y248045D01*
X420469Y247917D01*
X420447Y247807D01*
X420430Y247757D01*
X420419Y247712D01*
X420408Y247679D01*
X420397Y247646D01*
X420386Y247624D01*
X420380Y247607D01*
X420375Y247596D01*
Y247591D01*
X420319Y247480D01*
X420258Y247386D01*
X420192Y247303D01*
X420131Y247236D01*
X420076Y247181D01*
X420031Y247147D01*
X419998Y247120D01*
X419992Y247114D01*
X419987D01*
X419893Y247059D01*
X419793Y247020D01*
X419699Y246992D01*
X419616Y246976D01*
X419544Y246965D01*
X419488Y246954D01*
X419466D01*
X419450D01*
X419444D01*
X419438D01*
X419355Y246959D01*
X419272Y246970D01*
X419200Y246987D01*
X419128Y247009D01*
X418995Y247064D01*
X418879Y247131D01*
X418829Y247158D01*
X418790Y247192D01*
X418751Y247219D01*
X418718Y247247D01*
X418696Y247269D01*
X418679Y247286D01*
X418668Y247297D01*
X418663Y247303D01*
X418624Y247352D01*
X418585Y247413D01*
X418546Y247474D01*
X418513Y247546D01*
X418447Y247685D01*
X418391Y247829D01*
X418369Y247901D01*
X418347Y247962D01*
X418330Y248023D01*
X418314Y248073D01*
X418303Y248111D01*
X418292Y248145D01*
X418286Y248167D01*
Y248172D01*
X418264Y248261D01*
X418242Y248339D01*
X418225Y248411D01*
X418209Y248477D01*
X418192Y248532D01*
X418181Y248582D01*
X418164Y248626D01*
X418153Y248665D01*
X418148Y248699D01*
X418137Y248726D01*
X418125Y248765D01*
X418114Y248787D01*
Y248793D01*
X418087Y248865D01*
X418059Y248920D01*
X418031Y248970D01*
X418004Y249009D01*
X417981Y249037D01*
X417965Y249053D01*
X417954Y249064D01*
X417948Y249070D01*
X417909Y249097D01*
X417871Y249120D01*
X417832Y249131D01*
X417799Y249142D01*
X417765Y249147D01*
X417738Y249153D01*
X417721D01*
X417716D01*
X417638Y249147D01*
X417571Y249125D01*
X417505Y249092D01*
X417450Y249059D01*
X417405Y249020D01*
X417372Y248992D01*
X417350Y248970D01*
X417344Y248959D01*
X417294Y248881D01*
X417256Y248793D01*
X417228Y248699D01*
X417211Y248610D01*
X417200Y248527D01*
X417189Y248460D01*
Y248399D01*
X417195Y248272D01*
X417217Y248161D01*
X417245Y248067D01*
X417278Y247984D01*
X417311Y247917D01*
X417339Y247873D01*
X417361Y247845D01*
X417366Y247834D01*
X417444Y247762D01*
X417527Y247707D01*
X417621Y247657D01*
X417716Y247624D01*
X417799Y247596D01*
X417865Y247574D01*
X417887Y247568D01*
X417909D01*
X417920Y247563D01*
X417926D01*
X417854Y246809D01*
X417738Y246826D01*
X417627Y246848D01*
X417522Y246881D01*
X417427Y246909D01*
X417339Y246948D01*
X417256Y246987D01*
X417184Y247025D01*
X417117Y247064D01*
X417062Y247103D01*
X417012Y247142D01*
X416968Y247175D01*
X416929Y247208D01*
X416901Y247231D01*
X416885Y247253D01*
X416873Y247264D01*
X416868Y247269D01*
X416807Y247347D01*
X416757Y247430D01*
X416713Y247519D01*
X416674Y247613D01*
X416646Y247701D01*
X416618Y247796D01*
X416580Y247978D01*
X416563Y248061D01*
X416552Y248139D01*
X416546Y248205D01*
X416541Y248266D01*
X416535Y248316D01*
Y248388D01*
X416541Y248566D01*
X416558Y248726D01*
X416580Y248870D01*
X416591Y248931D01*
X416608Y248992D01*
X416618Y249042D01*
X416630Y249086D01*
X416641Y249125D01*
X416652Y249158D01*
X416663Y249186D01*
X416668Y249203D01*
X416674Y249214D01*
Y249219D01*
X416735Y249341D01*
X416801Y249441D01*
X416868Y249535D01*
X416940Y249607D01*
X417001Y249662D01*
X417056Y249707D01*
X417089Y249729D01*
X417095Y249740D01*
X417100D01*
X417211Y249801D01*
X417317Y249851D01*
X417422Y249884D01*
X417522Y249906D01*
X417599Y249917D01*
X417638Y249923D01*
X417666Y249928D01*
X417688D01*
X417704D01*
X417716D01*
X417721D01*
X417854Y249923D01*
D02*
G37*
G36*
X417355Y246123D02*
X417433Y246073D01*
X417511Y246023D01*
X417577Y245978D01*
X417638Y245934D01*
X417693Y245895D01*
X417749Y245862D01*
X417832Y245796D01*
X417898Y245746D01*
X417943Y245712D01*
X417970Y245685D01*
X417976Y245679D01*
X418042Y245618D01*
X418103Y245546D01*
X418153Y245480D01*
X418203Y245413D01*
X418242Y245358D01*
X418269Y245314D01*
X418292Y245280D01*
X418297Y245275D01*
Y245269D01*
X418314Y245363D01*
X418336Y245447D01*
X418358Y245524D01*
X418386Y245602D01*
X418413Y245668D01*
X418441Y245729D01*
X418469Y245790D01*
X418502Y245840D01*
X418530Y245884D01*
X418558Y245923D01*
X418585Y245956D01*
X418607Y245978D01*
X418624Y246001D01*
X418641Y246017D01*
X418646Y246023D01*
X418652Y246028D01*
X418707Y246073D01*
X418762Y246111D01*
X418884Y246178D01*
X419001Y246222D01*
X419117Y246250D01*
X419217Y246272D01*
X419256Y246278D01*
X419294D01*
X419322Y246283D01*
X419350D01*
X419361D01*
X419366D01*
X419488Y246278D01*
X419605Y246255D01*
X419704Y246228D01*
X419793Y246200D01*
X419865Y246167D01*
X419920Y246139D01*
X419937Y246128D01*
X419954Y246117D01*
X419959Y246111D01*
X419965D01*
X420059Y246045D01*
X420136Y245973D01*
X420197Y245901D01*
X420253Y245829D01*
X420286Y245762D01*
X420314Y245712D01*
X420330Y245679D01*
X420336Y245674D01*
Y245668D01*
X420353Y245613D01*
X420369Y245552D01*
X420397Y245413D01*
X420413Y245264D01*
X420430Y245120D01*
Y245048D01*
X420436Y244987D01*
Y244926D01*
X420441Y244876D01*
Y243147D01*
X416608D01*
Y243923D01*
X418209D01*
Y244172D01*
X418203Y244250D01*
X418197Y244316D01*
X418186Y244372D01*
X418181Y244416D01*
X418170Y244444D01*
X418164Y244461D01*
Y244466D01*
X418142Y244510D01*
X418120Y244555D01*
X418092Y244593D01*
X418070Y244632D01*
X418042Y244660D01*
X418020Y244682D01*
X418009Y244693D01*
X418004Y244699D01*
X417976Y244721D01*
X417948Y244748D01*
X417865Y244810D01*
X417776Y244876D01*
X417677Y244948D01*
X417588Y245009D01*
X417544Y245037D01*
X417511Y245059D01*
X417483Y245081D01*
X417461Y245098D01*
X417444Y245103D01*
X417439Y245109D01*
X416608Y245663D01*
Y246593D01*
X417355Y246123D01*
D02*
G37*
G36*
X420441Y241613D02*
X417860D01*
X420441Y240029D01*
Y239281D01*
X416608D01*
Y239995D01*
X419134D01*
X416608Y241552D01*
Y242328D01*
X420441D01*
Y241613D01*
D02*
G37*
G36*
X418015Y237857D02*
X417865Y237812D01*
X417738Y237763D01*
X417632Y237713D01*
X417544Y237657D01*
X417477Y237613D01*
X417433Y237574D01*
X417405Y237546D01*
X417394Y237536D01*
X417328Y237447D01*
X417283Y237358D01*
X417250Y237269D01*
X417222Y237192D01*
X417211Y237120D01*
X417206Y237059D01*
X417200Y237037D01*
Y237009D01*
X417206Y236932D01*
X417211Y236860D01*
X417250Y236727D01*
X417294Y236610D01*
X417355Y236516D01*
X417411Y236438D01*
X417455Y236383D01*
X417477Y236361D01*
X417494Y236344D01*
X417499Y236339D01*
X417505Y236333D01*
X417566Y236289D01*
X417638Y236250D01*
X417716Y236211D01*
X417799Y236184D01*
X417970Y236139D01*
X418142Y236106D01*
X418225Y236095D01*
X418297Y236089D01*
X418369Y236079D01*
X418430D01*
X418474Y236073D01*
X418513D01*
X418541D01*
X418546D01*
X418674Y236079D01*
X418790Y236084D01*
X418895Y236095D01*
X418995Y236112D01*
X419084Y236134D01*
X419167Y236156D01*
X419239Y236178D01*
X419305Y236206D01*
X419361Y236228D01*
X419411Y236250D01*
X419450Y236272D01*
X419483Y236295D01*
X419510Y236311D01*
X419527Y236322D01*
X419538Y236333D01*
X419544D01*
X419599Y236383D01*
X419649Y236438D01*
X419688Y236494D01*
X419721Y236555D01*
X419776Y236671D01*
X419815Y236782D01*
X419837Y236876D01*
X419843Y236920D01*
X419848Y236954D01*
X419854Y236987D01*
Y237026D01*
X419848Y237137D01*
X419826Y237236D01*
X419799Y237325D01*
X419765Y237403D01*
X419732Y237463D01*
X419704Y237508D01*
X419682Y237536D01*
X419677Y237546D01*
X419610Y237619D01*
X419533Y237685D01*
X419455Y237735D01*
X419378Y237774D01*
X419311Y237801D01*
X419261Y237818D01*
X419239Y237829D01*
X419222D01*
X419217Y237835D01*
X419211D01*
X419394Y238599D01*
X419555Y238544D01*
X419693Y238483D01*
X419815Y238416D01*
X419915Y238355D01*
X419992Y238295D01*
X420026Y238272D01*
X420053Y238250D01*
X420070Y238233D01*
X420087Y238217D01*
X420098Y238211D01*
Y238206D01*
X420170Y238123D01*
X420236Y238029D01*
X420292Y237940D01*
X420336Y237846D01*
X420380Y237746D01*
X420413Y237652D01*
X420441Y237558D01*
X420463Y237469D01*
X420480Y237386D01*
X420491Y237308D01*
X420502Y237242D01*
X420508Y237181D01*
X420513Y237131D01*
Y237065D01*
X420508Y236920D01*
X420491Y236776D01*
X420463Y236649D01*
X420430Y236522D01*
X420391Y236411D01*
X420347Y236300D01*
X420297Y236206D01*
X420247Y236117D01*
X420197Y236034D01*
X420148Y235968D01*
X420103Y235907D01*
X420064Y235857D01*
X420031Y235818D01*
X420004Y235790D01*
X419987Y235774D01*
X419981Y235768D01*
X419876Y235680D01*
X419765Y235608D01*
X419649Y235541D01*
X419527Y235486D01*
X419400Y235436D01*
X419278Y235397D01*
X419156Y235364D01*
X419039Y235336D01*
X418923Y235314D01*
X418823Y235303D01*
X418729Y235292D01*
X418652Y235281D01*
X418585D01*
X418535Y235275D01*
X418502D01*
X418497D01*
X418491D01*
X418325Y235281D01*
X418170Y235297D01*
X418020Y235319D01*
X417887Y235353D01*
X417760Y235386D01*
X417638Y235430D01*
X417533Y235475D01*
X417439Y235519D01*
X417350Y235563D01*
X417272Y235608D01*
X417211Y235652D01*
X417156Y235685D01*
X417117Y235718D01*
X417084Y235740D01*
X417067Y235757D01*
X417062Y235763D01*
X416968Y235857D01*
X416890Y235957D01*
X416818Y236062D01*
X416763Y236167D01*
X416713Y236272D01*
X416668Y236378D01*
X416635Y236477D01*
X416608Y236572D01*
X416585Y236666D01*
X416569Y236749D01*
X416558Y236826D01*
X416552Y236887D01*
X416546Y236943D01*
X416541Y236982D01*
Y237015D01*
X416546Y237131D01*
X416552Y237236D01*
X416569Y237342D01*
X416591Y237436D01*
X416613Y237524D01*
X416635Y237608D01*
X416663Y237685D01*
X416696Y237757D01*
X416724Y237818D01*
X416751Y237873D01*
X416774Y237923D01*
X416796Y237962D01*
X416818Y237995D01*
X416835Y238018D01*
X416840Y238029D01*
X416846Y238034D01*
X416907Y238106D01*
X416973Y238173D01*
X417123Y238295D01*
X417278Y238394D01*
X417427Y238472D01*
X417499Y238505D01*
X417566Y238533D01*
X417627Y238555D01*
X417677Y238577D01*
X417721Y238594D01*
X417754Y238605D01*
X417776Y238610D01*
X417782D01*
X418015Y237857D01*
D02*
G37*
G36*
X418369Y233536D02*
X417632D01*
Y234981D01*
X418369D01*
Y233536D01*
D02*
G37*
G36*
X418015Y232206D02*
X417865Y232162D01*
X417738Y232112D01*
X417632Y232062D01*
X417544Y232007D01*
X417477Y231962D01*
X417433Y231924D01*
X417405Y231896D01*
X417394Y231885D01*
X417328Y231796D01*
X417283Y231707D01*
X417250Y231619D01*
X417222Y231541D01*
X417211Y231469D01*
X417206Y231408D01*
X417200Y231386D01*
Y231358D01*
X417206Y231281D01*
X417211Y231209D01*
X417250Y231076D01*
X417294Y230960D01*
X417355Y230865D01*
X417411Y230788D01*
X417455Y230732D01*
X417477Y230710D01*
X417494Y230694D01*
X417499Y230688D01*
X417505Y230682D01*
X417566Y230638D01*
X417638Y230599D01*
X417716Y230561D01*
X417799Y230533D01*
X417970Y230489D01*
X418142Y230455D01*
X418225Y230444D01*
X418297Y230439D01*
X418369Y230428D01*
X418430D01*
X418474Y230422D01*
X418513D01*
X418541D01*
X418546D01*
X418674Y230428D01*
X418790Y230433D01*
X418895Y230444D01*
X418995Y230461D01*
X419084Y230483D01*
X419167Y230505D01*
X419239Y230527D01*
X419305Y230555D01*
X419361Y230577D01*
X419411Y230599D01*
X419450Y230622D01*
X419483Y230644D01*
X419510Y230660D01*
X419527Y230671D01*
X419538Y230682D01*
X419544D01*
X419599Y230732D01*
X419649Y230788D01*
X419688Y230843D01*
X419721Y230904D01*
X419776Y231020D01*
X419815Y231131D01*
X419837Y231225D01*
X419843Y231270D01*
X419848Y231303D01*
X419854Y231336D01*
Y231375D01*
X419848Y231486D01*
X419826Y231586D01*
X419799Y231674D01*
X419765Y231752D01*
X419732Y231813D01*
X419704Y231857D01*
X419682Y231885D01*
X419677Y231896D01*
X419610Y231968D01*
X419533Y232034D01*
X419455Y232084D01*
X419378Y232123D01*
X419311Y232151D01*
X419261Y232167D01*
X419239Y232178D01*
X419222D01*
X419217Y232184D01*
X419211D01*
X419394Y232948D01*
X419555Y232893D01*
X419693Y232832D01*
X419815Y232766D01*
X419915Y232705D01*
X419992Y232644D01*
X420026Y232622D01*
X420053Y232599D01*
X420070Y232583D01*
X420087Y232566D01*
X420098Y232561D01*
Y232555D01*
X420170Y232472D01*
X420236Y232378D01*
X420292Y232289D01*
X420336Y232195D01*
X420380Y232095D01*
X420413Y232001D01*
X420441Y231907D01*
X420463Y231818D01*
X420480Y231735D01*
X420491Y231658D01*
X420502Y231591D01*
X420508Y231530D01*
X420513Y231480D01*
Y231414D01*
X420508Y231270D01*
X420491Y231126D01*
X420463Y230998D01*
X420430Y230871D01*
X420391Y230760D01*
X420347Y230649D01*
X420297Y230555D01*
X420247Y230466D01*
X420197Y230383D01*
X420148Y230317D01*
X420103Y230256D01*
X420064Y230206D01*
X420031Y230167D01*
X420004Y230140D01*
X419987Y230123D01*
X419981Y230117D01*
X419876Y230029D01*
X419765Y229957D01*
X419649Y229890D01*
X419527Y229835D01*
X419400Y229785D01*
X419278Y229746D01*
X419156Y229713D01*
X419039Y229685D01*
X418923Y229663D01*
X418823Y229652D01*
X418729Y229641D01*
X418652Y229630D01*
X418585D01*
X418535Y229624D01*
X418502D01*
X418497D01*
X418491D01*
X418325Y229630D01*
X418170Y229646D01*
X418020Y229669D01*
X417887Y229702D01*
X417760Y229735D01*
X417638Y229780D01*
X417533Y229824D01*
X417439Y229868D01*
X417350Y229912D01*
X417272Y229957D01*
X417211Y230001D01*
X417156Y230034D01*
X417117Y230067D01*
X417084Y230090D01*
X417067Y230106D01*
X417062Y230112D01*
X416968Y230206D01*
X416890Y230306D01*
X416818Y230411D01*
X416763Y230516D01*
X416713Y230622D01*
X416668Y230727D01*
X416635Y230826D01*
X416608Y230921D01*
X416585Y231015D01*
X416569Y231098D01*
X416558Y231176D01*
X416552Y231237D01*
X416546Y231292D01*
X416541Y231331D01*
Y231364D01*
X416546Y231480D01*
X416552Y231586D01*
X416569Y231691D01*
X416591Y231785D01*
X416613Y231874D01*
X416635Y231957D01*
X416663Y232034D01*
X416696Y232106D01*
X416724Y232167D01*
X416751Y232223D01*
X416774Y232273D01*
X416796Y232311D01*
X416818Y232345D01*
X416835Y232367D01*
X416840Y232378D01*
X416846Y232383D01*
X416907Y232455D01*
X416973Y232522D01*
X417123Y232644D01*
X417278Y232743D01*
X417427Y232821D01*
X417499Y232854D01*
X417566Y232882D01*
X417627Y232904D01*
X417677Y232926D01*
X417721Y232943D01*
X417754Y232954D01*
X417776Y232959D01*
X417782D01*
X418015Y232206D01*
D02*
G37*
G36*
X418663Y227375D02*
X418015D01*
Y228261D01*
X417522D01*
X417472Y228195D01*
X417427Y228123D01*
X417389Y228051D01*
X417355Y227984D01*
X417328Y227929D01*
X417306Y227879D01*
X417294Y227852D01*
X417289Y227846D01*
Y227840D01*
X417256Y227752D01*
X417234Y227663D01*
X417217Y227580D01*
X417206Y227508D01*
X417200Y227442D01*
X417195Y227397D01*
Y227353D01*
X417200Y227264D01*
X417211Y227176D01*
X417228Y227098D01*
X417250Y227021D01*
X417306Y226882D01*
X417333Y226827D01*
X417366Y226771D01*
X417400Y226721D01*
X417427Y226677D01*
X417461Y226644D01*
X417483Y226611D01*
X417505Y226588D01*
X417522Y226572D01*
X417533Y226561D01*
X417538Y226555D01*
X417605Y226505D01*
X417682Y226455D01*
X417760Y226417D01*
X417843Y226383D01*
X418015Y226328D01*
X418181Y226295D01*
X418258Y226284D01*
X418336Y226273D01*
X418397Y226267D01*
X418458Y226262D01*
X418502Y226256D01*
X418541D01*
X418563D01*
X418569D01*
X418685Y226262D01*
X418790Y226267D01*
X418895Y226284D01*
X418990Y226300D01*
X419073Y226323D01*
X419150Y226350D01*
X419222Y226378D01*
X419289Y226406D01*
X419344Y226428D01*
X419394Y226455D01*
X419433Y226483D01*
X419466Y226505D01*
X419494Y226522D01*
X419510Y226539D01*
X419522Y226544D01*
X419527Y226550D01*
X419582Y226611D01*
X419638Y226672D01*
X419677Y226738D01*
X419715Y226804D01*
X419749Y226871D01*
X419776Y226937D01*
X419815Y227065D01*
X419826Y227126D01*
X419837Y227181D01*
X419843Y227231D01*
X419848Y227275D01*
X419854Y227309D01*
Y227359D01*
X419848Y227480D01*
X419826Y227586D01*
X419804Y227680D01*
X419771Y227763D01*
X419743Y227824D01*
X419715Y227874D01*
X419693Y227901D01*
X419688Y227912D01*
X419621Y227990D01*
X419549Y228057D01*
X419477Y228112D01*
X419405Y228151D01*
X419339Y228184D01*
X419289Y228206D01*
X419256Y228217D01*
X419250Y228223D01*
X419244D01*
X419388Y228993D01*
X419483Y228971D01*
X419577Y228937D01*
X419660Y228904D01*
X419738Y228860D01*
X419815Y228821D01*
X419882Y228777D01*
X419943Y228732D01*
X419998Y228688D01*
X420048Y228644D01*
X420092Y228605D01*
X420131Y228572D01*
X420159Y228538D01*
X420181Y228511D01*
X420203Y228489D01*
X420209Y228478D01*
X420214Y228472D01*
X420269Y228395D01*
X420314Y228311D01*
X420353Y228223D01*
X420386Y228129D01*
X420441Y227946D01*
X420474Y227768D01*
X420491Y227685D01*
X420497Y227608D01*
X420502Y227536D01*
X420508Y227475D01*
X420513Y227425D01*
Y227359D01*
X420508Y227159D01*
X420485Y226982D01*
X420469Y226904D01*
X420452Y226827D01*
X420436Y226755D01*
X420419Y226694D01*
X420397Y226638D01*
X420380Y226583D01*
X420364Y226544D01*
X420353Y226505D01*
X420336Y226478D01*
X420330Y226455D01*
X420319Y226444D01*
Y226439D01*
X420220Y226267D01*
X420159Y226195D01*
X420103Y226123D01*
X420042Y226057D01*
X419981Y225996D01*
X419920Y225940D01*
X419865Y225890D01*
X419810Y225852D01*
X419760Y225813D01*
X419715Y225780D01*
X419677Y225752D01*
X419643Y225735D01*
X419621Y225719D01*
X419605Y225713D01*
X419599Y225708D01*
X419510Y225663D01*
X419422Y225624D01*
X419239Y225564D01*
X419056Y225519D01*
X418895Y225491D01*
X418818Y225480D01*
X418751Y225469D01*
X418690Y225464D01*
X418635D01*
X418596Y225458D01*
X418563D01*
X418541D01*
X418535D01*
X418330Y225469D01*
X418142Y225491D01*
X417970Y225530D01*
X417887Y225547D01*
X417815Y225569D01*
X417749Y225591D01*
X417688Y225608D01*
X417638Y225630D01*
X417594Y225647D01*
X417560Y225658D01*
X417533Y225669D01*
X417516Y225680D01*
X417511D01*
X417344Y225774D01*
X417200Y225879D01*
X417073Y225990D01*
X416973Y226101D01*
X416929Y226151D01*
X416890Y226201D01*
X416857Y226239D01*
X416835Y226278D01*
X416812Y226306D01*
X416796Y226334D01*
X416790Y226345D01*
X416785Y226350D01*
X416740Y226439D01*
X416702Y226522D01*
X416641Y226705D01*
X416596Y226882D01*
X416569Y227043D01*
X416558Y227120D01*
X416546Y227187D01*
X416541Y227248D01*
Y227303D01*
X416535Y227342D01*
Y227403D01*
X416541Y227580D01*
X416563Y227746D01*
X416591Y227907D01*
X416624Y228045D01*
X416641Y228106D01*
X416657Y228162D01*
X416674Y228212D01*
X416685Y228256D01*
X416696Y228289D01*
X416707Y228311D01*
X416713Y228328D01*
Y228333D01*
X416779Y228500D01*
X416851Y228638D01*
X416923Y228760D01*
X416984Y228865D01*
X417040Y228943D01*
X417062Y228971D01*
X417084Y228998D01*
X417100Y229015D01*
X417112Y229032D01*
X417123Y229043D01*
X418663D01*
Y227375D01*
D02*
G37*
G36*
X420441Y223647D02*
X417821Y222965D01*
X420441Y222278D01*
Y221120D01*
X416608D01*
Y221835D01*
X419621D01*
X416608Y222588D01*
Y223337D01*
X419621Y224090D01*
X416608Y224095D01*
Y224810D01*
X420441D01*
Y223647D01*
D02*
G37*
G36*
X417256Y218650D02*
X420413D01*
Y217874D01*
X416608D01*
Y220578D01*
X417256D01*
Y218650D01*
D02*
G37*
%LPC*%
G36*
X419344Y245485D02*
X419322D01*
X419311D01*
X419250Y245480D01*
X419195Y245474D01*
X419145Y245458D01*
X419101Y245447D01*
X419067Y245430D01*
X419045Y245413D01*
X419028Y245408D01*
X419023Y245402D01*
X418984Y245369D01*
X418951Y245336D01*
X418901Y245264D01*
X418884Y245236D01*
X418873Y245208D01*
X418862Y245192D01*
Y245186D01*
X418857Y245159D01*
X418846Y245114D01*
X418840Y245070D01*
X418834Y245020D01*
X418829Y244904D01*
X418823Y244787D01*
X418818Y244676D01*
Y243923D01*
X419793D01*
Y244810D01*
X419787Y244859D01*
Y244981D01*
X419782Y245031D01*
Y245064D01*
X419776Y245081D01*
Y245087D01*
X419760Y245153D01*
X419738Y245214D01*
X419715Y245264D01*
X419688Y245303D01*
X419660Y245336D01*
X419643Y245363D01*
X419627Y245375D01*
X419621Y245380D01*
X419577Y245413D01*
X419522Y245441D01*
X419472Y245458D01*
X419422Y245474D01*
X419378Y245480D01*
X419344Y245485D01*
D02*
G37*
%LPD*%
G36*
X331416Y247551D02*
Y246930D01*
X328974D01*
Y246453D01*
X328330D01*
Y246930D01*
X327559D01*
Y247640D01*
X328330D01*
Y249217D01*
X328969D01*
X331416Y247551D01*
D02*
G37*
%LPC*%
G36*
X328974Y248534D02*
Y247640D01*
X330295D01*
X328974Y248534D01*
D02*
G37*
%LPD*%
G36*
X336012Y257454D02*
X336096Y257442D01*
X336173Y257431D01*
X336245Y257409D01*
X336373Y257354D01*
X336484Y257298D01*
X336534Y257265D01*
X336573Y257237D01*
X336612Y257209D01*
X336639Y257182D01*
X336662Y257159D01*
X336684Y257148D01*
X336689Y257137D01*
X336695Y257132D01*
X336751Y257071D01*
X336801Y256998D01*
X336839Y256932D01*
X336873Y256854D01*
X336928Y256710D01*
X336967Y256566D01*
X336978Y256499D01*
X336989Y256438D01*
X336995Y256382D01*
X337000Y256332D01*
X337006Y256294D01*
Y256238D01*
X337000Y256144D01*
X336995Y256055D01*
X336967Y255883D01*
X336923Y255739D01*
X336900Y255672D01*
X336873Y255611D01*
X336850Y255556D01*
X336823Y255511D01*
X336801Y255467D01*
X336784Y255433D01*
X336762Y255406D01*
X336751Y255389D01*
X336745Y255378D01*
X336739Y255372D01*
X336684Y255311D01*
X336628Y255256D01*
X336562Y255206D01*
X336490Y255161D01*
X336345Y255095D01*
X336207Y255039D01*
X336135Y255023D01*
X336073Y255006D01*
X336018Y254989D01*
X335968Y254984D01*
X335924Y254973D01*
X335896D01*
X335874Y254967D01*
X335868D01*
X335796Y255700D01*
X335907Y255711D01*
X336001Y255733D01*
X336085Y255755D01*
X336146Y255783D01*
X336195Y255805D01*
X336229Y255827D01*
X336251Y255844D01*
X336257Y255850D01*
X336301Y255905D01*
X336334Y255966D01*
X336362Y256027D01*
X336379Y256088D01*
X336390Y256138D01*
X336395Y256183D01*
Y256222D01*
X336390Y256305D01*
X336373Y256377D01*
X336351Y256438D01*
X336329Y256493D01*
X336307Y256532D01*
X336284Y256566D01*
X336268Y256582D01*
X336262Y256588D01*
X336207Y256632D01*
X336146Y256665D01*
X336085Y256688D01*
X336023Y256704D01*
X335968Y256715D01*
X335918Y256721D01*
X335890D01*
X335885D01*
X335879D01*
X335796Y256715D01*
X335718Y256699D01*
X335641Y256671D01*
X335574Y256643D01*
X335513Y256615D01*
X335469Y256588D01*
X335441Y256571D01*
X335430Y256566D01*
X335396Y256543D01*
X335357Y256510D01*
X335308Y256466D01*
X335263Y256421D01*
X335158Y256321D01*
X335052Y256222D01*
X334952Y256122D01*
X334908Y256077D01*
X334875Y256033D01*
X334841Y255999D01*
X334819Y255977D01*
X334803Y255961D01*
X334797Y255955D01*
X334692Y255844D01*
X334592Y255744D01*
X334497Y255650D01*
X334414Y255567D01*
X334331Y255489D01*
X334253Y255422D01*
X334186Y255361D01*
X334120Y255311D01*
X334064Y255267D01*
X334014Y255228D01*
X333976Y255195D01*
X333937Y255172D01*
X333914Y255150D01*
X333892Y255139D01*
X333881Y255128D01*
X333876D01*
X333748Y255056D01*
X333615Y255000D01*
X333493Y254956D01*
X333382Y254923D01*
X333282Y254901D01*
X333243Y254895D01*
X333210Y254889D01*
X333182Y254884D01*
X333160Y254878D01*
X333149D01*
X333143D01*
Y257459D01*
X333826D01*
Y255994D01*
X333898Y256038D01*
X333959Y256088D01*
X333987Y256111D01*
X334009Y256127D01*
X334020Y256138D01*
X334026Y256144D01*
X334048Y256166D01*
X334075Y256188D01*
X334137Y256255D01*
X334209Y256327D01*
X334281Y256399D01*
X334347Y256471D01*
X334403Y256532D01*
X334425Y256555D01*
X334442Y256571D01*
X334447Y256582D01*
X334453Y256588D01*
X334569Y256710D01*
X334664Y256810D01*
X334752Y256893D01*
X334819Y256960D01*
X334875Y257010D01*
X334913Y257043D01*
X334941Y257065D01*
X334947Y257071D01*
X335041Y257143D01*
X335130Y257204D01*
X335213Y257254D01*
X335285Y257293D01*
X335346Y257326D01*
X335396Y257348D01*
X335424Y257359D01*
X335435Y257365D01*
X335524Y257398D01*
X335613Y257420D01*
X335696Y257437D01*
X335774Y257448D01*
X335835Y257454D01*
X335885Y257459D01*
X335918D01*
X335929D01*
X336012Y257454D01*
D02*
G37*
G36*
Y254468D02*
X336096Y254457D01*
X336173Y254446D01*
X336245Y254423D01*
X336373Y254368D01*
X336484Y254312D01*
X336534Y254279D01*
X336573Y254251D01*
X336612Y254223D01*
X336639Y254196D01*
X336662Y254173D01*
X336684Y254162D01*
X336689Y254151D01*
X336695Y254146D01*
X336751Y254085D01*
X336801Y254013D01*
X336839Y253946D01*
X336873Y253868D01*
X336928Y253724D01*
X336967Y253580D01*
X336978Y253513D01*
X336989Y253452D01*
X336995Y253397D01*
X337000Y253347D01*
X337006Y253308D01*
Y253252D01*
X337000Y253158D01*
X336995Y253069D01*
X336967Y252897D01*
X336923Y252753D01*
X336900Y252686D01*
X336873Y252625D01*
X336850Y252570D01*
X336823Y252525D01*
X336801Y252481D01*
X336784Y252448D01*
X336762Y252420D01*
X336751Y252403D01*
X336745Y252392D01*
X336739Y252386D01*
X336684Y252325D01*
X336628Y252270D01*
X336562Y252220D01*
X336490Y252175D01*
X336345Y252109D01*
X336207Y252053D01*
X336135Y252037D01*
X336073Y252020D01*
X336018Y252004D01*
X335968Y251998D01*
X335924Y251987D01*
X335896D01*
X335874Y251981D01*
X335868D01*
X335796Y252714D01*
X335907Y252725D01*
X336001Y252747D01*
X336085Y252769D01*
X336146Y252797D01*
X336195Y252819D01*
X336229Y252841D01*
X336251Y252858D01*
X336257Y252864D01*
X336301Y252919D01*
X336334Y252980D01*
X336362Y253041D01*
X336379Y253102D01*
X336390Y253152D01*
X336395Y253197D01*
Y253236D01*
X336390Y253319D01*
X336373Y253391D01*
X336351Y253452D01*
X336329Y253507D01*
X336307Y253546D01*
X336284Y253580D01*
X336268Y253596D01*
X336262Y253602D01*
X336207Y253646D01*
X336146Y253680D01*
X336085Y253702D01*
X336023Y253718D01*
X335968Y253730D01*
X335918Y253735D01*
X335890D01*
X335885D01*
X335879D01*
X335796Y253730D01*
X335718Y253713D01*
X335641Y253685D01*
X335574Y253657D01*
X335513Y253630D01*
X335469Y253602D01*
X335441Y253585D01*
X335430Y253580D01*
X335396Y253557D01*
X335357Y253524D01*
X335308Y253480D01*
X335263Y253435D01*
X335158Y253335D01*
X335052Y253236D01*
X334952Y253136D01*
X334908Y253091D01*
X334875Y253047D01*
X334841Y253014D01*
X334819Y252991D01*
X334803Y252975D01*
X334797Y252969D01*
X334692Y252858D01*
X334592Y252758D01*
X334497Y252664D01*
X334414Y252581D01*
X334331Y252503D01*
X334253Y252436D01*
X334186Y252375D01*
X334120Y252325D01*
X334064Y252281D01*
X334014Y252242D01*
X333976Y252209D01*
X333937Y252187D01*
X333914Y252164D01*
X333892Y252153D01*
X333881Y252142D01*
X333876D01*
X333748Y252070D01*
X333615Y252015D01*
X333493Y251970D01*
X333382Y251937D01*
X333282Y251915D01*
X333243Y251909D01*
X333210Y251904D01*
X333182Y251898D01*
X333160Y251892D01*
X333149D01*
X333143D01*
Y254473D01*
X333826D01*
Y253008D01*
X333898Y253052D01*
X333959Y253102D01*
X333987Y253125D01*
X334009Y253141D01*
X334020Y253152D01*
X334026Y253158D01*
X334048Y253180D01*
X334075Y253202D01*
X334137Y253269D01*
X334209Y253341D01*
X334281Y253413D01*
X334347Y253485D01*
X334403Y253546D01*
X334425Y253569D01*
X334442Y253585D01*
X334447Y253596D01*
X334453Y253602D01*
X334569Y253724D01*
X334664Y253824D01*
X334752Y253907D01*
X334819Y253974D01*
X334875Y254024D01*
X334913Y254057D01*
X334941Y254079D01*
X334947Y254085D01*
X335041Y254157D01*
X335130Y254218D01*
X335213Y254268D01*
X335285Y254307D01*
X335346Y254340D01*
X335396Y254362D01*
X335424Y254373D01*
X335435Y254379D01*
X335524Y254412D01*
X335613Y254434D01*
X335696Y254451D01*
X335774Y254462D01*
X335835Y254468D01*
X335885Y254473D01*
X335918D01*
X335929D01*
X336012Y254468D01*
D02*
G37*
G36*
X335235Y251487D02*
X335419Y251476D01*
X335585Y251460D01*
X335740Y251432D01*
X335885Y251404D01*
X336012Y251376D01*
X336129Y251338D01*
X336229Y251304D01*
X336323Y251271D01*
X336395Y251238D01*
X336462Y251204D01*
X336517Y251177D01*
X336556Y251149D01*
X336584Y251132D01*
X336601Y251121D01*
X336606Y251115D01*
X336678Y251054D01*
X336739Y250988D01*
X336789Y250916D01*
X336839Y250844D01*
X336878Y250771D01*
X336906Y250699D01*
X336934Y250633D01*
X336956Y250560D01*
X336972Y250494D01*
X336984Y250438D01*
X336995Y250383D01*
X337000Y250339D01*
X337006Y250300D01*
Y250244D01*
X337000Y250144D01*
X336989Y250050D01*
X336967Y249956D01*
X336945Y249872D01*
X336912Y249795D01*
X336878Y249722D01*
X336845Y249661D01*
X336806Y249600D01*
X336767Y249550D01*
X336734Y249500D01*
X336701Y249462D01*
X336667Y249434D01*
X336645Y249406D01*
X336623Y249389D01*
X336612Y249378D01*
X336606Y249373D01*
X336512Y249306D01*
X336401Y249251D01*
X336284Y249201D01*
X336162Y249156D01*
X336035Y249123D01*
X335901Y249090D01*
X335774Y249067D01*
X335646Y249045D01*
X335524Y249034D01*
X335413Y249023D01*
X335308Y249012D01*
X335219Y249007D01*
X335147Y249001D01*
X335091D01*
X335069D01*
X335052D01*
X335047D01*
X335041D01*
X334841Y249007D01*
X334658Y249018D01*
X334486Y249034D01*
X334331Y249056D01*
X334192Y249079D01*
X334064Y249106D01*
X333953Y249140D01*
X333853Y249173D01*
X333770Y249201D01*
X333693Y249234D01*
X333631Y249262D01*
X333581Y249289D01*
X333548Y249306D01*
X333520Y249323D01*
X333504Y249334D01*
X333498Y249340D01*
X333420Y249406D01*
X333360Y249478D01*
X333298Y249550D01*
X333254Y249628D01*
X333210Y249700D01*
X333176Y249778D01*
X333149Y249850D01*
X333126Y249922D01*
X333104Y249989D01*
X333093Y250050D01*
X333082Y250105D01*
X333076Y250150D01*
Y250189D01*
X333071Y250222D01*
Y250244D01*
X333076Y250344D01*
X333087Y250438D01*
X333110Y250533D01*
X333132Y250616D01*
X333160Y250694D01*
X333193Y250766D01*
X333232Y250827D01*
X333271Y250888D01*
X333304Y250938D01*
X333343Y250988D01*
X333376Y251027D01*
X333404Y251060D01*
X333426Y251082D01*
X333448Y251099D01*
X333459Y251110D01*
X333465Y251115D01*
X333559Y251182D01*
X333670Y251238D01*
X333787Y251293D01*
X333914Y251332D01*
X334042Y251371D01*
X334170Y251398D01*
X334303Y251426D01*
X334431Y251448D01*
X334553Y251460D01*
X334664Y251471D01*
X334769Y251482D01*
X334858Y251487D01*
X334930Y251493D01*
X334986D01*
X335008D01*
X335024D01*
X335030D01*
X335036D01*
X335235Y251487D01*
D02*
G37*
G36*
X336012Y248496D02*
X336096Y248485D01*
X336173Y248474D01*
X336245Y248451D01*
X336373Y248396D01*
X336484Y248341D01*
X336534Y248307D01*
X336573Y248279D01*
X336612Y248252D01*
X336639Y248224D01*
X336662Y248202D01*
X336684Y248191D01*
X336689Y248180D01*
X336695Y248174D01*
X336751Y248113D01*
X336801Y248041D01*
X336839Y247974D01*
X336873Y247897D01*
X336928Y247752D01*
X336967Y247608D01*
X336978Y247541D01*
X336989Y247480D01*
X336995Y247425D01*
X337000Y247375D01*
X337006Y247336D01*
Y247280D01*
X337000Y247186D01*
X336995Y247097D01*
X336967Y246925D01*
X336923Y246781D01*
X336900Y246714D01*
X336873Y246653D01*
X336850Y246598D01*
X336823Y246553D01*
X336801Y246509D01*
X336784Y246476D01*
X336762Y246448D01*
X336751Y246431D01*
X336745Y246420D01*
X336739Y246415D01*
X336684Y246354D01*
X336628Y246298D01*
X336562Y246248D01*
X336490Y246204D01*
X336345Y246137D01*
X336207Y246082D01*
X336135Y246065D01*
X336073Y246048D01*
X336018Y246032D01*
X335968Y246026D01*
X335924Y246015D01*
X335896D01*
X335874Y246009D01*
X335868D01*
X335796Y246742D01*
X335907Y246753D01*
X336001Y246775D01*
X336085Y246798D01*
X336146Y246825D01*
X336195Y246848D01*
X336229Y246870D01*
X336251Y246886D01*
X336257Y246892D01*
X336301Y246947D01*
X336334Y247008D01*
X336362Y247070D01*
X336379Y247131D01*
X336390Y247181D01*
X336395Y247225D01*
Y247264D01*
X336390Y247347D01*
X336373Y247419D01*
X336351Y247480D01*
X336329Y247536D01*
X336307Y247575D01*
X336284Y247608D01*
X336268Y247624D01*
X336262Y247630D01*
X336207Y247674D01*
X336146Y247708D01*
X336085Y247730D01*
X336023Y247747D01*
X335968Y247758D01*
X335918Y247763D01*
X335890D01*
X335885D01*
X335879D01*
X335796Y247758D01*
X335718Y247741D01*
X335641Y247713D01*
X335574Y247686D01*
X335513Y247658D01*
X335469Y247630D01*
X335441Y247613D01*
X335430Y247608D01*
X335396Y247586D01*
X335357Y247552D01*
X335308Y247508D01*
X335263Y247464D01*
X335158Y247364D01*
X335052Y247264D01*
X334952Y247164D01*
X334908Y247119D01*
X334875Y247075D01*
X334841Y247042D01*
X334819Y247020D01*
X334803Y247003D01*
X334797Y246997D01*
X334692Y246886D01*
X334592Y246786D01*
X334497Y246692D01*
X334414Y246609D01*
X334331Y246531D01*
X334253Y246465D01*
X334186Y246404D01*
X334120Y246354D01*
X334064Y246309D01*
X334014Y246270D01*
X333976Y246237D01*
X333937Y246215D01*
X333914Y246193D01*
X333892Y246182D01*
X333881Y246170D01*
X333876D01*
X333748Y246098D01*
X333615Y246043D01*
X333493Y245998D01*
X333382Y245965D01*
X333282Y245943D01*
X333243Y245937D01*
X333210Y245932D01*
X333182Y245926D01*
X333160Y245921D01*
X333149D01*
X333143D01*
Y248501D01*
X333826D01*
Y247036D01*
X333898Y247081D01*
X333959Y247131D01*
X333987Y247153D01*
X334009Y247169D01*
X334020Y247181D01*
X334026Y247186D01*
X334048Y247208D01*
X334075Y247231D01*
X334137Y247297D01*
X334209Y247369D01*
X334281Y247441D01*
X334347Y247514D01*
X334403Y247575D01*
X334425Y247597D01*
X334442Y247613D01*
X334447Y247624D01*
X334453Y247630D01*
X334569Y247752D01*
X334664Y247852D01*
X334752Y247935D01*
X334819Y248002D01*
X334875Y248052D01*
X334913Y248085D01*
X334941Y248107D01*
X334947Y248113D01*
X335041Y248185D01*
X335130Y248246D01*
X335213Y248296D01*
X335285Y248335D01*
X335346Y248368D01*
X335396Y248390D01*
X335424Y248401D01*
X335435Y248407D01*
X335524Y248440D01*
X335613Y248463D01*
X335696Y248479D01*
X335774Y248490D01*
X335835Y248496D01*
X335885Y248501D01*
X335918D01*
X335929D01*
X336012Y248496D01*
D02*
G37*
G36*
X337050Y245238D02*
X333076Y244289D01*
Y244833D01*
X337050Y245793D01*
Y245238D01*
D02*
G37*
G36*
X336012Y244017D02*
X336096Y244006D01*
X336173Y243995D01*
X336245Y243973D01*
X336373Y243917D01*
X336484Y243862D01*
X336534Y243828D01*
X336573Y243801D01*
X336612Y243773D01*
X336639Y243745D01*
X336662Y243723D01*
X336684Y243712D01*
X336689Y243701D01*
X336695Y243695D01*
X336751Y243634D01*
X336801Y243562D01*
X336839Y243495D01*
X336873Y243418D01*
X336928Y243273D01*
X336967Y243129D01*
X336978Y243062D01*
X336989Y243001D01*
X336995Y242946D01*
X337000Y242896D01*
X337006Y242857D01*
Y242802D01*
X337000Y242707D01*
X336995Y242618D01*
X336967Y242446D01*
X336923Y242302D01*
X336900Y242235D01*
X336873Y242174D01*
X336850Y242119D01*
X336823Y242074D01*
X336801Y242030D01*
X336784Y241997D01*
X336762Y241969D01*
X336751Y241952D01*
X336745Y241941D01*
X336739Y241936D01*
X336684Y241875D01*
X336628Y241819D01*
X336562Y241769D01*
X336490Y241725D01*
X336345Y241658D01*
X336207Y241603D01*
X336135Y241586D01*
X336073Y241569D01*
X336018Y241553D01*
X335968Y241547D01*
X335924Y241536D01*
X335896D01*
X335874Y241531D01*
X335868D01*
X335796Y242263D01*
X335907Y242274D01*
X336001Y242297D01*
X336085Y242319D01*
X336146Y242347D01*
X336195Y242369D01*
X336229Y242391D01*
X336251Y242407D01*
X336257Y242413D01*
X336301Y242469D01*
X336334Y242530D01*
X336362Y242591D01*
X336379Y242652D01*
X336390Y242702D01*
X336395Y242746D01*
Y242785D01*
X336390Y242868D01*
X336373Y242940D01*
X336351Y243001D01*
X336329Y243057D01*
X336307Y243096D01*
X336284Y243129D01*
X336268Y243146D01*
X336262Y243151D01*
X336207Y243196D01*
X336146Y243229D01*
X336085Y243251D01*
X336023Y243268D01*
X335968Y243279D01*
X335918Y243284D01*
X335890D01*
X335885D01*
X335879D01*
X335796Y243279D01*
X335718Y243262D01*
X335641Y243234D01*
X335574Y243207D01*
X335513Y243179D01*
X335469Y243151D01*
X335441Y243135D01*
X335430Y243129D01*
X335396Y243107D01*
X335357Y243074D01*
X335308Y243029D01*
X335263Y242985D01*
X335158Y242885D01*
X335052Y242785D01*
X334952Y242685D01*
X334908Y242641D01*
X334875Y242596D01*
X334841Y242563D01*
X334819Y242541D01*
X334803Y242524D01*
X334797Y242518D01*
X334692Y242407D01*
X334592Y242308D01*
X334497Y242213D01*
X334414Y242130D01*
X334331Y242052D01*
X334253Y241986D01*
X334186Y241925D01*
X334120Y241875D01*
X334064Y241830D01*
X334014Y241792D01*
X333976Y241758D01*
X333937Y241736D01*
X333914Y241714D01*
X333892Y241703D01*
X333881Y241692D01*
X333876D01*
X333748Y241619D01*
X333615Y241564D01*
X333493Y241519D01*
X333382Y241486D01*
X333282Y241464D01*
X333243Y241459D01*
X333210Y241453D01*
X333182Y241447D01*
X333160Y241442D01*
X333149D01*
X333143D01*
Y244023D01*
X333826D01*
Y242557D01*
X333898Y242602D01*
X333959Y242652D01*
X333987Y242674D01*
X334009Y242691D01*
X334020Y242702D01*
X334026Y242707D01*
X334048Y242729D01*
X334075Y242752D01*
X334137Y242818D01*
X334209Y242890D01*
X334281Y242963D01*
X334347Y243035D01*
X334403Y243096D01*
X334425Y243118D01*
X334442Y243135D01*
X334447Y243146D01*
X334453Y243151D01*
X334569Y243273D01*
X334664Y243373D01*
X334752Y243457D01*
X334819Y243523D01*
X334875Y243573D01*
X334913Y243606D01*
X334941Y243629D01*
X334947Y243634D01*
X335041Y243706D01*
X335130Y243767D01*
X335213Y243817D01*
X335285Y243856D01*
X335346Y243889D01*
X335396Y243912D01*
X335424Y243923D01*
X335435Y243928D01*
X335524Y243962D01*
X335613Y243984D01*
X335696Y244000D01*
X335774Y244011D01*
X335835Y244017D01*
X335885Y244023D01*
X335918D01*
X335929D01*
X336012Y244017D01*
D02*
G37*
G36*
X337006Y239832D02*
X336878Y239777D01*
X336762Y239705D01*
X336651Y239627D01*
X336562Y239549D01*
X336490Y239483D01*
X336434Y239422D01*
X336412Y239399D01*
X336395Y239383D01*
X336390Y239372D01*
X336384Y239366D01*
X336295Y239244D01*
X336218Y239127D01*
X336157Y239022D01*
X336112Y238928D01*
X336079Y238850D01*
X336051Y238794D01*
X336046Y238772D01*
X336040Y238756D01*
X336035Y238750D01*
Y238744D01*
X335369D01*
X335446Y238944D01*
X335529Y239122D01*
X335574Y239205D01*
X335624Y239283D01*
X335668Y239355D01*
X335713Y239422D01*
X335757Y239483D01*
X335796Y239538D01*
X335829Y239583D01*
X335862Y239621D01*
X335890Y239655D01*
X335907Y239677D01*
X335918Y239688D01*
X335924Y239694D01*
X333143D01*
Y240432D01*
X337006D01*
Y239832D01*
D02*
G37*
%LPC*%
G36*
X335202Y250716D02*
X335147D01*
X335102D01*
X335063D01*
X335041D01*
X335036D01*
X334913D01*
X334797Y250710D01*
X334692D01*
X334597Y250705D01*
X334508Y250699D01*
X334431Y250694D01*
X334359Y250683D01*
X334297Y250677D01*
X334242Y250672D01*
X334197Y250660D01*
X334159Y250655D01*
X334125Y250649D01*
X334103Y250644D01*
X334081D01*
X334075Y250638D01*
X334070D01*
X333992Y250616D01*
X333931Y250588D01*
X333876Y250560D01*
X333837Y250538D01*
X333804Y250516D01*
X333781Y250494D01*
X333770Y250483D01*
X333765Y250477D01*
X333737Y250438D01*
X333715Y250399D01*
X333704Y250361D01*
X333693Y250322D01*
X333687Y250294D01*
X333681Y250266D01*
Y250244D01*
X333687Y250194D01*
X333693Y250150D01*
X333709Y250111D01*
X333726Y250078D01*
X333737Y250050D01*
X333753Y250028D01*
X333759Y250017D01*
X333765Y250011D01*
X333804Y249978D01*
X333853Y249944D01*
X333909Y249917D01*
X333964Y249889D01*
X334014Y249872D01*
X334059Y249856D01*
X334086Y249850D01*
X334098Y249845D01*
X334153Y249833D01*
X334214Y249822D01*
X334281Y249811D01*
X334353Y249806D01*
X334508Y249795D01*
X334664Y249789D01*
X334736Y249783D01*
X334808D01*
X334869Y249778D01*
X334925D01*
X334969D01*
X335008D01*
X335030D01*
X335036D01*
X335158D01*
X335274Y249783D01*
X335374D01*
X335474Y249789D01*
X335557Y249795D01*
X335641Y249800D01*
X335707Y249806D01*
X335774Y249817D01*
X335829Y249822D01*
X335874Y249828D01*
X335912Y249833D01*
X335946Y249839D01*
X335968Y249845D01*
X335990D01*
X335996Y249850D01*
X336001D01*
X336079Y249872D01*
X336146Y249900D01*
X336195Y249922D01*
X336240Y249950D01*
X336268Y249972D01*
X336290Y249989D01*
X336301Y250000D01*
X336307Y250006D01*
X336334Y250044D01*
X336356Y250089D01*
X336373Y250128D01*
X336384Y250166D01*
X336390Y250194D01*
X336395Y250222D01*
Y250244D01*
X336390Y250294D01*
X336384Y250339D01*
X336368Y250377D01*
X336351Y250411D01*
X336334Y250438D01*
X336323Y250461D01*
X336312Y250472D01*
X336307Y250477D01*
X336268Y250511D01*
X336218Y250544D01*
X336162Y250572D01*
X336107Y250599D01*
X336051Y250616D01*
X336007Y250633D01*
X335979Y250638D01*
X335974Y250644D01*
X335968D01*
X335918Y250655D01*
X335857Y250666D01*
X335785Y250677D01*
X335713Y250688D01*
X335563Y250699D01*
X335407Y250705D01*
X335335Y250710D01*
X335263D01*
X335202Y250716D01*
D02*
G37*
%LPD*%
G36*
X430166Y259905D02*
X430344Y259887D01*
X430430Y259882D01*
X430504Y259870D01*
X430578Y259859D01*
X430641Y259847D01*
X430698Y259830D01*
X430750Y259819D01*
X430796Y259807D01*
X430830Y259802D01*
X430859Y259790D01*
X430881Y259785D01*
X430893Y259779D01*
X430899D01*
X431036Y259727D01*
X431162Y259664D01*
X431270Y259601D01*
X431362Y259539D01*
X431436Y259487D01*
X431493Y259441D01*
X431528Y259413D01*
X431539Y259407D01*
Y259401D01*
X431631Y259304D01*
X431705Y259207D01*
X431768Y259104D01*
X431819Y259012D01*
X431859Y258932D01*
X431888Y258863D01*
X431894Y258841D01*
X431900Y258823D01*
X431905Y258812D01*
Y258806D01*
X431934Y258698D01*
X431951Y258577D01*
X431968Y258452D01*
X431974Y258332D01*
X431980Y258223D01*
X431985Y258177D01*
Y256598D01*
X428027D01*
Y258097D01*
X428033Y258252D01*
X428039Y258395D01*
X428050Y258515D01*
X428067Y258612D01*
X428084Y258692D01*
X428096Y258755D01*
X428101Y258772D01*
Y258789D01*
X428107Y258795D01*
Y258801D01*
X428153Y258927D01*
X428204Y259041D01*
X428256Y259132D01*
X428307Y259212D01*
X428353Y259275D01*
X428387Y259321D01*
X428410Y259350D01*
X428422Y259361D01*
X428531Y259458D01*
X428645Y259544D01*
X428765Y259619D01*
X428874Y259676D01*
X428977Y259721D01*
X429017Y259744D01*
X429051Y259756D01*
X429085Y259767D01*
X429108Y259779D01*
X429120Y259785D01*
X429125D01*
X429263Y259824D01*
X429406Y259859D01*
X429543Y259882D01*
X429674Y259893D01*
X429737Y259899D01*
X429795Y259905D01*
X429840D01*
X429886Y259910D01*
X429920D01*
X429943D01*
X429960D01*
X429966D01*
X430166Y259905D01*
D02*
G37*
G36*
X429314Y255912D02*
X429434Y255895D01*
X429543Y255866D01*
X429634Y255838D01*
X429709Y255809D01*
X429760Y255781D01*
X429795Y255763D01*
X429806Y255758D01*
X429898Y255695D01*
X429978Y255620D01*
X430046Y255546D01*
X430103Y255477D01*
X430149Y255414D01*
X430184Y255363D01*
X430206Y255329D01*
X430212Y255323D01*
Y255317D01*
X430241Y255260D01*
X430269Y255203D01*
X430321Y255065D01*
X430367Y254923D01*
X430412Y254785D01*
X430430Y254722D01*
X430447Y254659D01*
X430464Y254602D01*
X430475Y254556D01*
X430487Y254516D01*
X430492Y254488D01*
X430498Y254465D01*
Y254459D01*
X430527Y254356D01*
X430550Y254265D01*
X430573Y254179D01*
X430595Y254099D01*
X430618Y254036D01*
X430641Y253973D01*
X430664Y253922D01*
X430681Y253876D01*
X430698Y253836D01*
X430716Y253807D01*
X430727Y253779D01*
X430738Y253761D01*
X430756Y253733D01*
X430761Y253727D01*
X430801Y253687D01*
X430841Y253658D01*
X430881Y253641D01*
X430921Y253630D01*
X430950Y253618D01*
X430979Y253613D01*
X430996D01*
X431002D01*
X431059Y253618D01*
X431105Y253630D01*
X431150Y253653D01*
X431185Y253676D01*
X431213Y253698D01*
X431230Y253721D01*
X431242Y253733D01*
X431248Y253738D01*
X431299Y253818D01*
X431333Y253904D01*
X431362Y253996D01*
X431379Y254082D01*
X431390Y254156D01*
X431396Y254219D01*
Y254276D01*
X431390Y254396D01*
X431373Y254499D01*
X431350Y254585D01*
X431328Y254654D01*
X431305Y254711D01*
X431282Y254751D01*
X431265Y254774D01*
X431259Y254780D01*
X431202Y254837D01*
X431133Y254888D01*
X431064Y254928D01*
X430990Y254957D01*
X430927Y254980D01*
X430876Y254991D01*
X430836Y255002D01*
X430830D01*
X430824D01*
X430853Y255803D01*
X430956Y255798D01*
X431047Y255781D01*
X431139Y255758D01*
X431219Y255729D01*
X431299Y255700D01*
X431373Y255666D01*
X431436Y255632D01*
X431499Y255597D01*
X431551Y255557D01*
X431596Y255523D01*
X431636Y255489D01*
X431671Y255460D01*
X431694Y255437D01*
X431711Y255420D01*
X431722Y255409D01*
X431728Y255403D01*
X431785Y255329D01*
X431837Y255248D01*
X431882Y255163D01*
X431922Y255071D01*
X431951Y254980D01*
X431980Y254888D01*
X432020Y254705D01*
X432031Y254619D01*
X432043Y254545D01*
X432048Y254471D01*
X432054Y254408D01*
X432060Y254356D01*
Y254288D01*
X432054Y254122D01*
X432037Y253973D01*
X432014Y253841D01*
X431991Y253727D01*
X431974Y253676D01*
X431962Y253630D01*
X431951Y253595D01*
X431940Y253561D01*
X431928Y253538D01*
X431922Y253521D01*
X431917Y253510D01*
Y253504D01*
X431859Y253390D01*
X431797Y253292D01*
X431728Y253206D01*
X431665Y253138D01*
X431608Y253081D01*
X431562Y253046D01*
X431528Y253018D01*
X431522Y253012D01*
X431516D01*
X431419Y252955D01*
X431316Y252915D01*
X431219Y252886D01*
X431133Y252869D01*
X431059Y252857D01*
X431002Y252846D01*
X430979D01*
X430962D01*
X430956D01*
X430950D01*
X430864Y252852D01*
X430778Y252863D01*
X430704Y252880D01*
X430630Y252903D01*
X430492Y252960D01*
X430372Y253029D01*
X430321Y253058D01*
X430281Y253092D01*
X430241Y253121D01*
X430206Y253149D01*
X430184Y253172D01*
X430166Y253189D01*
X430155Y253201D01*
X430149Y253206D01*
X430109Y253258D01*
X430069Y253321D01*
X430029Y253384D01*
X429995Y253458D01*
X429926Y253601D01*
X429869Y253750D01*
X429846Y253824D01*
X429823Y253887D01*
X429806Y253950D01*
X429789Y254001D01*
X429777Y254042D01*
X429766Y254076D01*
X429760Y254099D01*
Y254104D01*
X429737Y254196D01*
X429714Y254276D01*
X429697Y254350D01*
X429680Y254419D01*
X429663Y254476D01*
X429652Y254528D01*
X429634Y254573D01*
X429623Y254614D01*
X429617Y254648D01*
X429606Y254677D01*
X429594Y254716D01*
X429583Y254739D01*
Y254745D01*
X429554Y254819D01*
X429526Y254877D01*
X429497Y254928D01*
X429469Y254968D01*
X429446Y254997D01*
X429428Y255014D01*
X429417Y255025D01*
X429411Y255031D01*
X429371Y255060D01*
X429331Y255083D01*
X429291Y255094D01*
X429257Y255105D01*
X429223Y255111D01*
X429194Y255117D01*
X429177D01*
X429171D01*
X429091Y255111D01*
X429022Y255088D01*
X428954Y255054D01*
X428897Y255020D01*
X428851Y254980D01*
X428817Y254951D01*
X428794Y254928D01*
X428788Y254917D01*
X428736Y254837D01*
X428696Y254745D01*
X428668Y254648D01*
X428651Y254556D01*
X428639Y254471D01*
X428628Y254402D01*
Y254339D01*
X428633Y254207D01*
X428656Y254093D01*
X428685Y253996D01*
X428719Y253910D01*
X428754Y253841D01*
X428782Y253796D01*
X428805Y253767D01*
X428811Y253756D01*
X428891Y253681D01*
X428977Y253624D01*
X429074Y253573D01*
X429171Y253538D01*
X429257Y253510D01*
X429326Y253487D01*
X429348Y253481D01*
X429371D01*
X429383Y253475D01*
X429389D01*
X429314Y252697D01*
X429194Y252714D01*
X429080Y252737D01*
X428971Y252772D01*
X428874Y252800D01*
X428782Y252840D01*
X428696Y252880D01*
X428622Y252921D01*
X428553Y252960D01*
X428496Y253000D01*
X428445Y253041D01*
X428399Y253075D01*
X428359Y253109D01*
X428330Y253132D01*
X428313Y253155D01*
X428302Y253166D01*
X428296Y253172D01*
X428233Y253252D01*
X428182Y253338D01*
X428136Y253430D01*
X428096Y253527D01*
X428067Y253618D01*
X428039Y253715D01*
X427998Y253904D01*
X427981Y253990D01*
X427970Y254070D01*
X427964Y254139D01*
X427958Y254202D01*
X427953Y254253D01*
Y254328D01*
X427958Y254511D01*
X427976Y254677D01*
X427998Y254825D01*
X428010Y254888D01*
X428027Y254951D01*
X428039Y255002D01*
X428050Y255048D01*
X428061Y255088D01*
X428073Y255123D01*
X428084Y255151D01*
X428090Y255168D01*
X428096Y255180D01*
Y255186D01*
X428159Y255311D01*
X428227Y255414D01*
X428296Y255512D01*
X428370Y255586D01*
X428433Y255643D01*
X428490Y255689D01*
X428525Y255712D01*
X428531Y255723D01*
X428536D01*
X428651Y255786D01*
X428759Y255838D01*
X428868Y255872D01*
X428971Y255895D01*
X429051Y255906D01*
X429091Y255912D01*
X429120Y255918D01*
X429143D01*
X429160D01*
X429171D01*
X429177D01*
X429314Y255912D01*
D02*
G37*
G36*
X428788Y251359D02*
X428027D01*
Y252120D01*
X428788D01*
Y251359D01*
D02*
G37*
G36*
X432008Y249443D02*
X431877Y249385D01*
X431757Y249311D01*
X431642Y249231D01*
X431551Y249151D01*
X431476Y249082D01*
X431419Y249019D01*
X431396Y248996D01*
X431379Y248979D01*
X431373Y248968D01*
X431368Y248962D01*
X431276Y248836D01*
X431196Y248716D01*
X431133Y248608D01*
X431087Y248510D01*
X431053Y248430D01*
X431024Y248373D01*
X431019Y248350D01*
X431013Y248333D01*
X431007Y248327D01*
Y248322D01*
X430321D01*
X430401Y248528D01*
X430487Y248710D01*
X430533Y248796D01*
X430584Y248876D01*
X430630Y248951D01*
X430676Y249019D01*
X430721Y249082D01*
X430761Y249139D01*
X430796Y249185D01*
X430830Y249225D01*
X430859Y249260D01*
X430876Y249283D01*
X430887Y249294D01*
X430893Y249300D01*
X428027D01*
Y250061D01*
X432008D01*
Y249443D01*
D02*
G37*
G36*
X430984Y247601D02*
X431070Y247589D01*
X431150Y247578D01*
X431225Y247555D01*
X431356Y247498D01*
X431471Y247441D01*
X431522Y247406D01*
X431562Y247378D01*
X431602Y247349D01*
X431631Y247321D01*
X431654Y247298D01*
X431676Y247286D01*
X431682Y247275D01*
X431688Y247269D01*
X431745Y247206D01*
X431797Y247132D01*
X431837Y247063D01*
X431871Y246983D01*
X431928Y246834D01*
X431968Y246686D01*
X431980Y246617D01*
X431991Y246554D01*
X431997Y246497D01*
X432002Y246445D01*
X432008Y246405D01*
Y246348D01*
X432002Y246251D01*
X431997Y246159D01*
X431968Y245982D01*
X431922Y245833D01*
X431900Y245765D01*
X431871Y245702D01*
X431848Y245645D01*
X431819Y245599D01*
X431797Y245553D01*
X431779Y245519D01*
X431757Y245490D01*
X431745Y245473D01*
X431739Y245462D01*
X431734Y245456D01*
X431676Y245393D01*
X431619Y245336D01*
X431551Y245284D01*
X431476Y245238D01*
X431328Y245170D01*
X431185Y245113D01*
X431110Y245095D01*
X431047Y245078D01*
X430990Y245061D01*
X430939Y245056D01*
X430893Y245044D01*
X430864D01*
X430841Y245038D01*
X430836D01*
X430761Y245793D01*
X430876Y245805D01*
X430973Y245828D01*
X431059Y245850D01*
X431122Y245879D01*
X431173Y245902D01*
X431207Y245925D01*
X431230Y245942D01*
X431236Y245948D01*
X431282Y246005D01*
X431316Y246068D01*
X431345Y246131D01*
X431362Y246194D01*
X431373Y246245D01*
X431379Y246291D01*
Y246331D01*
X431373Y246417D01*
X431356Y246491D01*
X431333Y246554D01*
X431310Y246611D01*
X431287Y246651D01*
X431265Y246686D01*
X431248Y246703D01*
X431242Y246708D01*
X431185Y246754D01*
X431122Y246789D01*
X431059Y246812D01*
X430996Y246829D01*
X430939Y246840D01*
X430887Y246846D01*
X430859D01*
X430853D01*
X430847D01*
X430761Y246840D01*
X430681Y246823D01*
X430601Y246794D01*
X430533Y246766D01*
X430470Y246737D01*
X430424Y246708D01*
X430395Y246691D01*
X430384Y246686D01*
X430349Y246663D01*
X430309Y246628D01*
X430258Y246583D01*
X430212Y246537D01*
X430103Y246434D01*
X429995Y246331D01*
X429892Y246228D01*
X429846Y246182D01*
X429812Y246136D01*
X429777Y246102D01*
X429755Y246079D01*
X429737Y246062D01*
X429732Y246057D01*
X429623Y245942D01*
X429520Y245839D01*
X429423Y245742D01*
X429337Y245656D01*
X429251Y245576D01*
X429171Y245507D01*
X429103Y245444D01*
X429034Y245393D01*
X428977Y245347D01*
X428925Y245307D01*
X428885Y245273D01*
X428845Y245250D01*
X428822Y245227D01*
X428799Y245216D01*
X428788Y245204D01*
X428782D01*
X428651Y245130D01*
X428513Y245073D01*
X428387Y245027D01*
X428273Y244992D01*
X428170Y244970D01*
X428130Y244964D01*
X428096Y244958D01*
X428067Y244953D01*
X428044Y244947D01*
X428033D01*
X428027D01*
Y247607D01*
X428731D01*
Y246096D01*
X428805Y246142D01*
X428868Y246194D01*
X428897Y246217D01*
X428919Y246234D01*
X428931Y246245D01*
X428937Y246251D01*
X428960Y246274D01*
X428988Y246297D01*
X429051Y246365D01*
X429125Y246440D01*
X429200Y246514D01*
X429268Y246588D01*
X429326Y246651D01*
X429348Y246674D01*
X429366Y246691D01*
X429371Y246703D01*
X429377Y246708D01*
X429497Y246834D01*
X429594Y246937D01*
X429686Y247023D01*
X429755Y247092D01*
X429812Y247143D01*
X429852Y247178D01*
X429880Y247200D01*
X429886Y247206D01*
X429983Y247281D01*
X430075Y247343D01*
X430161Y247395D01*
X430235Y247435D01*
X430298Y247469D01*
X430349Y247492D01*
X430378Y247504D01*
X430389Y247509D01*
X430481Y247544D01*
X430573Y247567D01*
X430658Y247584D01*
X430738Y247595D01*
X430801Y247601D01*
X430853Y247607D01*
X430887D01*
X430899D01*
X430984Y247601D01*
D02*
G37*
G36*
X428788Y243666D02*
X428027D01*
Y244426D01*
X428788D01*
Y243666D01*
D02*
G37*
G36*
X430184Y242990D02*
X430372Y242979D01*
X430544Y242962D01*
X430704Y242933D01*
X430853Y242905D01*
X430984Y242876D01*
X431105Y242836D01*
X431207Y242802D01*
X431305Y242768D01*
X431379Y242733D01*
X431448Y242699D01*
X431505Y242670D01*
X431545Y242642D01*
X431573Y242624D01*
X431591Y242613D01*
X431596Y242607D01*
X431671Y242544D01*
X431734Y242476D01*
X431785Y242401D01*
X431837Y242327D01*
X431877Y242253D01*
X431905Y242178D01*
X431934Y242110D01*
X431957Y242035D01*
X431974Y241967D01*
X431985Y241910D01*
X431997Y241852D01*
X432002Y241807D01*
X432008Y241767D01*
Y241709D01*
X432002Y241606D01*
X431991Y241509D01*
X431968Y241412D01*
X431945Y241326D01*
X431911Y241246D01*
X431877Y241172D01*
X431842Y241109D01*
X431802Y241046D01*
X431762Y240994D01*
X431728Y240943D01*
X431694Y240903D01*
X431659Y240874D01*
X431636Y240845D01*
X431614Y240828D01*
X431602Y240817D01*
X431596Y240811D01*
X431499Y240743D01*
X431385Y240685D01*
X431265Y240634D01*
X431139Y240588D01*
X431007Y240554D01*
X430870Y240519D01*
X430738Y240497D01*
X430607Y240474D01*
X430481Y240462D01*
X430367Y240451D01*
X430258Y240439D01*
X430166Y240434D01*
X430092Y240428D01*
X430035D01*
X430012D01*
X429995D01*
X429989D01*
X429983D01*
X429777Y240434D01*
X429589Y240445D01*
X429411Y240462D01*
X429251Y240485D01*
X429108Y240508D01*
X428977Y240537D01*
X428862Y240571D01*
X428759Y240605D01*
X428674Y240634D01*
X428593Y240668D01*
X428531Y240697D01*
X428479Y240725D01*
X428445Y240743D01*
X428416Y240760D01*
X428399Y240771D01*
X428393Y240777D01*
X428313Y240845D01*
X428250Y240920D01*
X428187Y240994D01*
X428141Y241074D01*
X428096Y241149D01*
X428061Y241229D01*
X428033Y241303D01*
X428010Y241377D01*
X427987Y241446D01*
X427976Y241509D01*
X427964Y241566D01*
X427958Y241612D01*
Y241652D01*
X427953Y241686D01*
Y241709D01*
X427958Y241812D01*
X427970Y241910D01*
X427993Y242007D01*
X428016Y242092D01*
X428044Y242173D01*
X428079Y242247D01*
X428119Y242310D01*
X428159Y242373D01*
X428193Y242424D01*
X428233Y242476D01*
X428267Y242516D01*
X428296Y242550D01*
X428319Y242573D01*
X428342Y242590D01*
X428353Y242602D01*
X428359Y242607D01*
X428456Y242676D01*
X428571Y242733D01*
X428691Y242790D01*
X428822Y242830D01*
X428954Y242870D01*
X429085Y242899D01*
X429223Y242928D01*
X429354Y242951D01*
X429480Y242962D01*
X429594Y242973D01*
X429703Y242985D01*
X429795Y242990D01*
X429869Y242996D01*
X429926D01*
X429949D01*
X429966D01*
X429972D01*
X429978D01*
X430184Y242990D01*
D02*
G37*
G36*
X428788Y239050D02*
X428027D01*
Y239810D01*
X428788D01*
Y239050D01*
D02*
G37*
G36*
X430984Y238369D02*
X431070Y238357D01*
X431150Y238346D01*
X431225Y238323D01*
X431356Y238266D01*
X431471Y238209D01*
X431522Y238174D01*
X431562Y238146D01*
X431602Y238117D01*
X431631Y238088D01*
X431654Y238066D01*
X431676Y238054D01*
X431682Y238043D01*
X431688Y238037D01*
X431745Y237974D01*
X431797Y237900D01*
X431837Y237831D01*
X431871Y237751D01*
X431928Y237602D01*
X431968Y237454D01*
X431980Y237385D01*
X431991Y237322D01*
X431997Y237265D01*
X432002Y237213D01*
X432008Y237173D01*
Y237116D01*
X432002Y237019D01*
X431997Y236927D01*
X431968Y236750D01*
X431922Y236601D01*
X431900Y236533D01*
X431871Y236470D01*
X431848Y236413D01*
X431819Y236367D01*
X431797Y236321D01*
X431779Y236287D01*
X431757Y236258D01*
X431745Y236241D01*
X431739Y236229D01*
X431734Y236224D01*
X431676Y236161D01*
X431619Y236104D01*
X431551Y236052D01*
X431476Y236006D01*
X431328Y235938D01*
X431185Y235881D01*
X431110Y235863D01*
X431047Y235846D01*
X430990Y235829D01*
X430939Y235823D01*
X430893Y235812D01*
X430864D01*
X430841Y235806D01*
X430836D01*
X430761Y236561D01*
X430876Y236573D01*
X430973Y236596D01*
X431059Y236618D01*
X431122Y236647D01*
X431173Y236670D01*
X431207Y236693D01*
X431230Y236710D01*
X431236Y236716D01*
X431282Y236773D01*
X431316Y236836D01*
X431345Y236899D01*
X431362Y236962D01*
X431373Y237013D01*
X431379Y237059D01*
Y237099D01*
X431373Y237185D01*
X431356Y237259D01*
X431333Y237322D01*
X431310Y237379D01*
X431287Y237419D01*
X431265Y237454D01*
X431248Y237471D01*
X431242Y237476D01*
X431185Y237522D01*
X431122Y237557D01*
X431059Y237579D01*
X430996Y237597D01*
X430939Y237608D01*
X430887Y237614D01*
X430859D01*
X430853D01*
X430847D01*
X430761Y237608D01*
X430681Y237591D01*
X430601Y237562D01*
X430533Y237534D01*
X430470Y237505D01*
X430424Y237476D01*
X430395Y237459D01*
X430384Y237454D01*
X430349Y237431D01*
X430309Y237396D01*
X430258Y237351D01*
X430212Y237305D01*
X430103Y237202D01*
X429995Y237099D01*
X429892Y236996D01*
X429846Y236950D01*
X429812Y236905D01*
X429777Y236870D01*
X429755Y236847D01*
X429737Y236830D01*
X429732Y236824D01*
X429623Y236710D01*
X429520Y236607D01*
X429423Y236510D01*
X429337Y236424D01*
X429251Y236344D01*
X429171Y236275D01*
X429103Y236212D01*
X429034Y236161D01*
X428977Y236115D01*
X428925Y236075D01*
X428885Y236041D01*
X428845Y236018D01*
X428822Y235995D01*
X428799Y235983D01*
X428788Y235972D01*
X428782D01*
X428651Y235898D01*
X428513Y235841D01*
X428387Y235795D01*
X428273Y235760D01*
X428170Y235738D01*
X428130Y235732D01*
X428096Y235726D01*
X428067Y235720D01*
X428044Y235715D01*
X428033D01*
X428027D01*
Y238374D01*
X428731D01*
Y236864D01*
X428805Y236910D01*
X428868Y236962D01*
X428897Y236984D01*
X428919Y237002D01*
X428931Y237013D01*
X428937Y237019D01*
X428960Y237042D01*
X428988Y237065D01*
X429051Y237133D01*
X429125Y237208D01*
X429200Y237282D01*
X429268Y237356D01*
X429326Y237419D01*
X429348Y237442D01*
X429366Y237459D01*
X429371Y237471D01*
X429377Y237476D01*
X429497Y237602D01*
X429594Y237705D01*
X429686Y237791D01*
X429755Y237860D01*
X429812Y237911D01*
X429852Y237946D01*
X429880Y237968D01*
X429886Y237974D01*
X429983Y238049D01*
X430075Y238111D01*
X430161Y238163D01*
X430235Y238203D01*
X430298Y238237D01*
X430349Y238260D01*
X430378Y238271D01*
X430389Y238277D01*
X430481Y238312D01*
X430573Y238334D01*
X430658Y238352D01*
X430738Y238363D01*
X430801Y238369D01*
X430853Y238374D01*
X430887D01*
X430899D01*
X430984Y238369D01*
D02*
G37*
G36*
X431985Y234725D02*
X429057Y233758D01*
X431985Y232752D01*
Y231888D01*
X428027Y233307D01*
Y234170D01*
X431985Y235577D01*
Y234725D01*
D02*
G37*
G36*
X429846Y230355D02*
X429085D01*
Y231848D01*
X429846D01*
Y230355D01*
D02*
G37*
G36*
X431934Y227203D02*
X431230D01*
Y228925D01*
X430973Y228736D01*
X430704Y228570D01*
X430578Y228490D01*
X430447Y228422D01*
X430327Y228359D01*
X430212Y228302D01*
X430103Y228250D01*
X430006Y228204D01*
X429915Y228164D01*
X429840Y228130D01*
X429783Y228107D01*
X429737Y228090D01*
X429709Y228079D01*
X429697Y228073D01*
X429537Y228016D01*
X429383Y227964D01*
X429228Y227924D01*
X429080Y227884D01*
X428931Y227855D01*
X428794Y227827D01*
X428662Y227804D01*
X428542Y227787D01*
X428433Y227770D01*
X428330Y227758D01*
X428244Y227747D01*
X428170Y227741D01*
X428107D01*
X428061Y227735D01*
X428039D01*
X428027D01*
Y228467D01*
X428227Y228473D01*
X428433Y228490D01*
X428633Y228519D01*
X428725Y228530D01*
X428817Y228548D01*
X428897Y228565D01*
X428977Y228582D01*
X429040Y228593D01*
X429097Y228605D01*
X429148Y228616D01*
X429183Y228628D01*
X429205Y228633D01*
X429211D01*
X429457Y228708D01*
X429692Y228788D01*
X429800Y228828D01*
X429903Y228874D01*
X430000Y228914D01*
X430092Y228954D01*
X430172Y228994D01*
X430246Y229028D01*
X430315Y229062D01*
X430367Y229085D01*
X430412Y229108D01*
X430441Y229125D01*
X430464Y229137D01*
X430470Y229142D01*
X430578Y229205D01*
X430681Y229268D01*
X430773Y229326D01*
X430864Y229383D01*
X430944Y229440D01*
X431019Y229497D01*
X431087Y229549D01*
X431150Y229594D01*
X431207Y229640D01*
X431253Y229680D01*
X431293Y229714D01*
X431328Y229743D01*
X431350Y229766D01*
X431368Y229783D01*
X431379Y229795D01*
X431385Y229800D01*
X431934D01*
Y227203D01*
D02*
G37*
G36*
X432008Y225447D02*
X431877Y225390D01*
X431757Y225316D01*
X431642Y225236D01*
X431551Y225156D01*
X431476Y225087D01*
X431419Y225024D01*
X431396Y225001D01*
X431379Y224984D01*
X431373Y224973D01*
X431368Y224967D01*
X431276Y224841D01*
X431196Y224721D01*
X431133Y224612D01*
X431087Y224515D01*
X431053Y224435D01*
X431024Y224378D01*
X431019Y224355D01*
X431013Y224338D01*
X431007Y224332D01*
Y224326D01*
X430321D01*
X430401Y224532D01*
X430487Y224715D01*
X430533Y224801D01*
X430584Y224881D01*
X430630Y224955D01*
X430676Y225024D01*
X430721Y225087D01*
X430761Y225144D01*
X430796Y225190D01*
X430830Y225230D01*
X430859Y225264D01*
X430876Y225287D01*
X430887Y225299D01*
X430893Y225304D01*
X428027D01*
Y226065D01*
X432008D01*
Y225447D01*
D02*
G37*
G36*
X429463Y223720D02*
X429566Y223708D01*
X429663Y223691D01*
X429755Y223668D01*
X429835Y223645D01*
X429915Y223611D01*
X429989Y223583D01*
X430052Y223548D01*
X430109Y223514D01*
X430161Y223485D01*
X430206Y223451D01*
X430241Y223428D01*
X430269Y223405D01*
X430292Y223388D01*
X430304Y223377D01*
X430309Y223371D01*
X430372Y223302D01*
X430430Y223234D01*
X430481Y223159D01*
X430527Y223085D01*
X430561Y223016D01*
X430590Y222942D01*
X430635Y222810D01*
X430653Y222747D01*
X430664Y222690D01*
X430670Y222639D01*
X430676Y222599D01*
X430681Y222564D01*
Y222513D01*
X430676Y222416D01*
X430658Y222319D01*
X430641Y222233D01*
X430618Y222153D01*
X430590Y222090D01*
X430573Y222038D01*
X430555Y222004D01*
X430550Y221998D01*
Y221992D01*
X431225Y222112D01*
Y223548D01*
X431934D01*
Y221540D01*
X429869Y221152D01*
X429783Y221764D01*
X429835Y221815D01*
X429880Y221867D01*
X429920Y221918D01*
X429955Y221970D01*
X430006Y222067D01*
X430041Y222158D01*
X430058Y222238D01*
X430069Y222296D01*
X430075Y222319D01*
Y222353D01*
X430069Y222444D01*
X430046Y222530D01*
X430018Y222604D01*
X429983Y222667D01*
X429943Y222713D01*
X429915Y222753D01*
X429892Y222776D01*
X429886Y222782D01*
X429812Y222839D01*
X429726Y222879D01*
X429634Y222908D01*
X429543Y222925D01*
X429463Y222942D01*
X429400Y222948D01*
X429371D01*
X429354D01*
X429343D01*
X429337D01*
X429200Y222942D01*
X429080Y222925D01*
X428982Y222896D01*
X428902Y222868D01*
X428834Y222833D01*
X428788Y222810D01*
X428765Y222787D01*
X428754Y222782D01*
X428691Y222719D01*
X428639Y222650D01*
X428605Y222582D01*
X428582Y222519D01*
X428571Y222462D01*
X428565Y222416D01*
X428559Y222387D01*
Y222376D01*
X428565Y222301D01*
X428582Y222227D01*
X428605Y222164D01*
X428633Y222112D01*
X428662Y222067D01*
X428685Y222032D01*
X428702Y222010D01*
X428708Y222004D01*
X428771Y221952D01*
X428834Y221907D01*
X428902Y221872D01*
X428965Y221849D01*
X429022Y221832D01*
X429074Y221821D01*
X429103Y221815D01*
X429114D01*
X429034Y221060D01*
X428942Y221077D01*
X428857Y221094D01*
X428702Y221152D01*
X428565Y221215D01*
X428508Y221249D01*
X428450Y221289D01*
X428405Y221323D01*
X428365Y221352D01*
X428330Y221386D01*
X428296Y221409D01*
X428273Y221432D01*
X428256Y221449D01*
X428250Y221461D01*
X428244Y221466D01*
X428193Y221535D01*
X428147Y221603D01*
X428107Y221678D01*
X428079Y221752D01*
X428021Y221907D01*
X427987Y222044D01*
X427976Y222112D01*
X427970Y222170D01*
X427964Y222227D01*
X427958Y222273D01*
X427953Y222313D01*
Y222364D01*
X427958Y222490D01*
X427976Y222610D01*
X427998Y222719D01*
X428033Y222822D01*
X428073Y222919D01*
X428119Y223005D01*
X428164Y223085D01*
X428216Y223159D01*
X428262Y223222D01*
X428307Y223279D01*
X428353Y223331D01*
X428393Y223371D01*
X428428Y223399D01*
X428450Y223422D01*
X428468Y223434D01*
X428473Y223440D01*
X428548Y223491D01*
X428622Y223537D01*
X428696Y223571D01*
X428776Y223605D01*
X428925Y223657D01*
X429062Y223691D01*
X429120Y223703D01*
X429177Y223708D01*
X429228Y223720D01*
X429274D01*
X429308Y223726D01*
X429331D01*
X429348D01*
X429354D01*
X429463Y223720D01*
D02*
G37*
G36*
X430984Y220528D02*
X431070Y220517D01*
X431150Y220505D01*
X431225Y220482D01*
X431356Y220425D01*
X431471Y220368D01*
X431522Y220334D01*
X431562Y220305D01*
X431602Y220276D01*
X431631Y220248D01*
X431654Y220225D01*
X431676Y220214D01*
X431682Y220202D01*
X431688Y220196D01*
X431745Y220133D01*
X431797Y220059D01*
X431837Y219990D01*
X431871Y219910D01*
X431928Y219762D01*
X431968Y219613D01*
X431980Y219544D01*
X431991Y219481D01*
X431997Y219424D01*
X432002Y219373D01*
X432008Y219333D01*
Y219275D01*
X432002Y219178D01*
X431997Y219087D01*
X431968Y218909D01*
X431922Y218761D01*
X431900Y218692D01*
X431871Y218629D01*
X431848Y218572D01*
X431819Y218526D01*
X431797Y218480D01*
X431779Y218446D01*
X431757Y218417D01*
X431745Y218400D01*
X431739Y218389D01*
X431734Y218383D01*
X431676Y218320D01*
X431619Y218263D01*
X431551Y218212D01*
X431476Y218166D01*
X431328Y218097D01*
X431185Y218040D01*
X431110Y218023D01*
X431047Y218006D01*
X430990Y217988D01*
X430939Y217983D01*
X430893Y217971D01*
X430864D01*
X430841Y217966D01*
X430836D01*
X430761Y218721D01*
X430876Y218732D01*
X430973Y218755D01*
X431059Y218778D01*
X431122Y218806D01*
X431173Y218829D01*
X431207Y218852D01*
X431230Y218869D01*
X431236Y218875D01*
X431282Y218932D01*
X431316Y218995D01*
X431345Y219058D01*
X431362Y219121D01*
X431373Y219173D01*
X431379Y219218D01*
Y219258D01*
X431373Y219344D01*
X431356Y219418D01*
X431333Y219481D01*
X431310Y219538D01*
X431287Y219579D01*
X431265Y219613D01*
X431248Y219630D01*
X431242Y219636D01*
X431185Y219682D01*
X431122Y219716D01*
X431059Y219739D01*
X430996Y219756D01*
X430939Y219767D01*
X430887Y219773D01*
X430859D01*
X430853D01*
X430847D01*
X430761Y219767D01*
X430681Y219750D01*
X430601Y219722D01*
X430533Y219693D01*
X430470Y219664D01*
X430424Y219636D01*
X430395Y219619D01*
X430384Y219613D01*
X430349Y219590D01*
X430309Y219556D01*
X430258Y219510D01*
X430212Y219464D01*
X430103Y219361D01*
X429995Y219258D01*
X429892Y219155D01*
X429846Y219110D01*
X429812Y219064D01*
X429777Y219029D01*
X429755Y219007D01*
X429737Y218989D01*
X429732Y218984D01*
X429623Y218869D01*
X429520Y218766D01*
X429423Y218669D01*
X429337Y218583D01*
X429251Y218503D01*
X429171Y218435D01*
X429103Y218372D01*
X429034Y218320D01*
X428977Y218274D01*
X428925Y218234D01*
X428885Y218200D01*
X428845Y218177D01*
X428822Y218154D01*
X428799Y218143D01*
X428788Y218131D01*
X428782D01*
X428651Y218057D01*
X428513Y218000D01*
X428387Y217954D01*
X428273Y217920D01*
X428170Y217897D01*
X428130Y217891D01*
X428096Y217885D01*
X428067Y217880D01*
X428044Y217874D01*
X428033D01*
X428027D01*
Y220534D01*
X428731D01*
Y219024D01*
X428805Y219070D01*
X428868Y219121D01*
X428897Y219144D01*
X428919Y219161D01*
X428931Y219173D01*
X428937Y219178D01*
X428960Y219201D01*
X428988Y219224D01*
X429051Y219293D01*
X429125Y219367D01*
X429200Y219441D01*
X429268Y219516D01*
X429326Y219579D01*
X429348Y219601D01*
X429366Y219619D01*
X429371Y219630D01*
X429377Y219636D01*
X429497Y219762D01*
X429594Y219865D01*
X429686Y219950D01*
X429755Y220019D01*
X429812Y220071D01*
X429852Y220105D01*
X429880Y220128D01*
X429886Y220133D01*
X429983Y220208D01*
X430075Y220271D01*
X430161Y220322D01*
X430235Y220362D01*
X430298Y220396D01*
X430349Y220419D01*
X430378Y220431D01*
X430389Y220437D01*
X430481Y220471D01*
X430573Y220494D01*
X430658Y220511D01*
X430738Y220522D01*
X430801Y220528D01*
X430853Y220534D01*
X430887D01*
X430899D01*
X430984Y220528D01*
D02*
G37*
%LPC*%
G36*
X430115Y259087D02*
X430075D01*
X430046D01*
X430023D01*
X430006D01*
X430000D01*
X429840Y259081D01*
X429692Y259075D01*
X429571Y259058D01*
X429469Y259047D01*
X429383Y259029D01*
X429348Y259024D01*
X429326Y259012D01*
X429303Y259007D01*
X429285D01*
X429280Y259001D01*
X429274D01*
X429183Y258966D01*
X429103Y258938D01*
X429040Y258898D01*
X428988Y258869D01*
X428948Y258841D01*
X428919Y258818D01*
X428902Y258801D01*
X428897Y258795D01*
X428857Y258743D01*
X428822Y258692D01*
X428794Y258641D01*
X428771Y258589D01*
X428754Y258543D01*
X428742Y258509D01*
X428731Y258486D01*
Y258475D01*
X428719Y258412D01*
X428714Y258337D01*
X428702Y258257D01*
Y258177D01*
X428696Y258103D01*
Y257399D01*
X431316D01*
Y257920D01*
X431310Y257994D01*
Y258063D01*
X431305Y258120D01*
Y258171D01*
X431299Y258223D01*
Y258263D01*
X431287Y258326D01*
X431282Y258372D01*
X431276Y258400D01*
Y258406D01*
X431253Y258486D01*
X431225Y258555D01*
X431196Y258618D01*
X431162Y258675D01*
X431133Y258715D01*
X431110Y258749D01*
X431093Y258766D01*
X431087Y258772D01*
X431030Y258823D01*
X430967Y258869D01*
X430904Y258909D01*
X430847Y258944D01*
X430790Y258966D01*
X430744Y258984D01*
X430716Y258995D01*
X430710Y259001D01*
X430704D01*
X430601Y259029D01*
X430492Y259052D01*
X430372Y259064D01*
X430258Y259075D01*
X430161Y259081D01*
X430115Y259087D01*
D02*
G37*
G36*
X430149Y242196D02*
X430092D01*
X430046D01*
X430006D01*
X429983D01*
X429978D01*
X429852D01*
X429732Y242190D01*
X429623D01*
X429526Y242184D01*
X429434Y242178D01*
X429354Y242173D01*
X429280Y242161D01*
X429217Y242155D01*
X429160Y242150D01*
X429114Y242138D01*
X429074Y242132D01*
X429040Y242127D01*
X429017Y242121D01*
X428994D01*
X428988Y242115D01*
X428982D01*
X428902Y242092D01*
X428839Y242064D01*
X428782Y242035D01*
X428742Y242012D01*
X428708Y241989D01*
X428685Y241967D01*
X428674Y241955D01*
X428668Y241950D01*
X428639Y241910D01*
X428616Y241869D01*
X428605Y241829D01*
X428593Y241789D01*
X428588Y241761D01*
X428582Y241732D01*
Y241709D01*
X428588Y241658D01*
X428593Y241612D01*
X428611Y241572D01*
X428628Y241538D01*
X428639Y241509D01*
X428656Y241486D01*
X428662Y241475D01*
X428668Y241469D01*
X428708Y241435D01*
X428759Y241400D01*
X428817Y241372D01*
X428874Y241343D01*
X428925Y241326D01*
X428971Y241309D01*
X429000Y241303D01*
X429011Y241297D01*
X429068Y241286D01*
X429131Y241274D01*
X429200Y241263D01*
X429274Y241257D01*
X429434Y241246D01*
X429594Y241240D01*
X429669Y241234D01*
X429743D01*
X429806Y241229D01*
X429863D01*
X429909D01*
X429949D01*
X429972D01*
X429978D01*
X430103D01*
X430224Y241234D01*
X430327D01*
X430430Y241240D01*
X430515Y241246D01*
X430601Y241252D01*
X430670Y241257D01*
X430738Y241269D01*
X430796Y241274D01*
X430841Y241280D01*
X430881Y241286D01*
X430916Y241292D01*
X430939Y241297D01*
X430962D01*
X430967Y241303D01*
X430973D01*
X431053Y241326D01*
X431122Y241355D01*
X431173Y241377D01*
X431219Y241406D01*
X431248Y241429D01*
X431270Y241446D01*
X431282Y241458D01*
X431287Y241463D01*
X431316Y241503D01*
X431339Y241549D01*
X431356Y241589D01*
X431368Y241629D01*
X431373Y241658D01*
X431379Y241686D01*
Y241709D01*
X431373Y241761D01*
X431368Y241807D01*
X431350Y241846D01*
X431333Y241881D01*
X431316Y241910D01*
X431305Y241932D01*
X431293Y241944D01*
X431287Y241950D01*
X431248Y241984D01*
X431196Y242018D01*
X431139Y242047D01*
X431082Y242075D01*
X431024Y242092D01*
X430979Y242110D01*
X430950Y242115D01*
X430944Y242121D01*
X430939D01*
X430887Y242132D01*
X430824Y242144D01*
X430750Y242155D01*
X430676Y242167D01*
X430521Y242178D01*
X430361Y242184D01*
X430287Y242190D01*
X430212D01*
X430149Y242196D01*
D02*
G37*
%LPD*%
G36*
X423112Y257890D02*
X424082D01*
Y259680D01*
X424685D01*
Y257890D01*
X425475D01*
Y259815D01*
X426079D01*
Y257167D01*
X422508D01*
Y259882D01*
X423112D01*
Y257890D01*
D02*
G37*
G36*
X424685Y255372D02*
X426079Y256724D01*
Y255754D01*
X424489Y254288D01*
X426079D01*
Y253566D01*
X422508D01*
Y254288D01*
X423587D01*
X424185Y254871D01*
X422508Y255857D01*
Y256791D01*
X424685Y255372D01*
D02*
G37*
G36*
X423819Y252240D02*
X423679Y252198D01*
X423561Y252152D01*
X423463Y252105D01*
X423380Y252054D01*
X423318Y252013D01*
X423277Y251976D01*
X423251Y251951D01*
X423241Y251940D01*
X423179Y251858D01*
X423138Y251775D01*
X423107Y251693D01*
X423081Y251620D01*
X423070Y251553D01*
X423065Y251497D01*
X423060Y251476D01*
Y251450D01*
X423065Y251378D01*
X423070Y251311D01*
X423107Y251187D01*
X423148Y251079D01*
X423205Y250991D01*
X423256Y250919D01*
X423298Y250867D01*
X423318Y250846D01*
X423334Y250831D01*
X423339Y250826D01*
X423344Y250821D01*
X423401Y250779D01*
X423468Y250743D01*
X423540Y250707D01*
X423617Y250681D01*
X423777Y250640D01*
X423937Y250609D01*
X424015Y250599D01*
X424082Y250594D01*
X424149Y250583D01*
X424206D01*
X424247Y250578D01*
X424283D01*
X424309D01*
X424314D01*
X424433Y250583D01*
X424541Y250588D01*
X424639Y250599D01*
X424732Y250614D01*
X424815Y250635D01*
X424892Y250656D01*
X424959Y250676D01*
X425021Y250702D01*
X425072Y250723D01*
X425119Y250743D01*
X425155Y250764D01*
X425186Y250784D01*
X425212Y250800D01*
X425227Y250810D01*
X425238Y250821D01*
X425243D01*
X425294Y250867D01*
X425341Y250919D01*
X425377Y250970D01*
X425408Y251027D01*
X425459Y251135D01*
X425496Y251239D01*
X425516Y251326D01*
X425522Y251368D01*
X425527Y251398D01*
X425532Y251430D01*
Y251466D01*
X425527Y251569D01*
X425506Y251662D01*
X425480Y251744D01*
X425449Y251817D01*
X425418Y251873D01*
X425392Y251915D01*
X425372Y251940D01*
X425367Y251951D01*
X425305Y252018D01*
X425233Y252080D01*
X425160Y252126D01*
X425088Y252162D01*
X425026Y252188D01*
X424980Y252203D01*
X424959Y252214D01*
X424943D01*
X424938Y252219D01*
X424933D01*
X425104Y252931D01*
X425253Y252880D01*
X425382Y252823D01*
X425496Y252761D01*
X425589Y252704D01*
X425661Y252647D01*
X425692Y252627D01*
X425717Y252606D01*
X425733Y252590D01*
X425748Y252575D01*
X425759Y252570D01*
Y252565D01*
X425826Y252487D01*
X425888Y252400D01*
X425939Y252317D01*
X425981Y252229D01*
X426022Y252136D01*
X426053Y252049D01*
X426079Y251961D01*
X426099Y251878D01*
X426115Y251801D01*
X426125Y251729D01*
X426135Y251667D01*
X426141Y251610D01*
X426146Y251564D01*
Y251502D01*
X426141Y251368D01*
X426125Y251233D01*
X426099Y251115D01*
X426068Y250996D01*
X426032Y250893D01*
X425991Y250790D01*
X425945Y250702D01*
X425898Y250619D01*
X425852Y250542D01*
X425805Y250480D01*
X425764Y250423D01*
X425728Y250377D01*
X425697Y250341D01*
X425671Y250315D01*
X425656Y250300D01*
X425651Y250294D01*
X425552Y250212D01*
X425449Y250145D01*
X425341Y250083D01*
X425227Y250031D01*
X425109Y249985D01*
X424995Y249949D01*
X424882Y249918D01*
X424773Y249892D01*
X424665Y249871D01*
X424572Y249861D01*
X424484Y249851D01*
X424412Y249840D01*
X424350D01*
X424304Y249835D01*
X424273D01*
X424268D01*
X424262D01*
X424108Y249840D01*
X423963Y249856D01*
X423824Y249876D01*
X423700Y249907D01*
X423581Y249938D01*
X423468Y249979D01*
X423370Y250021D01*
X423282Y250062D01*
X423200Y250103D01*
X423127Y250145D01*
X423070Y250186D01*
X423019Y250217D01*
X422983Y250248D01*
X422952Y250269D01*
X422936Y250284D01*
X422931Y250289D01*
X422843Y250377D01*
X422771Y250470D01*
X422704Y250568D01*
X422652Y250666D01*
X422606Y250764D01*
X422565Y250862D01*
X422534Y250955D01*
X422508Y251043D01*
X422487Y251130D01*
X422472Y251208D01*
X422462Y251280D01*
X422456Y251337D01*
X422451Y251388D01*
X422446Y251424D01*
Y251455D01*
X422451Y251564D01*
X422456Y251662D01*
X422472Y251760D01*
X422493Y251848D01*
X422513Y251930D01*
X422534Y252007D01*
X422560Y252080D01*
X422591Y252147D01*
X422616Y252203D01*
X422642Y252255D01*
X422663Y252302D01*
X422683Y252338D01*
X422704Y252369D01*
X422720Y252389D01*
X422725Y252400D01*
X422730Y252405D01*
X422787Y252472D01*
X422849Y252534D01*
X422988Y252647D01*
X423132Y252740D01*
X423272Y252812D01*
X423339Y252843D01*
X423401Y252869D01*
X423457Y252890D01*
X423504Y252910D01*
X423545Y252926D01*
X423576Y252936D01*
X423597Y252941D01*
X423602D01*
X423819Y252240D01*
D02*
G37*
G36*
X426079Y248767D02*
X424665Y247947D01*
X426079Y247105D01*
Y246264D01*
X424010Y247570D01*
X422508D01*
Y248292D01*
X424004D01*
X426079Y249598D01*
Y248767D01*
D02*
G37*
G36*
X424438Y246017D02*
X424598Y246001D01*
X424675Y245996D01*
X424742Y245986D01*
X424809Y245975D01*
X424866Y245965D01*
X424918Y245950D01*
X424964Y245939D01*
X425005Y245929D01*
X425036Y245924D01*
X425062Y245914D01*
X425083Y245908D01*
X425093Y245903D01*
X425098D01*
X425222Y245857D01*
X425336Y245800D01*
X425434Y245743D01*
X425516Y245686D01*
X425583Y245640D01*
X425635Y245599D01*
X425666Y245573D01*
X425676Y245568D01*
Y245563D01*
X425759Y245475D01*
X425826Y245387D01*
X425883Y245294D01*
X425929Y245212D01*
X425965Y245140D01*
X425991Y245077D01*
X425996Y245057D01*
X426001Y245041D01*
X426007Y245031D01*
Y245026D01*
X426032Y244928D01*
X426048Y244819D01*
X426063Y244706D01*
X426068Y244598D01*
X426074Y244500D01*
X426079Y244458D01*
Y243034D01*
X422508D01*
Y244386D01*
X422513Y244525D01*
X422518Y244654D01*
X422529Y244763D01*
X422544Y244850D01*
X422560Y244923D01*
X422570Y244980D01*
X422575Y244995D01*
Y245010D01*
X422580Y245016D01*
Y245021D01*
X422621Y245134D01*
X422668Y245237D01*
X422714Y245320D01*
X422761Y245392D01*
X422802Y245449D01*
X422833Y245490D01*
X422854Y245516D01*
X422864Y245527D01*
X422962Y245614D01*
X423065Y245692D01*
X423174Y245759D01*
X423272Y245810D01*
X423365Y245851D01*
X423401Y245872D01*
X423432Y245883D01*
X423463Y245893D01*
X423483Y245903D01*
X423494Y245908D01*
X423499D01*
X423623Y245944D01*
X423752Y245975D01*
X423875Y245996D01*
X423994Y246006D01*
X424051Y246011D01*
X424102Y246017D01*
X424144D01*
X424185Y246022D01*
X424216D01*
X424237D01*
X424252D01*
X424257D01*
X424438Y246017D01*
D02*
G37*
G36*
X424309Y240939D02*
X424391Y240934D01*
X424453Y240924D01*
X424505Y240919D01*
X424541Y240908D01*
X424567Y240903D01*
X424572D01*
X424634Y240888D01*
X424685Y240867D01*
X424737Y240846D01*
X424778Y240821D01*
X424815Y240800D01*
X424840Y240784D01*
X424856Y240774D01*
X424861Y240769D01*
X424907Y240728D01*
X424949Y240681D01*
X424985Y240635D01*
X425016Y240588D01*
X425042Y240547D01*
X425057Y240511D01*
X425067Y240490D01*
X425072Y240480D01*
X425098Y240408D01*
X425119Y240335D01*
X425135Y240268D01*
X425145Y240207D01*
X425150Y240150D01*
X425155Y240103D01*
Y240067D01*
X425150Y239974D01*
X425135Y239881D01*
X425114Y239799D01*
X425088Y239716D01*
X425052Y239639D01*
X425016Y239572D01*
X424974Y239505D01*
X424938Y239448D01*
X424897Y239396D01*
X424856Y239350D01*
X424820Y239309D01*
X424784Y239278D01*
X424758Y239252D01*
X424737Y239231D01*
X424722Y239221D01*
X424717Y239216D01*
X425098D01*
Y238581D01*
X422508D01*
Y239267D01*
X423674D01*
X423752D01*
X423824D01*
X423891Y239272D01*
X423948Y239278D01*
X424004D01*
X424051Y239283D01*
X424097Y239288D01*
X424133Y239293D01*
X424195Y239303D01*
X424237Y239309D01*
X424262Y239319D01*
X424268D01*
X424324Y239340D01*
X424381Y239371D01*
X424422Y239402D01*
X424464Y239433D01*
X424489Y239463D01*
X424515Y239489D01*
X424526Y239505D01*
X424531Y239510D01*
X424562Y239567D01*
X424587Y239623D01*
X424603Y239675D01*
X424618Y239727D01*
X424624Y239768D01*
X424629Y239799D01*
Y239830D01*
X424624Y239881D01*
X424618Y239928D01*
X424608Y239964D01*
X424593Y240000D01*
X424577Y240031D01*
X424567Y240052D01*
X424562Y240062D01*
X424556Y240067D01*
X424531Y240103D01*
X424500Y240129D01*
X424438Y240176D01*
X424407Y240191D01*
X424386Y240201D01*
X424371Y240212D01*
X424366D01*
X424340Y240222D01*
X424309Y240227D01*
X424231Y240237D01*
X424139Y240248D01*
X424051Y240253D01*
X423963Y240258D01*
X423927D01*
X423891D01*
X423865D01*
X423844D01*
X423829D01*
X423824D01*
X422508D01*
Y240944D01*
X424113D01*
X424221D01*
X424309Y240939D01*
D02*
G37*
G36*
X423875Y238019D02*
X423999Y238003D01*
X424113Y237983D01*
X424221Y237957D01*
X424314Y237931D01*
X424402Y237900D01*
X424479Y237869D01*
X424546Y237838D01*
X424608Y237807D01*
X424655Y237781D01*
X424696Y237755D01*
X424727Y237735D01*
X424753Y237719D01*
X424763Y237709D01*
X424768Y237704D01*
X424835Y237642D01*
X424897Y237570D01*
X424949Y237497D01*
X424990Y237425D01*
X425031Y237348D01*
X425062Y237270D01*
X425088Y237198D01*
X425109Y237126D01*
X425124Y237059D01*
X425135Y236997D01*
X425145Y236940D01*
X425150Y236894D01*
X425155Y236853D01*
Y236796D01*
X425150Y236703D01*
X425140Y236615D01*
X425119Y236527D01*
X425098Y236450D01*
X425072Y236373D01*
X425042Y236305D01*
X425005Y236239D01*
X424974Y236182D01*
X424938Y236130D01*
X424902Y236084D01*
X424871Y236042D01*
X424846Y236011D01*
X424825Y235986D01*
X424804Y235965D01*
X424794Y235955D01*
X424789Y235949D01*
X424717Y235893D01*
X424639Y235841D01*
X424562Y235795D01*
X424479Y235753D01*
X424391Y235722D01*
X424309Y235697D01*
X424149Y235655D01*
X424072Y235640D01*
X424004Y235630D01*
X423943Y235624D01*
X423891Y235619D01*
X423844Y235614D01*
X423808D01*
X423788D01*
X423782D01*
X423685Y235619D01*
X423587Y235624D01*
X423499Y235640D01*
X423416Y235655D01*
X423334Y235671D01*
X423261Y235697D01*
X423194Y235717D01*
X423132Y235743D01*
X423076Y235764D01*
X423029Y235789D01*
X422988Y235810D01*
X422952Y235826D01*
X422926Y235846D01*
X422905Y235857D01*
X422895Y235862D01*
X422890Y235867D01*
X422813Y235934D01*
X422745Y236001D01*
X422689Y236079D01*
X422637Y236161D01*
X422596Y236244D01*
X422560Y236326D01*
X422529Y236409D01*
X422508Y236491D01*
X422487Y236563D01*
X422477Y236636D01*
X422467Y236703D01*
X422456Y236760D01*
Y236806D01*
X422451Y236837D01*
Y236868D01*
X422462Y237018D01*
X422482Y237157D01*
X422513Y237276D01*
X422549Y237379D01*
X422570Y237425D01*
X422585Y237461D01*
X422601Y237497D01*
X422616Y237523D01*
X422632Y237544D01*
X422637Y237565D01*
X422647Y237570D01*
Y237575D01*
X422730Y237673D01*
X422818Y237761D01*
X422916Y237833D01*
X423008Y237890D01*
X423091Y237936D01*
X423127Y237952D01*
X423158Y237967D01*
X423184Y237977D01*
X423205Y237988D01*
X423215Y237993D01*
X423220D01*
X423334Y237312D01*
X423267Y237286D01*
X423205Y237260D01*
X423158Y237234D01*
X423117Y237203D01*
X423086Y237183D01*
X423065Y237162D01*
X423055Y237147D01*
X423050Y237141D01*
X423019Y237100D01*
X422998Y237054D01*
X422983Y237007D01*
X422972Y236966D01*
X422967Y236930D01*
X422962Y236899D01*
Y236873D01*
X422967Y236791D01*
X422988Y236713D01*
X423014Y236641D01*
X423045Y236584D01*
X423076Y236538D01*
X423101Y236507D01*
X423122Y236481D01*
X423127Y236476D01*
X423194Y236424D01*
X423272Y236388D01*
X423354Y236357D01*
X423426Y236336D01*
X423499Y236326D01*
X423550Y236321D01*
X423571Y236316D01*
X423587D01*
X423597D01*
X423602D01*
Y238029D01*
X423746D01*
X423875Y238019D01*
D02*
G37*
G36*
X426079Y234422D02*
X425444D01*
Y235108D01*
X426079D01*
Y234422D01*
D02*
G37*
G36*
X425098D02*
X422508D01*
Y235108D01*
X425098D01*
Y234422D01*
D02*
G37*
G36*
X423081Y233947D02*
X423060Y233886D01*
X423045Y233829D01*
X423034Y233782D01*
X423029Y233741D01*
X423024Y233710D01*
X423019Y233689D01*
Y233669D01*
X423024Y233622D01*
X423034Y233586D01*
X423045Y233566D01*
X423050Y233555D01*
X423081Y233524D01*
X423107Y233509D01*
X423127Y233499D01*
X423138Y233493D01*
X423148D01*
X423169Y233488D01*
X423215D01*
X423277D01*
X423339Y233483D01*
X423401D01*
X423452D01*
X423473D01*
X423488D01*
X423499D01*
X423504D01*
X424551D01*
Y233953D01*
X425098D01*
Y233483D01*
X426017D01*
X425614Y232797D01*
X425098D01*
Y232482D01*
X424551D01*
Y232797D01*
X423421D01*
X423354D01*
X423298D01*
X423241D01*
X423194Y232802D01*
X423112D01*
X423045Y232807D01*
X422993Y232812D01*
X422962D01*
X422941Y232817D01*
X422936D01*
X422880Y232828D01*
X422828Y232843D01*
X422782Y232859D01*
X422745Y232874D01*
X422714Y232890D01*
X422694Y232900D01*
X422678Y232905D01*
X422673Y232910D01*
X422637Y232941D01*
X422606Y232977D01*
X422554Y233050D01*
X422539Y233081D01*
X422523Y233106D01*
X422518Y233127D01*
X422513Y233132D01*
X422493Y233189D01*
X422477Y233246D01*
X422467Y233302D01*
X422462Y233354D01*
X422456Y233401D01*
X422451Y233437D01*
Y233468D01*
X422456Y233576D01*
X422467Y233679D01*
X422482Y233772D01*
X422503Y233849D01*
X422518Y233916D01*
X422534Y233968D01*
X422544Y233999D01*
X422549Y234004D01*
Y234009D01*
X423081Y233947D01*
D02*
G37*
G36*
X423432Y232152D02*
X423535Y232126D01*
X423623Y232095D01*
X423695Y232054D01*
X423752Y232012D01*
X423793Y231981D01*
X423813Y231956D01*
X423824Y231945D01*
X423855Y231899D01*
X423891Y231853D01*
X423917Y231796D01*
X423948Y231734D01*
X423999Y231610D01*
X424046Y231481D01*
X424082Y231367D01*
X424092Y231316D01*
X424108Y231269D01*
X424118Y231233D01*
X424123Y231207D01*
X424128Y231187D01*
Y231182D01*
X424154Y231084D01*
X424175Y230996D01*
X424195Y230919D01*
X424216Y230851D01*
X424231Y230789D01*
X424247Y230738D01*
X424262Y230697D01*
X424273Y230655D01*
X424288Y230624D01*
X424298Y230599D01*
X424304Y230578D01*
X424314Y230568D01*
X424319Y230547D01*
X424324Y230542D01*
X424345Y230521D01*
X424366Y230506D01*
X424407Y230485D01*
X424438Y230475D01*
X424443D01*
X424448D01*
X424479Y230480D01*
X424505Y230485D01*
X424551Y230516D01*
X424577Y230542D01*
X424587Y230547D01*
Y230552D01*
X424613Y230604D01*
X424634Y230661D01*
X424644Y230722D01*
X424655Y230789D01*
X424660Y230846D01*
X424665Y230893D01*
Y230939D01*
X424660Y231016D01*
X424655Y231084D01*
X424639Y231140D01*
X424624Y231187D01*
X424608Y231223D01*
X424598Y231249D01*
X424587Y231264D01*
X424582Y231269D01*
X424551Y231311D01*
X424515Y231342D01*
X424479Y231373D01*
X424438Y231393D01*
X424407Y231409D01*
X424381Y231419D01*
X424361Y231429D01*
X424355D01*
X424474Y232074D01*
X424593Y232033D01*
X424696Y231976D01*
X424784Y231920D01*
X424851Y231858D01*
X424907Y231806D01*
X424949Y231760D01*
X424969Y231729D01*
X424980Y231723D01*
Y231718D01*
X425011Y231667D01*
X425036Y231610D01*
X425083Y231486D01*
X425114Y231357D01*
X425135Y231228D01*
X425140Y231166D01*
X425145Y231109D01*
X425150Y231058D01*
X425155Y231016D01*
Y230826D01*
X425145Y230733D01*
X425135Y230645D01*
X425119Y230562D01*
X425104Y230490D01*
X425083Y230423D01*
X425062Y230361D01*
X425042Y230305D01*
X425016Y230258D01*
X424995Y230217D01*
X424974Y230181D01*
X424959Y230155D01*
X424943Y230129D01*
X424933Y230114D01*
X424928Y230108D01*
X424923Y230103D01*
X424882Y230057D01*
X424835Y230015D01*
X424789Y229979D01*
X424737Y229954D01*
X424644Y229902D01*
X424556Y229871D01*
X424479Y229855D01*
X424443Y229850D01*
X424417Y229845D01*
X424391Y229840D01*
X424376D01*
X424366D01*
X424361D01*
X424293Y229845D01*
X424231Y229855D01*
X424169Y229866D01*
X424113Y229887D01*
X424015Y229938D01*
X423932Y229995D01*
X423865Y230047D01*
X423819Y230098D01*
X423798Y230119D01*
X423788Y230129D01*
X423782Y230139D01*
X423777Y230145D01*
X423752Y230191D01*
X423721Y230253D01*
X423690Y230325D01*
X423664Y230402D01*
X423633Y230485D01*
X423607Y230573D01*
X423556Y230753D01*
X423530Y230841D01*
X423509Y230924D01*
X423488Y230996D01*
X423473Y231063D01*
X423463Y231120D01*
X423452Y231161D01*
X423442Y231187D01*
Y231197D01*
X423426Y231259D01*
X423411Y231306D01*
X423395Y231347D01*
X423385Y231378D01*
X423370Y231398D01*
X423365Y231414D01*
X423354Y231424D01*
X423313Y231455D01*
X423272Y231471D01*
X423241Y231476D01*
X423230D01*
X423225D01*
X423184Y231471D01*
X423148Y231460D01*
X423117Y231445D01*
X423091Y231429D01*
X423070Y231414D01*
X423055Y231398D01*
X423045Y231388D01*
X423039Y231383D01*
X423008Y231326D01*
X422988Y231264D01*
X422967Y231197D01*
X422957Y231135D01*
X422952Y231079D01*
X422947Y231027D01*
Y230986D01*
X422952Y230898D01*
X422962Y230826D01*
X422978Y230759D01*
X422998Y230707D01*
X423014Y230666D01*
X423029Y230635D01*
X423039Y230614D01*
X423045Y230609D01*
X423086Y230562D01*
X423138Y230526D01*
X423184Y230495D01*
X423236Y230470D01*
X423282Y230454D01*
X423318Y230444D01*
X423339Y230434D01*
X423349D01*
X423246Y229747D01*
X423117Y229794D01*
X422998Y229850D01*
X422900Y229912D01*
X422818Y229979D01*
X422751Y230041D01*
X422704Y230098D01*
X422683Y230114D01*
X422673Y230129D01*
X422668Y230139D01*
X422663Y230145D01*
X422627Y230206D01*
X422591Y230268D01*
X422539Y230408D01*
X422503Y230547D01*
X422477Y230681D01*
X422467Y230743D01*
X422462Y230800D01*
X422456Y230851D01*
Y230898D01*
X422451Y230934D01*
Y230986D01*
X422456Y231089D01*
X422462Y231187D01*
X422477Y231280D01*
X422493Y231367D01*
X422508Y231445D01*
X422534Y231517D01*
X422554Y231584D01*
X422580Y231641D01*
X422601Y231693D01*
X422627Y231739D01*
X422647Y231775D01*
X422663Y231806D01*
X422683Y231832D01*
X422694Y231847D01*
X422699Y231858D01*
X422704Y231863D01*
X422756Y231914D01*
X422807Y231961D01*
X422859Y232002D01*
X422910Y232038D01*
X422962Y232064D01*
X423014Y232090D01*
X423107Y232126D01*
X423194Y232147D01*
X423230Y232152D01*
X423256Y232157D01*
X423282Y232162D01*
X423303D01*
X423313D01*
X423318D01*
X423432Y232152D01*
D02*
G37*
G36*
X422575Y229427D02*
X422637Y229401D01*
X422694Y229381D01*
X422745Y229360D01*
X422787Y229350D01*
X422823Y229340D01*
X422843Y229334D01*
X422849D01*
X422916Y229324D01*
X422998Y229319D01*
X423081Y229309D01*
X423163D01*
X423236Y229303D01*
X423298D01*
X423323D01*
X423339D01*
X423349D01*
X423354D01*
X424154Y229314D01*
X424237D01*
X424309Y229309D01*
X424376Y229303D01*
X424438Y229298D01*
X424495Y229293D01*
X424546Y229283D01*
X424593Y229278D01*
X424629Y229267D01*
X424665Y229257D01*
X424691Y229252D01*
X424737Y229236D01*
X424758Y229226D01*
X424768Y229221D01*
X424825Y229180D01*
X424882Y229133D01*
X424928Y229082D01*
X424969Y229025D01*
X425000Y228978D01*
X425021Y228937D01*
X425036Y228911D01*
X425042Y228906D01*
Y228901D01*
X425062Y228854D01*
X425078Y228808D01*
X425109Y228700D01*
X425129Y228586D01*
X425140Y228478D01*
X425150Y228375D01*
Y228333D01*
X425155Y228297D01*
Y228127D01*
X425145Y228044D01*
X425140Y227962D01*
X425124Y227890D01*
X425114Y227817D01*
X425098Y227755D01*
X425078Y227699D01*
X425062Y227647D01*
X425047Y227606D01*
X425026Y227565D01*
X425011Y227534D01*
X425000Y227503D01*
X424985Y227482D01*
X424980Y227467D01*
X424969Y227461D01*
Y227456D01*
X424892Y227368D01*
X424804Y227296D01*
X424711Y227234D01*
X424624Y227183D01*
X424541Y227147D01*
X424505Y227131D01*
X424474Y227121D01*
X424448Y227110D01*
X424428Y227105D01*
X424417Y227100D01*
X424412D01*
X424298Y227714D01*
X424361Y227740D01*
X424412Y227766D01*
X424459Y227792D01*
X424495Y227822D01*
X424520Y227843D01*
X424536Y227864D01*
X424546Y227874D01*
X424551Y227879D01*
X424577Y227921D01*
X424598Y227967D01*
X424608Y228019D01*
X424618Y228065D01*
X424624Y228106D01*
X424629Y228137D01*
Y228168D01*
X424624Y228261D01*
X424613Y228339D01*
X424603Y228400D01*
X424587Y228452D01*
X424567Y228488D01*
X424556Y228514D01*
X424546Y228529D01*
X424541Y228535D01*
X424505Y228571D01*
X424464Y228596D01*
X424417Y228612D01*
X424371Y228627D01*
X424324Y228633D01*
X424288Y228638D01*
X424268D01*
X424257D01*
X424190D01*
X424175Y228602D01*
X424159Y228555D01*
X424128Y228457D01*
X424102Y228344D01*
X424077Y228235D01*
X424051Y228132D01*
X424041Y228086D01*
X424035Y228044D01*
X424030Y228013D01*
X424025Y227988D01*
X424020Y227972D01*
Y227967D01*
X423994Y227843D01*
X423968Y227730D01*
X423943Y227637D01*
X423917Y227559D01*
X423891Y227497D01*
X423875Y227456D01*
X423865Y227430D01*
X423860Y227420D01*
X423824Y227353D01*
X423782Y227296D01*
X423736Y227245D01*
X423695Y227208D01*
X423659Y227172D01*
X423628Y227152D01*
X423607Y227136D01*
X423597Y227131D01*
X423530Y227095D01*
X423463Y227069D01*
X423401Y227054D01*
X423339Y227043D01*
X423287Y227033D01*
X423246Y227028D01*
X423220D01*
X423210D01*
X423148Y227033D01*
X423091Y227038D01*
X422983Y227064D01*
X422890Y227100D01*
X422813Y227141D01*
X422751Y227183D01*
X422704Y227219D01*
X422673Y227245D01*
X422668Y227255D01*
X422663D01*
X422591Y227348D01*
X422539Y227451D01*
X422503Y227554D01*
X422477Y227657D01*
X422462Y227745D01*
X422456Y227786D01*
Y227817D01*
X422451Y227848D01*
Y227884D01*
X422456Y227967D01*
X422467Y228049D01*
X422477Y228122D01*
X422493Y228184D01*
X422508Y228235D01*
X422523Y228277D01*
X422529Y228302D01*
X422534Y228313D01*
X422570Y228385D01*
X422606Y228457D01*
X422652Y228519D01*
X422694Y228576D01*
X422730Y228622D01*
X422761Y228658D01*
X422782Y228679D01*
X422787Y228689D01*
X422766Y228695D01*
X422740Y228705D01*
X422720Y228710D01*
X422714Y228715D01*
X422709D01*
X422663Y228731D01*
X422621Y228741D01*
X422585Y228751D01*
X422560Y228762D01*
X422539Y228772D01*
X422518Y228777D01*
X422513Y228782D01*
X422508D01*
Y229458D01*
X422575Y229427D01*
D02*
G37*
G36*
X423948Y226661D02*
X424056Y226651D01*
X424159Y226636D01*
X424252Y226620D01*
X424340Y226594D01*
X424422Y226569D01*
X424495Y226538D01*
X424562Y226512D01*
X424618Y226481D01*
X424670Y226450D01*
X424711Y226424D01*
X424748Y226403D01*
X424773Y226383D01*
X424794Y226367D01*
X424804Y226357D01*
X424809Y226352D01*
X424871Y226290D01*
X424923Y226228D01*
X424969Y226166D01*
X425011Y226099D01*
X425042Y226032D01*
X425072Y225970D01*
X425114Y225846D01*
X425124Y225784D01*
X425135Y225733D01*
X425145Y225686D01*
X425150Y225645D01*
X425155Y225614D01*
Y225568D01*
X425150Y225490D01*
X425140Y225413D01*
X425124Y225335D01*
X425098Y225268D01*
X425042Y225139D01*
X424974Y225031D01*
X424943Y224985D01*
X424907Y224943D01*
X424876Y224907D01*
X424851Y224876D01*
X424825Y224850D01*
X424809Y224835D01*
X424799Y224825D01*
X424794Y224819D01*
X426079D01*
Y224133D01*
X422508D01*
Y224768D01*
X422885D01*
X422807Y224830D01*
X422740Y224892D01*
X422689Y224954D01*
X422642Y225010D01*
X422606Y225062D01*
X422580Y225103D01*
X422565Y225129D01*
X422560Y225139D01*
X422523Y225222D01*
X422498Y225299D01*
X422477Y225372D01*
X422467Y225439D01*
X422456Y225495D01*
X422451Y225542D01*
Y225578D01*
X422456Y225660D01*
X422467Y225743D01*
X422482Y225815D01*
X422508Y225887D01*
X422565Y226022D01*
X422596Y226078D01*
X422632Y226135D01*
X422663Y226182D01*
X422694Y226223D01*
X422725Y226259D01*
X422751Y226290D01*
X422776Y226316D01*
X422792Y226331D01*
X422802Y226342D01*
X422807Y226347D01*
X422880Y226403D01*
X422952Y226450D01*
X423034Y226496D01*
X423117Y226533D01*
X423205Y226564D01*
X423287Y226589D01*
X423452Y226625D01*
X423530Y226641D01*
X423602Y226651D01*
X423664Y226656D01*
X423721Y226661D01*
X423767Y226667D01*
X423798D01*
X423824D01*
X423829D01*
X423948Y226661D01*
D02*
G37*
G36*
X426161Y222384D02*
X425434Y222043D01*
Y222472D01*
X426161Y223148D01*
Y222384D01*
D02*
G37*
G36*
X423875Y223591D02*
X423999Y223576D01*
X424113Y223555D01*
X424221Y223529D01*
X424314Y223504D01*
X424402Y223473D01*
X424479Y223442D01*
X424546Y223411D01*
X424608Y223380D01*
X424655Y223354D01*
X424696Y223328D01*
X424727Y223307D01*
X424753Y223292D01*
X424763Y223282D01*
X424768Y223276D01*
X424835Y223215D01*
X424897Y223142D01*
X424949Y223070D01*
X424990Y222998D01*
X425031Y222920D01*
X425062Y222843D01*
X425088Y222771D01*
X425109Y222699D01*
X425124Y222632D01*
X425135Y222570D01*
X425145Y222513D01*
X425150Y222466D01*
X425155Y222425D01*
Y222368D01*
X425150Y222275D01*
X425140Y222188D01*
X425119Y222100D01*
X425098Y222023D01*
X425072Y221945D01*
X425042Y221878D01*
X425005Y221811D01*
X424974Y221754D01*
X424938Y221703D01*
X424902Y221656D01*
X424871Y221615D01*
X424846Y221584D01*
X424825Y221558D01*
X424804Y221538D01*
X424794Y221527D01*
X424789Y221522D01*
X424717Y221465D01*
X424639Y221414D01*
X424562Y221367D01*
X424479Y221326D01*
X424391Y221295D01*
X424309Y221269D01*
X424149Y221228D01*
X424072Y221213D01*
X424004Y221202D01*
X423943Y221197D01*
X423891Y221192D01*
X423844Y221187D01*
X423808D01*
X423788D01*
X423782D01*
X423685Y221192D01*
X423587Y221197D01*
X423499Y221213D01*
X423416Y221228D01*
X423334Y221244D01*
X423261Y221269D01*
X423194Y221290D01*
X423132Y221316D01*
X423076Y221336D01*
X423029Y221362D01*
X422988Y221383D01*
X422952Y221398D01*
X422926Y221419D01*
X422905Y221429D01*
X422895Y221434D01*
X422890Y221440D01*
X422813Y221507D01*
X422745Y221574D01*
X422689Y221651D01*
X422637Y221734D01*
X422596Y221816D01*
X422560Y221899D01*
X422529Y221981D01*
X422508Y222064D01*
X422487Y222136D01*
X422477Y222208D01*
X422467Y222275D01*
X422456Y222332D01*
Y222379D01*
X422451Y222410D01*
Y222441D01*
X422462Y222590D01*
X422482Y222730D01*
X422513Y222848D01*
X422549Y222952D01*
X422570Y222998D01*
X422585Y223034D01*
X422601Y223070D01*
X422616Y223096D01*
X422632Y223117D01*
X422637Y223137D01*
X422647Y223142D01*
Y223148D01*
X422730Y223246D01*
X422818Y223333D01*
X422916Y223406D01*
X423008Y223462D01*
X423091Y223509D01*
X423127Y223524D01*
X423158Y223540D01*
X423184Y223550D01*
X423205Y223560D01*
X423215Y223566D01*
X423220D01*
X423334Y222884D01*
X423267Y222859D01*
X423205Y222833D01*
X423158Y222807D01*
X423117Y222776D01*
X423086Y222755D01*
X423065Y222735D01*
X423055Y222719D01*
X423050Y222714D01*
X423019Y222673D01*
X422998Y222626D01*
X422983Y222580D01*
X422972Y222539D01*
X422967Y222502D01*
X422962Y222472D01*
Y222446D01*
X422967Y222363D01*
X422988Y222286D01*
X423014Y222214D01*
X423045Y222157D01*
X423076Y222110D01*
X423101Y222079D01*
X423122Y222054D01*
X423127Y222048D01*
X423194Y221997D01*
X423272Y221961D01*
X423354Y221930D01*
X423426Y221909D01*
X423499Y221899D01*
X423550Y221894D01*
X423571Y221888D01*
X423587D01*
X423597D01*
X423602D01*
Y223602D01*
X423746D01*
X423875Y223591D01*
D02*
G37*
G36*
X423669Y220774D02*
X423777Y220759D01*
X423875Y220733D01*
X423958Y220707D01*
X424025Y220681D01*
X424072Y220655D01*
X424102Y220640D01*
X424113Y220635D01*
X424195Y220578D01*
X424268Y220511D01*
X424330Y220444D01*
X424381Y220382D01*
X424422Y220325D01*
X424453Y220279D01*
X424474Y220248D01*
X424479Y220243D01*
Y220237D01*
X424505Y220186D01*
X424531Y220134D01*
X424577Y220010D01*
X424618Y219881D01*
X424660Y219757D01*
X424675Y219701D01*
X424691Y219644D01*
X424706Y219592D01*
X424717Y219551D01*
X424727Y219515D01*
X424732Y219489D01*
X424737Y219468D01*
Y219463D01*
X424763Y219370D01*
X424784Y219288D01*
X424804Y219211D01*
X424825Y219138D01*
X424846Y219081D01*
X424866Y219025D01*
X424887Y218978D01*
X424902Y218937D01*
X424918Y218901D01*
X424933Y218875D01*
X424943Y218849D01*
X424954Y218834D01*
X424969Y218808D01*
X424974Y218803D01*
X425011Y218767D01*
X425047Y218741D01*
X425083Y218725D01*
X425119Y218715D01*
X425145Y218705D01*
X425171Y218700D01*
X425186D01*
X425191D01*
X425243Y218705D01*
X425284Y218715D01*
X425325Y218736D01*
X425356Y218756D01*
X425382Y218777D01*
X425398Y218798D01*
X425408Y218808D01*
X425413Y218813D01*
X425459Y218885D01*
X425491Y218963D01*
X425516Y219045D01*
X425532Y219123D01*
X425542Y219190D01*
X425547Y219247D01*
Y219298D01*
X425542Y219407D01*
X425527Y219499D01*
X425506Y219577D01*
X425485Y219639D01*
X425465Y219690D01*
X425444Y219726D01*
X425429Y219747D01*
X425423Y219752D01*
X425372Y219804D01*
X425310Y219850D01*
X425248Y219886D01*
X425181Y219912D01*
X425124Y219933D01*
X425078Y219943D01*
X425042Y219953D01*
X425036D01*
X425031D01*
X425057Y220676D01*
X425150Y220671D01*
X425233Y220655D01*
X425315Y220635D01*
X425387Y220609D01*
X425459Y220583D01*
X425527Y220552D01*
X425583Y220521D01*
X425640Y220490D01*
X425687Y220454D01*
X425728Y220423D01*
X425764Y220392D01*
X425795Y220366D01*
X425816Y220346D01*
X425831Y220330D01*
X425841Y220320D01*
X425846Y220315D01*
X425898Y220248D01*
X425945Y220175D01*
X425986Y220098D01*
X426022Y220015D01*
X426048Y219933D01*
X426074Y219850D01*
X426110Y219685D01*
X426120Y219608D01*
X426130Y219541D01*
X426135Y219474D01*
X426141Y219417D01*
X426146Y219370D01*
Y219308D01*
X426141Y219159D01*
X426125Y219025D01*
X426104Y218906D01*
X426084Y218803D01*
X426068Y218756D01*
X426058Y218715D01*
X426048Y218684D01*
X426038Y218653D01*
X426027Y218633D01*
X426022Y218617D01*
X426017Y218607D01*
Y218602D01*
X425965Y218498D01*
X425909Y218411D01*
X425846Y218333D01*
X425790Y218271D01*
X425738Y218220D01*
X425697Y218189D01*
X425666Y218163D01*
X425661Y218158D01*
X425656D01*
X425568Y218106D01*
X425475Y218070D01*
X425387Y218044D01*
X425310Y218029D01*
X425243Y218019D01*
X425191Y218008D01*
X425171D01*
X425155D01*
X425150D01*
X425145D01*
X425067Y218013D01*
X424990Y218024D01*
X424923Y218039D01*
X424856Y218060D01*
X424732Y218111D01*
X424624Y218173D01*
X424577Y218199D01*
X424541Y218230D01*
X424505Y218256D01*
X424474Y218282D01*
X424453Y218302D01*
X424438Y218318D01*
X424428Y218328D01*
X424422Y218333D01*
X424386Y218380D01*
X424350Y218437D01*
X424314Y218493D01*
X424283Y218560D01*
X424221Y218689D01*
X424169Y218824D01*
X424149Y218891D01*
X424128Y218947D01*
X424113Y219004D01*
X424097Y219051D01*
X424087Y219087D01*
X424077Y219118D01*
X424072Y219138D01*
Y219143D01*
X424051Y219226D01*
X424030Y219298D01*
X424015Y219365D01*
X423999Y219427D01*
X423984Y219479D01*
X423974Y219525D01*
X423958Y219566D01*
X423948Y219603D01*
X423943Y219634D01*
X423932Y219659D01*
X423922Y219695D01*
X423912Y219716D01*
Y219721D01*
X423886Y219788D01*
X423860Y219840D01*
X423834Y219886D01*
X423808Y219922D01*
X423788Y219948D01*
X423772Y219964D01*
X423762Y219974D01*
X423757Y219979D01*
X423721Y220005D01*
X423685Y220026D01*
X423648Y220036D01*
X423617Y220046D01*
X423587Y220052D01*
X423561Y220057D01*
X423545D01*
X423540D01*
X423468Y220052D01*
X423406Y220031D01*
X423344Y220000D01*
X423292Y219969D01*
X423251Y219933D01*
X423220Y219907D01*
X423200Y219886D01*
X423194Y219876D01*
X423148Y219804D01*
X423112Y219721D01*
X423086Y219634D01*
X423070Y219551D01*
X423060Y219474D01*
X423050Y219412D01*
Y219355D01*
X423055Y219236D01*
X423076Y219133D01*
X423101Y219045D01*
X423132Y218968D01*
X423163Y218906D01*
X423189Y218865D01*
X423210Y218839D01*
X423215Y218829D01*
X423287Y218761D01*
X423365Y218710D01*
X423452Y218664D01*
X423540Y218633D01*
X423617Y218607D01*
X423679Y218586D01*
X423700Y218581D01*
X423721D01*
X423731Y218576D01*
X423736D01*
X423669Y217874D01*
X423561Y217889D01*
X423457Y217910D01*
X423359Y217941D01*
X423272Y217967D01*
X423189Y218003D01*
X423112Y218039D01*
X423045Y218075D01*
X422983Y218111D01*
X422931Y218147D01*
X422885Y218184D01*
X422843Y218215D01*
X422807Y218246D01*
X422782Y218266D01*
X422766Y218287D01*
X422756Y218297D01*
X422751Y218302D01*
X422694Y218374D01*
X422647Y218452D01*
X422606Y218534D01*
X422570Y218622D01*
X422544Y218705D01*
X422518Y218793D01*
X422482Y218963D01*
X422467Y219040D01*
X422456Y219112D01*
X422451Y219174D01*
X422446Y219231D01*
X422441Y219278D01*
Y219345D01*
X422446Y219510D01*
X422462Y219659D01*
X422482Y219794D01*
X422493Y219850D01*
X422508Y219907D01*
X422518Y219953D01*
X422529Y219995D01*
X422539Y220031D01*
X422549Y220062D01*
X422560Y220088D01*
X422565Y220103D01*
X422570Y220113D01*
Y220119D01*
X422627Y220232D01*
X422689Y220325D01*
X422751Y220413D01*
X422818Y220480D01*
X422874Y220531D01*
X422926Y220573D01*
X422957Y220593D01*
X422962Y220604D01*
X422967D01*
X423070Y220660D01*
X423169Y220707D01*
X423267Y220738D01*
X423359Y220759D01*
X423432Y220769D01*
X423468Y220774D01*
X423494Y220779D01*
X423514D01*
X423530D01*
X423540D01*
X423545D01*
X423669Y220774D01*
D02*
G37*
%LPC*%
G36*
X424391Y245279D02*
X424355D01*
X424330D01*
X424309D01*
X424293D01*
X424288D01*
X424144Y245274D01*
X424010Y245269D01*
X423901Y245253D01*
X423808Y245243D01*
X423731Y245227D01*
X423700Y245222D01*
X423679Y245212D01*
X423659Y245206D01*
X423643D01*
X423638Y245201D01*
X423633D01*
X423550Y245170D01*
X423478Y245145D01*
X423421Y245109D01*
X423375Y245083D01*
X423339Y245057D01*
X423313Y245036D01*
X423298Y245021D01*
X423292Y245016D01*
X423256Y244969D01*
X423225Y244923D01*
X423200Y244876D01*
X423179Y244830D01*
X423163Y244789D01*
X423153Y244758D01*
X423143Y244737D01*
Y244727D01*
X423132Y244670D01*
X423127Y244603D01*
X423117Y244531D01*
Y244458D01*
X423112Y244391D01*
Y243757D01*
X425475D01*
Y244226D01*
X425470Y244293D01*
Y244355D01*
X425465Y244407D01*
Y244453D01*
X425459Y244500D01*
Y244536D01*
X425449Y244592D01*
X425444Y244634D01*
X425439Y244660D01*
Y244665D01*
X425418Y244737D01*
X425392Y244799D01*
X425367Y244856D01*
X425336Y244907D01*
X425310Y244943D01*
X425289Y244974D01*
X425274Y244990D01*
X425269Y244995D01*
X425217Y245041D01*
X425160Y245083D01*
X425104Y245119D01*
X425052Y245150D01*
X425000Y245170D01*
X424959Y245186D01*
X424933Y245196D01*
X424928Y245201D01*
X424923D01*
X424830Y245227D01*
X424732Y245248D01*
X424624Y245258D01*
X424520Y245269D01*
X424433Y245274D01*
X424391Y245279D01*
D02*
G37*
G36*
X424046Y237348D02*
X424035D01*
X424025D01*
X424020D01*
Y236326D01*
X424118Y236331D01*
X424206Y236347D01*
X424283Y236368D01*
X424345Y236398D01*
X424397Y236424D01*
X424433Y236450D01*
X424459Y236466D01*
X424464Y236471D01*
X424520Y236527D01*
X424562Y236589D01*
X424587Y236651D01*
X424608Y236708D01*
X424618Y236760D01*
X424629Y236801D01*
Y236837D01*
X424624Y236914D01*
X424603Y236982D01*
X424577Y237043D01*
X424551Y237095D01*
X424520Y237136D01*
X424495Y237167D01*
X424474Y237188D01*
X424469Y237193D01*
X424407Y237240D01*
X424335Y237281D01*
X424257Y237307D01*
X424185Y237327D01*
X424123Y237337D01*
X424066Y237343D01*
X424046Y237348D01*
D02*
G37*
G36*
X423746Y228638D02*
X423607D01*
X423525D01*
X423452Y228633D01*
X423395Y228627D01*
X423349Y228622D01*
X423318Y228617D01*
X423292Y228612D01*
X423282Y228607D01*
X423277D01*
X423230Y228591D01*
X423184Y228566D01*
X423148Y228540D01*
X423112Y228514D01*
X423086Y228488D01*
X423065Y228467D01*
X423055Y228452D01*
X423050Y228447D01*
X423008Y228385D01*
X422983Y228318D01*
X422962Y228261D01*
X422947Y228204D01*
X422936Y228158D01*
X422931Y228122D01*
Y228091D01*
X422936Y228034D01*
X422947Y227977D01*
X422962Y227931D01*
X422983Y227895D01*
X423003Y227859D01*
X423019Y227838D01*
X423029Y227822D01*
X423034Y227817D01*
X423076Y227781D01*
X423117Y227755D01*
X423158Y227740D01*
X423200Y227730D01*
X423230Y227719D01*
X423256Y227714D01*
X423277D01*
X423282D01*
X423334Y227719D01*
X423380Y227735D01*
X423421Y227755D01*
X423457Y227781D01*
X423483Y227802D01*
X423504Y227822D01*
X423514Y227838D01*
X423519Y227843D01*
X423540Y227884D01*
X423566Y227936D01*
X423587Y227998D01*
X423602Y228060D01*
X423617Y228122D01*
X423628Y228168D01*
X423633Y228189D01*
X423638Y228204D01*
Y228215D01*
X423659Y228318D01*
X423679Y228400D01*
X423700Y228478D01*
X423715Y228535D01*
X423731Y228581D01*
X423736Y228612D01*
X423746Y228633D01*
Y228638D01*
D02*
G37*
G36*
X423865Y225965D02*
X423834D01*
X423813D01*
X423798D01*
X423793D01*
X423715D01*
X423648Y225960D01*
X423581Y225949D01*
X423519Y225939D01*
X423416Y225913D01*
X423334Y225882D01*
X423267Y225851D01*
X423220Y225826D01*
X423194Y225805D01*
X423184Y225800D01*
X423122Y225738D01*
X423076Y225671D01*
X423039Y225609D01*
X423019Y225547D01*
X423003Y225495D01*
X422998Y225449D01*
X422993Y225423D01*
Y225413D01*
X422998Y225356D01*
X423003Y225304D01*
X423034Y225212D01*
X423076Y225129D01*
X423127Y225062D01*
X423179Y225005D01*
X423220Y224964D01*
X423251Y224943D01*
X423256Y224933D01*
X423261D01*
X423344Y224892D01*
X423437Y224861D01*
X423535Y224840D01*
X423628Y224825D01*
X423715Y224814D01*
X423757D01*
X423788Y224809D01*
X423819D01*
X423839D01*
X423850D01*
X423855D01*
X423994Y224814D01*
X424113Y224835D01*
X424211Y224861D01*
X424293Y224892D01*
X424355Y224917D01*
X424402Y224943D01*
X424428Y224964D01*
X424438Y224969D01*
X424500Y225036D01*
X424546Y225103D01*
X424582Y225175D01*
X424603Y225242D01*
X424618Y225299D01*
X424624Y225346D01*
X424629Y225377D01*
Y225387D01*
X424618Y225480D01*
X424598Y225557D01*
X424567Y225629D01*
X424531Y225686D01*
X424495Y225738D01*
X424464Y225769D01*
X424443Y225795D01*
X424433Y225800D01*
X424391Y225831D01*
X424350Y225856D01*
X424252Y225898D01*
X424144Y225924D01*
X424041Y225944D01*
X423943Y225955D01*
X423901Y225960D01*
X423865Y225965D01*
D02*
G37*
G36*
X424046Y222920D02*
X424035D01*
X424025D01*
X424020D01*
Y221899D01*
X424118Y221904D01*
X424206Y221919D01*
X424283Y221940D01*
X424345Y221971D01*
X424397Y221997D01*
X424433Y222023D01*
X424459Y222038D01*
X424464Y222043D01*
X424520Y222100D01*
X424562Y222162D01*
X424587Y222224D01*
X424608Y222281D01*
X424618Y222332D01*
X424629Y222374D01*
Y222410D01*
X424624Y222487D01*
X424603Y222554D01*
X424577Y222616D01*
X424551Y222668D01*
X424520Y222709D01*
X424495Y222740D01*
X424474Y222761D01*
X424469Y222766D01*
X424407Y222812D01*
X424335Y222853D01*
X424257Y222879D01*
X424185Y222900D01*
X424123Y222910D01*
X424066Y222915D01*
X424046Y222920D01*
D02*
G37*
G36*
X435573Y256796D02*
X435562D01*
X435551D01*
X435545D01*
Y255697D01*
X435651Y255703D01*
X435745Y255719D01*
X435828Y255742D01*
X435895Y255775D01*
X435951Y255803D01*
X435990Y255831D01*
X436017Y255847D01*
X436023Y255853D01*
X436084Y255914D01*
X436128Y255980D01*
X436156Y256047D01*
X436178Y256108D01*
X436189Y256164D01*
X436200Y256208D01*
Y256247D01*
X436195Y256330D01*
X436173Y256402D01*
X436145Y256469D01*
X436117Y256524D01*
X436084Y256569D01*
X436056Y256602D01*
X436034Y256624D01*
X436028Y256630D01*
X435962Y256680D01*
X435884Y256724D01*
X435801Y256752D01*
X435723Y256774D01*
X435656Y256785D01*
X435595Y256791D01*
X435573Y256796D01*
D02*
G37*
G36*
X435373Y253683D02*
X435340D01*
X435318D01*
X435301D01*
X435296D01*
X435146Y253677D01*
X435013Y253655D01*
X434902Y253627D01*
X434813Y253594D01*
X434741Y253560D01*
X434691Y253533D01*
X434663Y253511D01*
X434652Y253505D01*
X434580Y253433D01*
X434530Y253361D01*
X434491Y253289D01*
X434469Y253222D01*
X434452Y253161D01*
X434447Y253116D01*
X434441Y253083D01*
Y253072D01*
X434447Y253017D01*
X434452Y252961D01*
X434485Y252861D01*
X434530Y252778D01*
X434585Y252706D01*
X434635Y252650D01*
X434680Y252611D01*
X434713Y252589D01*
X434719Y252578D01*
X434724D01*
X434763Y252556D01*
X434807Y252539D01*
X434907Y252506D01*
X435018Y252484D01*
X435124Y252473D01*
X435218Y252462D01*
X435257D01*
X435296Y252456D01*
X435323D01*
X435351D01*
X435362D01*
X435368D01*
X435512Y252462D01*
X435640Y252484D01*
X435745Y252512D01*
X435834Y252545D01*
X435901Y252573D01*
X435951Y252600D01*
X435978Y252623D01*
X435990Y252628D01*
X436062Y252700D01*
X436112Y252772D01*
X436150Y252845D01*
X436173Y252917D01*
X436189Y252972D01*
X436195Y253022D01*
X436200Y253056D01*
Y253067D01*
X436189Y253161D01*
X436167Y253250D01*
X436134Y253322D01*
X436095Y253389D01*
X436056Y253438D01*
X436023Y253472D01*
X436001Y253500D01*
X435990Y253505D01*
X435945Y253538D01*
X435901Y253566D01*
X435790Y253610D01*
X435679Y253638D01*
X435562Y253660D01*
X435462Y253672D01*
X435412Y253677D01*
X435373Y253683D01*
D02*
G37*
G36*
X435573Y250530D02*
X435562D01*
X435551D01*
X435545D01*
Y249431D01*
X435651Y249437D01*
X435745Y249453D01*
X435828Y249476D01*
X435895Y249509D01*
X435951Y249537D01*
X435990Y249565D01*
X436017Y249581D01*
X436023Y249587D01*
X436084Y249648D01*
X436128Y249714D01*
X436156Y249781D01*
X436178Y249842D01*
X436189Y249898D01*
X436200Y249942D01*
Y249981D01*
X436195Y250064D01*
X436173Y250136D01*
X436145Y250203D01*
X436117Y250258D01*
X436084Y250303D01*
X436056Y250336D01*
X436034Y250358D01*
X436028Y250364D01*
X435962Y250414D01*
X435884Y250458D01*
X435801Y250486D01*
X435723Y250508D01*
X435656Y250519D01*
X435595Y250525D01*
X435573Y250530D01*
D02*
G37*
G36*
Y247544D02*
X435562D01*
X435551D01*
X435545D01*
Y246445D01*
X435651Y246451D01*
X435745Y246468D01*
X435828Y246490D01*
X435895Y246523D01*
X435951Y246551D01*
X435990Y246579D01*
X436017Y246595D01*
X436023Y246601D01*
X436084Y246662D01*
X436128Y246728D01*
X436156Y246795D01*
X436178Y246856D01*
X436189Y246912D01*
X436200Y246956D01*
Y246995D01*
X436195Y247078D01*
X436173Y247150D01*
X436145Y247217D01*
X436117Y247272D01*
X436084Y247317D01*
X436056Y247350D01*
X436034Y247372D01*
X436028Y247378D01*
X435962Y247428D01*
X435884Y247472D01*
X435801Y247500D01*
X435723Y247522D01*
X435656Y247533D01*
X435595Y247539D01*
X435573Y247544D01*
D02*
G37*
G36*
X435373Y239364D02*
X435340D01*
X435318D01*
X435301D01*
X435296D01*
X435146Y239358D01*
X435013Y239336D01*
X434902Y239308D01*
X434813Y239275D01*
X434741Y239242D01*
X434691Y239214D01*
X434663Y239192D01*
X434652Y239186D01*
X434580Y239114D01*
X434530Y239042D01*
X434491Y238970D01*
X434469Y238903D01*
X434452Y238842D01*
X434447Y238797D01*
X434441Y238764D01*
Y238753D01*
X434447Y238698D01*
X434452Y238642D01*
X434485Y238542D01*
X434530Y238459D01*
X434585Y238387D01*
X434635Y238331D01*
X434680Y238293D01*
X434713Y238270D01*
X434719Y238259D01*
X434724D01*
X434763Y238237D01*
X434807Y238220D01*
X434907Y238187D01*
X435018Y238165D01*
X435124Y238154D01*
X435218Y238143D01*
X435257D01*
X435296Y238137D01*
X435323D01*
X435351D01*
X435362D01*
X435368D01*
X435512Y238143D01*
X435640Y238165D01*
X435745Y238193D01*
X435834Y238226D01*
X435901Y238254D01*
X435951Y238281D01*
X435978Y238304D01*
X435990Y238309D01*
X436062Y238381D01*
X436112Y238453D01*
X436150Y238526D01*
X436173Y238598D01*
X436189Y238653D01*
X436195Y238703D01*
X436200Y238737D01*
Y238748D01*
X436189Y238842D01*
X436167Y238931D01*
X436134Y239003D01*
X436095Y239070D01*
X436056Y239119D01*
X436023Y239153D01*
X436001Y239180D01*
X435990Y239186D01*
X435945Y239219D01*
X435901Y239247D01*
X435790Y239292D01*
X435679Y239319D01*
X435562Y239341D01*
X435462Y239352D01*
X435412Y239358D01*
X435373Y239364D01*
D02*
G37*
G36*
X435251Y234008D02*
X435102D01*
X435013D01*
X434935Y234002D01*
X434874Y233997D01*
X434824Y233991D01*
X434791Y233986D01*
X434763Y233980D01*
X434752Y233975D01*
X434746D01*
X434696Y233958D01*
X434646Y233930D01*
X434608Y233902D01*
X434569Y233875D01*
X434541Y233847D01*
X434519Y233825D01*
X434508Y233808D01*
X434502Y233803D01*
X434458Y233736D01*
X434430Y233664D01*
X434408Y233603D01*
X434391Y233542D01*
X434380Y233492D01*
X434374Y233453D01*
Y233420D01*
X434380Y233359D01*
X434391Y233297D01*
X434408Y233247D01*
X434430Y233209D01*
X434452Y233170D01*
X434469Y233148D01*
X434480Y233131D01*
X434485Y233125D01*
X434530Y233087D01*
X434574Y233059D01*
X434619Y233042D01*
X434663Y233031D01*
X434696Y233020D01*
X434724Y233014D01*
X434746D01*
X434752D01*
X434807Y233020D01*
X434857Y233037D01*
X434902Y233059D01*
X434940Y233087D01*
X434968Y233109D01*
X434991Y233131D01*
X435002Y233148D01*
X435007Y233153D01*
X435029Y233198D01*
X435057Y233253D01*
X435079Y233320D01*
X435096Y233386D01*
X435113Y233453D01*
X435124Y233503D01*
X435129Y233525D01*
X435135Y233542D01*
Y233553D01*
X435157Y233664D01*
X435179Y233753D01*
X435201Y233836D01*
X435218Y233897D01*
X435235Y233947D01*
X435240Y233980D01*
X435251Y234002D01*
Y234008D01*
D02*
G37*
G36*
X435351Y231144D02*
X435329D01*
X435318D01*
X435312D01*
X435168Y231133D01*
X435035Y231111D01*
X434929Y231083D01*
X434835Y231044D01*
X434768Y231005D01*
X434713Y230978D01*
X434685Y230955D01*
X434674Y230944D01*
X434602Y230867D01*
X434547Y230789D01*
X434513Y230706D01*
X434485Y230628D01*
X434469Y230561D01*
X434463Y230511D01*
X434458Y230489D01*
Y230461D01*
X434469Y230356D01*
X434491Y230262D01*
X434524Y230178D01*
X434569Y230112D01*
X434608Y230051D01*
X434641Y230006D01*
X434663Y229984D01*
X434674Y229973D01*
X434763Y229906D01*
X434868Y229862D01*
X434974Y229829D01*
X435079Y229801D01*
X435168Y229790D01*
X435207Y229784D01*
X435246D01*
X435274Y229779D01*
X435296D01*
X435307D01*
X435312D01*
X435457Y229790D01*
X435584Y229812D01*
X435695Y229840D01*
X435784Y229879D01*
X435851Y229912D01*
X435906Y229945D01*
X435934Y229967D01*
X435945Y229973D01*
X436017Y230051D01*
X436073Y230134D01*
X436112Y230217D01*
X436139Y230295D01*
X436156Y230362D01*
X436162Y230412D01*
X436167Y230434D01*
Y230461D01*
X436156Y230567D01*
X436134Y230661D01*
X436095Y230739D01*
X436056Y230811D01*
X436017Y230867D01*
X435978Y230911D01*
X435956Y230933D01*
X435945Y230944D01*
X435856Y231011D01*
X435751Y231061D01*
X435645Y231094D01*
X435545Y231122D01*
X435457Y231133D01*
X435412Y231138D01*
X435379D01*
X435351Y231144D01*
D02*
G37*
G36*
X436711Y227598D02*
X436689D01*
X436683D01*
X436617Y227592D01*
X436556Y227581D01*
X436506Y227559D01*
X436461Y227542D01*
X436422Y227520D01*
X436400Y227498D01*
X436383Y227487D01*
X436378Y227481D01*
X436339Y227437D01*
X436311Y227387D01*
X436289Y227337D01*
X436272Y227287D01*
X436256Y227237D01*
X436250Y227204D01*
X436245Y227181D01*
Y227148D01*
X436239Y227115D01*
Y226943D01*
X436234Y226848D01*
Y226105D01*
X437122D01*
Y226876D01*
X437116Y226937D01*
Y227081D01*
X437111Y227115D01*
Y227176D01*
X437105Y227198D01*
Y227204D01*
X437094Y227270D01*
X437077Y227331D01*
X437055Y227381D01*
X437033Y227426D01*
X437011Y227453D01*
X436988Y227481D01*
X436977Y227492D01*
X436972Y227498D01*
X436927Y227531D01*
X436877Y227553D01*
X436833Y227575D01*
X436789Y227587D01*
X436744Y227592D01*
X436711Y227598D01*
D02*
G37*
G36*
X435096Y227742D02*
X435074D01*
X435068D01*
X434996Y227736D01*
X434929Y227725D01*
X434874Y227709D01*
X434830Y227686D01*
X434791Y227664D01*
X434763Y227648D01*
X434746Y227637D01*
X434741Y227631D01*
X434702Y227587D01*
X434669Y227542D01*
X434641Y227492D01*
X434619Y227448D01*
X434608Y227409D01*
X434596Y227376D01*
X434591Y227353D01*
Y227348D01*
X434585Y227326D01*
Y227292D01*
X434580Y227220D01*
X434574Y227131D01*
Y227043D01*
X434569Y226959D01*
Y226105D01*
X435595D01*
Y226909D01*
X435590Y226987D01*
X435584Y227054D01*
Y227120D01*
X435579Y227176D01*
X435573Y227226D01*
X435568Y227265D01*
X435562Y227304D01*
X435557Y227331D01*
X435551Y227376D01*
X435540Y227403D01*
Y227409D01*
X435518Y227464D01*
X435490Y227514D01*
X435462Y227559D01*
X435429Y227592D01*
X435407Y227620D01*
X435385Y227637D01*
X435368Y227648D01*
X435362Y227653D01*
X435312Y227681D01*
X435262Y227703D01*
X435218Y227720D01*
X435168Y227731D01*
X435129Y227736D01*
X435096Y227742D01*
D02*
G37*
G36*
X435945Y220288D02*
X435906D01*
X435879D01*
X435856D01*
X435840D01*
X435834D01*
X435679Y220283D01*
X435534Y220277D01*
X435418Y220261D01*
X435318Y220249D01*
X435235Y220233D01*
X435201Y220227D01*
X435179Y220216D01*
X435157Y220211D01*
X435140D01*
X435135Y220205D01*
X435129D01*
X435040Y220172D01*
X434963Y220144D01*
X434902Y220105D01*
X434852Y220077D01*
X434813Y220050D01*
X434785Y220027D01*
X434768Y220011D01*
X434763Y220005D01*
X434724Y219955D01*
X434691Y219905D01*
X434663Y219855D01*
X434641Y219805D01*
X434624Y219761D01*
X434613Y219728D01*
X434602Y219706D01*
Y219694D01*
X434591Y219633D01*
X434585Y219561D01*
X434574Y219483D01*
Y219406D01*
X434569Y219334D01*
Y218651D01*
X437111D01*
Y219156D01*
X437105Y219228D01*
Y219295D01*
X437100Y219350D01*
Y219400D01*
X437094Y219450D01*
Y219489D01*
X437083Y219550D01*
X437077Y219595D01*
X437072Y219622D01*
Y219628D01*
X437049Y219706D01*
X437022Y219772D01*
X436994Y219833D01*
X436961Y219889D01*
X436933Y219928D01*
X436911Y219961D01*
X436894Y219977D01*
X436889Y219983D01*
X436833Y220033D01*
X436772Y220077D01*
X436711Y220116D01*
X436656Y220149D01*
X436600Y220172D01*
X436556Y220188D01*
X436528Y220199D01*
X436522Y220205D01*
X436517D01*
X436417Y220233D01*
X436311Y220255D01*
X436195Y220266D01*
X436084Y220277D01*
X435990Y220283D01*
X435945Y220288D01*
D02*
G37*
%LPD*%
D12*
X360672Y218782D02*
Y246479D01*
X357480Y215590D02*
X360672Y218782D01*
Y246479D02*
X362693Y248500D01*
X368600D01*
X397493Y233022D02*
X408535D01*
X409121Y233608D01*
Y247657D01*
X397311Y230438D02*
X408408D01*
X413184Y225662D01*
X409121Y247657D02*
X413323Y251860D01*
X388739Y248537D02*
X396035D01*
X387221Y247289D02*
X387492D01*
X388739Y248537D01*
X384891Y245009D02*
X393315D01*
X393498Y245193D01*
X349332Y217062D02*
X349419Y217149D01*
Y220294D01*
X349377Y220335D02*
Y222521D01*
X349332Y211565D02*
Y217062D01*
X349377Y220335D02*
X349419Y220294D01*
X346781Y225118D02*
X349377Y222521D01*
X349332Y211565D02*
X349480Y211417D01*
X342936Y212873D02*
Y250319D01*
X341480Y211417D02*
X342936Y212873D01*
X346781Y225118D02*
X346781D01*
X344436Y227463D02*
Y237219D01*
Y227463D02*
X346781Y225118D01*
X347365Y238492D02*
X347441Y238568D01*
X345709Y238492D02*
X347365D01*
X344436Y237219D02*
X345709Y238492D01*
X342936Y250319D02*
X345550Y252933D01*
X347399D02*
X347441Y252975D01*
X345550Y252933D02*
X347399D01*
X347250Y249672D02*
X347441Y249863D01*
X345386Y244952D02*
Y248932D01*
X346126Y249672D01*
X347534Y244366D02*
X347600Y244300D01*
X346126Y249672D02*
X347250D01*
X357480Y211417D02*
Y215590D01*
X363075Y240414D02*
X363661Y241000D01*
X363075Y219271D02*
Y240414D01*
Y219271D02*
X365480Y216865D01*
X363661Y241000D02*
X368100D01*
X345971Y244366D02*
X347534D01*
X345386Y244952D02*
X345971Y244366D01*
X350106Y242203D02*
Y246517D01*
X349303Y241400D02*
X350106Y242203D01*
X349501Y247123D02*
X350106Y246517D01*
X347598Y247123D02*
X349501D01*
X347598Y241400D02*
X349303D01*
X365480Y211417D02*
Y216865D01*
X382725Y247175D02*
X384891Y245009D01*
X382725Y247175D02*
Y247410D01*
X397390Y233125D02*
X397493Y233022D01*
X321700Y210908D02*
Y266782D01*
X442992D01*
Y210908D02*
Y266782D01*
X321700Y210908D02*
X442992D01*
D58*
X347602Y234322D02*
D03*
Y257078D02*
D03*
D59*
X349570Y228692D02*
D03*
Y262708D02*
D03*
D60*
X333113Y228692D02*
D03*
Y262708D02*
D03*
D64*
X374134Y238988D02*
Y248402D01*
Y227524D02*
Y238988D01*
Y227524D02*
X382160Y219497D01*
X390029Y230869D02*
X394699Y226200D01*
X389882Y231102D02*
Y238988D01*
X368035Y252655D02*
X369880D01*
X374134Y248402D01*
X367652Y253038D02*
X368035Y252655D01*
X382008Y238988D02*
Y244592D01*
X363300Y259000D02*
X367600D01*
X382008Y244592D01*
D65*
X442500Y218752D02*
D03*
Y250748D02*
D03*
Y226752D02*
D03*
Y234750D02*
D03*
Y242750D02*
D03*
Y258748D02*
D03*
D66*
X341480Y211417D02*
D03*
X349480D02*
D03*
X365480D02*
D03*
X357480D02*
D03*
D67*
X405512Y220276D02*
D03*
Y257480D02*
D03*
D68*
X390256Y223043D02*
D03*
X365650D02*
D03*
D69*
X384389Y223292D02*
D03*
X362672Y245650D02*
D03*
X414726Y248604D02*
D03*
X411121Y245545D02*
D03*
X403900Y235724D02*
D03*
X383858Y233465D02*
D03*
X377953Y239370D02*
D03*
Y237402D02*
D03*
Y235433D02*
D03*
X391492Y252486D02*
D03*
X380600Y258600D02*
D03*
X396035Y248537D02*
D03*
X393498Y245193D02*
D03*
X340551Y219291D02*
D03*
X351414Y221542D02*
D03*
X338779Y223228D02*
D03*
X340551D02*
D03*
X366880Y233891D02*
D03*
X366895Y230316D02*
D03*
X347441Y249863D02*
D03*
Y247123D02*
D03*
Y252975D02*
D03*
Y238568D02*
D03*
Y244300D02*
D03*
X368100Y241000D02*
D03*
X377953Y233465D02*
D03*
X414485Y254731D02*
D03*
X413184Y225662D02*
D03*
X413323Y251860D02*
D03*
X387221Y247289D02*
D03*
X382725Y247410D02*
D03*
X368600Y248500D02*
D03*
X414581Y222837D02*
D03*
X397311Y230438D02*
D03*
X397390Y233125D02*
D03*
X338779Y221260D02*
D03*
X347441Y241400D02*
D03*
X357900Y259000D02*
D03*
X363963Y253553D02*
D03*
X403500Y245600D02*
D03*
X381890Y233465D02*
D03*
X379921D02*
D03*
X340551Y221260D02*
D03*
X338779Y219291D02*
D03*
D70*
X357672Y226322D02*
D03*
X357608Y237018D02*
D03*
X346419Y219051D02*
D03*
X332500Y224224D02*
D03*
X367280Y219309D02*
D03*
X394700Y226201D02*
D03*
X382160Y219497D02*
D03*
X367652Y253038D02*
D03*
X363300Y259000D02*
D03*
X356706Y254481D02*
D03*
D71*
X389882Y238988D02*
D03*
X382008D02*
D03*
X374134D02*
D03*
M02*
