G04*
G04 #@! TF.GenerationSoftware,Altium Limited,Altium Designer,22.9.1 (49)*
G04*
G04 Layer_Color=255*
%FSLAX25Y25*%
%MOIN*%
G70*
G04*
G04 #@! TF.SameCoordinates,99EDC848-FFF2-4FEE-B3B6-03ACF2C802E6*
G04*
G04*
G04 #@! TF.FilePolarity,Positive*
G04*
G01*
G75*
%ADD12C,0.01000*%
%ADD17R,0.01968X0.02362*%
%ADD18R,0.06496X0.04921*%
%ADD19C,0.01181*%
%ADD20C,0.00394*%
%ADD21R,0.07480X0.02362*%
%ADD22R,0.11024X0.08268*%
%ADD23R,0.05339X0.04153*%
%ADD24R,0.02362X0.04331*%
%ADD25R,0.04528X0.02362*%
%ADD26R,0.04528X0.01181*%
%ADD27R,0.01417X0.01260*%
%ADD28R,0.02165X0.01772*%
%ADD29R,0.02000X0.01402*%
%ADD30R,0.01968X0.00984*%
%ADD31C,0.01063*%
%ADD32R,0.02165X0.02362*%
%ADD33R,0.02362X0.01968*%
%ADD34R,0.02362X0.02165*%
%ADD35R,0.01772X0.02165*%
%ADD36R,0.01378X0.02362*%
G04:AMPARAMS|DCode=37|XSize=21.89mil|YSize=11.52mil|CornerRadius=5.76mil|HoleSize=0mil|Usage=FLASHONLY|Rotation=0.000|XOffset=0mil|YOffset=0mil|HoleType=Round|Shape=RoundedRectangle|*
%AMROUNDEDRECTD37*
21,1,0.02189,0.00000,0,0,0.0*
21,1,0.01038,0.01152,0,0,0.0*
1,1,0.01152,0.00519,0.00000*
1,1,0.01152,-0.00519,0.00000*
1,1,0.01152,-0.00519,0.00000*
1,1,0.01152,0.00519,0.00000*
%
%ADD37ROUNDEDRECTD37*%
%ADD38R,0.02189X0.01152*%
%ADD47C,0.09035*%
%ADD53R,0.04331X0.06693*%
%ADD58C,0.02559*%
G04:AMPARAMS|DCode=59|XSize=39.37mil|YSize=82.68mil|CornerRadius=19.68mil|HoleSize=0mil|Usage=FLASHONLY|Rotation=270.000|XOffset=0mil|YOffset=0mil|HoleType=Round|Shape=RoundedRectangle|*
%AMROUNDEDRECTD59*
21,1,0.03937,0.04331,0,0,270.0*
21,1,0.00000,0.08268,0,0,270.0*
1,1,0.03937,-0.02165,0.00000*
1,1,0.03937,-0.02165,0.00000*
1,1,0.03937,0.02165,0.00000*
1,1,0.03937,0.02165,0.00000*
%
%ADD59ROUNDEDRECTD59*%
G04:AMPARAMS|DCode=60|XSize=39.37mil|YSize=70.87mil|CornerRadius=19.68mil|HoleSize=0mil|Usage=FLASHONLY|Rotation=270.000|XOffset=0mil|YOffset=0mil|HoleType=Round|Shape=RoundedRectangle|*
%AMROUNDEDRECTD60*
21,1,0.03937,0.03150,0,0,270.0*
21,1,0.00000,0.07087,0,0,270.0*
1,1,0.03937,-0.01575,0.00000*
1,1,0.03937,-0.01575,0.00000*
1,1,0.03937,0.01575,0.00000*
1,1,0.03937,0.01575,0.00000*
%
%ADD60ROUNDEDRECTD60*%
%ADD65R,0.06000X0.06000*%
%ADD66R,0.06000X0.06000*%
%ADD67C,0.15748*%
%ADD68C,0.03150*%
D12*
X321700Y265800D02*
X442000Y265800D01*
X321700Y211950D02*
Y265800D01*
Y211950D02*
X442000D01*
Y219900D01*
Y265800D01*
D17*
X350228Y218492D02*
D03*
X353772D02*
D03*
X414764Y225673D02*
D03*
X418307D02*
D03*
X414764Y251882D02*
D03*
X418307D02*
D03*
X327972Y222544D02*
D03*
X331516D02*
D03*
X333500Y222661D02*
D03*
Y218724D02*
D03*
D18*
X360200Y233283D02*
D03*
Y219701D02*
D03*
D19*
X386213Y219548D02*
D03*
X377961Y219587D02*
D03*
D20*
X388989Y219568D02*
D03*
X375184Y219567D02*
D03*
D21*
X414790Y240714D02*
D03*
Y232839D02*
D03*
Y248587D02*
D03*
Y228903D02*
D03*
Y244651D02*
D03*
Y236776D02*
D03*
D22*
X424042Y216501D02*
D03*
Y260989D02*
D03*
D23*
X370646Y219151D02*
D03*
Y224865D02*
D03*
D24*
X400160Y233679D02*
D03*
X403900D02*
D03*
X407640D02*
D03*
Y243521D02*
D03*
X403900D02*
D03*
X400160D02*
D03*
D25*
X351834Y233102D02*
D03*
Y258298D02*
D03*
Y236251D02*
D03*
Y255149D02*
D03*
D26*
Y238810D02*
D03*
Y240779D02*
D03*
Y242747D02*
D03*
Y244716D02*
D03*
Y246684D02*
D03*
Y248653D02*
D03*
Y250621D02*
D03*
Y252590D02*
D03*
D27*
X374002Y253900D02*
D03*
X371798D02*
D03*
X387298Y254200D02*
D03*
X389502D02*
D03*
X370514Y230709D02*
D03*
X368310D02*
D03*
D28*
X328028Y218874D02*
D03*
X379124Y256100D02*
D03*
X382076D02*
D03*
X382124Y258600D02*
D03*
X385076D02*
D03*
X376224D02*
D03*
X379176D02*
D03*
X377776Y247800D02*
D03*
X374824D02*
D03*
X377224Y224200D02*
D03*
X380176D02*
D03*
X390224Y259300D02*
D03*
X393176D02*
D03*
X395776Y233000D02*
D03*
X392824D02*
D03*
X395776Y230400D02*
D03*
X392824D02*
D03*
X393176Y256700D02*
D03*
X390224D02*
D03*
X367276Y242100D02*
D03*
X364324D02*
D03*
X366976Y249200D02*
D03*
X364024D02*
D03*
X330980Y218874D02*
D03*
D29*
X382151Y254169D02*
D03*
Y250232D02*
D03*
X387249Y252200D02*
D03*
X374051D02*
D03*
X379149Y254169D02*
D03*
Y250232D02*
D03*
D30*
X360650Y250375D02*
D03*
Y240926D02*
D03*
Y244076D02*
D03*
Y247225D02*
D03*
X357500Y245650D02*
D03*
Y248800D02*
D03*
Y242501D02*
D03*
Y238958D02*
D03*
Y252343D02*
D03*
D31*
X375779Y243358D02*
D03*
X377747Y243297D02*
D03*
X379716D02*
D03*
X381684Y243358D02*
D03*
X383653Y243297D02*
D03*
X385621D02*
D03*
Y226860D02*
D03*
X383653Y227942D02*
D03*
X381684D02*
D03*
X379716Y227882D02*
D03*
X377747Y227942D02*
D03*
X375779D02*
D03*
X388438Y240541D02*
D03*
X388377Y238572D02*
D03*
Y236604D02*
D03*
X388438Y234635D02*
D03*
X388377Y232667D02*
D03*
Y230698D02*
D03*
X371940D02*
D03*
X373023Y232667D02*
D03*
Y234635D02*
D03*
X372962Y236604D02*
D03*
X373023Y238572D02*
D03*
Y240541D02*
D03*
D32*
X365700Y235327D02*
D03*
Y238673D02*
D03*
D33*
X370503Y228516D02*
D03*
X366566D02*
D03*
X346507Y224788D02*
D03*
X350444D02*
D03*
D34*
X363973Y255300D02*
D03*
X360627D02*
D03*
D35*
X353800Y224169D02*
D03*
Y221217D02*
D03*
X393500Y237724D02*
D03*
Y240676D02*
D03*
X396100Y237724D02*
D03*
Y240676D02*
D03*
D36*
X346516Y221776D02*
D03*
X349075D02*
D03*
D37*
X343700Y223759D02*
D03*
Y221200D02*
D03*
Y218641D02*
D03*
X335999D02*
D03*
Y221200D02*
D03*
D38*
Y223759D02*
D03*
D47*
X380700Y235620D02*
D03*
D53*
X339849Y221200D02*
D03*
D58*
X347602Y234322D02*
D03*
Y257078D02*
D03*
D59*
X349570Y228692D02*
D03*
Y262708D02*
D03*
D60*
X333113Y228692D02*
D03*
Y262708D02*
D03*
D65*
X442500Y218752D02*
D03*
Y250748D02*
D03*
Y226752D02*
D03*
Y234750D02*
D03*
Y242750D02*
D03*
Y258748D02*
D03*
D66*
X341480Y211417D02*
D03*
X349480D02*
D03*
X365480D02*
D03*
X357480D02*
D03*
D67*
X405512Y220276D02*
D03*
Y257480D02*
D03*
D68*
X390256Y223043D02*
D03*
X365650D02*
D03*
M02*
