G04*
G04 #@! TF.GenerationSoftware,Altium Limited,Altium Designer,22.9.1 (49)*
G04*
G04 Layer_Physical_Order=3*
G04 Layer_Color=16440176*
%FSLAX25Y25*%
%MOIN*%
G70*
G04*
G04 #@! TF.SameCoordinates,E7B6729E-600D-4C31-B664-834E27CDD885*
G04*
G04*
G04 #@! TF.FilePolarity,Positive*
G04*
G01*
G75*
%ADD12C,0.01000*%
%ADD64C,0.02000*%
%ADD65R,0.06000X0.06000*%
%ADD69C,0.02000*%
%ADD70C,0.04000*%
G36*
X438750Y260277D02*
X437054D01*
X436469Y260161D01*
X435973Y259829D01*
X423273Y247129D01*
X416080D01*
X415873Y247629D01*
X415998Y247754D01*
X416226Y248306D01*
Y248902D01*
X415998Y249454D01*
X415576Y249876D01*
X415024Y250104D01*
X414428D01*
X413876Y249876D01*
X413454Y249454D01*
X413226Y248902D01*
Y248306D01*
X413454Y247754D01*
X413579Y247629D01*
X413372Y247129D01*
X411105D01*
X411085Y247125D01*
X411065Y247129D01*
X403500D01*
X403352Y247100D01*
X403202D01*
X403062Y247042D01*
X402915Y247013D01*
X402789Y246929D01*
X402650Y246872D01*
X402544Y246765D01*
X402419Y246681D01*
X399714Y243977D01*
X395058D01*
X394826Y244477D01*
X394999Y244894D01*
Y245491D01*
X394770Y246042D01*
X394348Y246464D01*
X393797Y246692D01*
X393200D01*
X392649Y246464D01*
X392227Y246042D01*
X391999Y245491D01*
Y244894D01*
X392171Y244477D01*
X391939Y243977D01*
X382019D01*
X371841Y254155D01*
X371344Y254487D01*
X370759Y254603D01*
X369622D01*
X369068Y255157D01*
X368149Y255538D01*
X367155D01*
X366236Y255157D01*
X365684Y254606D01*
X365419Y254486D01*
X365047Y254589D01*
X364812Y254824D01*
X364261Y255052D01*
X363664D01*
X363113Y254824D01*
X362691Y254402D01*
X362462Y253851D01*
Y253254D01*
X362691Y252703D01*
X363113Y252281D01*
X363664Y252052D01*
X364261D01*
X364732Y252248D01*
X364909Y252247D01*
X365336Y252097D01*
X365533Y251622D01*
X366236Y250918D01*
X367155Y250538D01*
X368149D01*
X369068Y250918D01*
X369646Y251496D01*
X370174D01*
X380304Y241366D01*
X380800Y241035D01*
X381385Y240918D01*
X400348D01*
X400933Y241035D01*
X401429Y241366D01*
X404134Y244071D01*
X410759D01*
X410822Y244044D01*
X410973D01*
X411121Y244015D01*
X411268Y244044D01*
X411419D01*
X411482Y244071D01*
X423907D01*
X424492Y244187D01*
X424988Y244519D01*
X437688Y257219D01*
X438750D01*
Y215000D01*
X412589D01*
X412353Y215441D01*
X412933Y216309D01*
X413564Y217833D01*
X413886Y219451D01*
Y221100D01*
X413564Y222718D01*
X413138Y223746D01*
X413374Y224099D01*
X413504Y224170D01*
X414034Y224390D01*
X414456Y224812D01*
X414684Y225363D01*
Y225960D01*
X414456Y226511D01*
X414034Y226933D01*
X413482Y227162D01*
X412886D01*
X412334Y226933D01*
X411912Y226511D01*
X411887Y226450D01*
X411297Y226333D01*
X410850Y226780D01*
X409478Y227696D01*
X407954Y228328D01*
X406337Y228650D01*
X404687D01*
X403069Y228328D01*
X401545Y227696D01*
X400174Y226780D01*
X399007Y225614D01*
X398091Y224242D01*
X397460Y222718D01*
X397138Y221100D01*
Y219451D01*
X397460Y217833D01*
X398091Y216309D01*
X398671Y215441D01*
X398435Y215000D01*
X325000D01*
Y262500D01*
X329063D01*
X329213Y261745D01*
X329759Y260928D01*
X330575Y260383D01*
X331539Y260191D01*
X334688D01*
X335651Y260383D01*
X336468Y260928D01*
X337014Y261745D01*
X337164Y262500D01*
X344929D01*
X345079Y261745D01*
X345625Y260928D01*
X346442Y260383D01*
X347405Y260191D01*
X351735D01*
X352699Y260383D01*
X353515Y260928D01*
X354061Y261745D01*
X354211Y262500D01*
X398264D01*
X398500Y262059D01*
X398091Y261447D01*
X397460Y259923D01*
X397138Y258305D01*
Y256656D01*
X397460Y255038D01*
X398091Y253514D01*
X399007Y252142D01*
X400174Y250976D01*
X401545Y250059D01*
X403069Y249428D01*
X404687Y249106D01*
X406337D01*
X407954Y249428D01*
X409478Y250059D01*
X410850Y250976D01*
X411362Y251487D01*
X411917Y251336D01*
X412052Y251011D01*
X412474Y250589D01*
X413025Y250360D01*
X413622D01*
X414173Y250589D01*
X414595Y251011D01*
X414823Y251562D01*
Y252159D01*
X414595Y252710D01*
X414173Y253132D01*
X413622Y253361D01*
X413411D01*
X413076Y253860D01*
X413564Y255038D01*
X413886Y256656D01*
Y258305D01*
X413564Y259923D01*
X412933Y261447D01*
X412524Y262059D01*
X412759Y262500D01*
X438750D01*
Y260277D01*
D02*
G37*
%LPC*%
G36*
X358198Y260500D02*
X357602D01*
X357050Y260272D01*
X356628Y259850D01*
X356400Y259298D01*
Y258702D01*
X356628Y258150D01*
X357050Y257728D01*
X357602Y257500D01*
X358198D01*
X358750Y257728D01*
X359172Y258150D01*
X359400Y258702D01*
Y259298D01*
X359172Y259850D01*
X358750Y260272D01*
X358198Y260500D01*
D02*
G37*
G36*
X347955Y258857D02*
X347248D01*
X346594Y258587D01*
X346093Y258086D01*
X345822Y257432D01*
Y256724D01*
X346093Y256070D01*
X346594Y255569D01*
X347248Y255298D01*
X347955D01*
X348610Y255569D01*
X349110Y256070D01*
X349381Y256724D01*
Y257432D01*
X349110Y258086D01*
X348610Y258587D01*
X347955Y258857D01*
D02*
G37*
G36*
X391790Y253986D02*
X391194D01*
X390642Y253758D01*
X390220Y253336D01*
X389992Y252784D01*
Y252188D01*
X390220Y251636D01*
X390642Y251214D01*
X391194Y250986D01*
X391790D01*
X392342Y251214D01*
X392764Y251636D01*
X392992Y252188D01*
Y252784D01*
X392764Y253336D01*
X392342Y253758D01*
X391790Y253986D01*
D02*
G37*
G36*
X396333Y250037D02*
X395737D01*
X395185Y249808D01*
X394763Y249386D01*
X394535Y248835D01*
Y248238D01*
X394763Y247687D01*
X395185Y247265D01*
X395737Y247037D01*
X396333D01*
X396885Y247265D01*
X397307Y247687D01*
X397535Y248238D01*
Y248835D01*
X397307Y249386D01*
X396885Y249808D01*
X396333Y250037D01*
D02*
G37*
G36*
X368898Y250000D02*
X368302D01*
X367750Y249772D01*
X367328Y249350D01*
X367100Y248798D01*
Y248202D01*
X367328Y247650D01*
X367750Y247228D01*
X368302Y247000D01*
X368898D01*
X369450Y247228D01*
X369872Y247650D01*
X370100Y248202D01*
Y248798D01*
X369872Y249350D01*
X369450Y249772D01*
X368898Y250000D01*
D02*
G37*
G36*
X383023Y248910D02*
X382427D01*
X381875Y248682D01*
X381453Y248260D01*
X381225Y247709D01*
Y247112D01*
X381453Y246561D01*
X381875Y246139D01*
X382427Y245911D01*
X383023D01*
X383575Y246139D01*
X383997Y246561D01*
X384225Y247112D01*
Y247709D01*
X383997Y248260D01*
X383575Y248682D01*
X383023Y248910D01*
D02*
G37*
G36*
X387519Y248790D02*
X386923D01*
X386371Y248561D01*
X385949Y248139D01*
X385721Y247588D01*
Y246991D01*
X385949Y246440D01*
X386371Y246018D01*
X386923Y245790D01*
X387519D01*
X388071Y246018D01*
X388493Y246440D01*
X388721Y246991D01*
Y247588D01*
X388493Y248139D01*
X388071Y248561D01*
X387519Y248790D01*
D02*
G37*
G36*
X331994Y258768D02*
X327059D01*
Y245742D01*
X331994D01*
Y258768D01*
D02*
G37*
G36*
X362970Y247150D02*
X362374D01*
X361822Y246922D01*
X361400Y246500D01*
X361172Y245949D01*
Y245352D01*
X361400Y244801D01*
X361822Y244379D01*
X362374Y244150D01*
X362970D01*
X363522Y244379D01*
X363944Y244801D01*
X364172Y245352D01*
Y245949D01*
X363944Y246500D01*
X363522Y246922D01*
X362970Y247150D01*
D02*
G37*
G36*
X368398Y242500D02*
X367802D01*
X367250Y242272D01*
X366828Y241850D01*
X366600Y241298D01*
Y240702D01*
X366828Y240150D01*
X367250Y239728D01*
X367802Y239500D01*
X368398D01*
X368950Y239728D01*
X369372Y240150D01*
X369600Y240702D01*
Y241298D01*
X369372Y241850D01*
X368950Y242272D01*
X368398Y242500D01*
D02*
G37*
G36*
X347739Y254474D02*
X347143D01*
X346591Y254246D01*
X346169Y253824D01*
X345941Y253273D01*
Y252676D01*
X346169Y252125D01*
X346591Y251703D01*
X346623Y251690D01*
Y251148D01*
X346591Y251135D01*
X346169Y250713D01*
X345941Y250162D01*
Y249565D01*
X346169Y249014D01*
X346363Y248819D01*
X346538Y248493D01*
X346363Y248166D01*
X346169Y247972D01*
X345941Y247421D01*
Y246824D01*
X346169Y246273D01*
X346406Y246036D01*
X346536Y245711D01*
X346406Y245386D01*
X346169Y245150D01*
X345941Y244598D01*
Y244002D01*
X346169Y243450D01*
X346461Y243159D01*
X346544Y242850D01*
X346461Y242541D01*
X346169Y242250D01*
X345941Y241698D01*
Y241102D01*
X346169Y240550D01*
X346412Y240307D01*
X346536Y239984D01*
X346412Y239661D01*
X346169Y239418D01*
X345941Y238867D01*
Y238270D01*
X346169Y237719D01*
X346591Y237297D01*
X347143Y237069D01*
X347739D01*
X348291Y237297D01*
X348713Y237719D01*
X348941Y238270D01*
Y238867D01*
X348713Y239418D01*
X348469Y239661D01*
X348346Y239984D01*
X348469Y240307D01*
X348713Y240550D01*
X348941Y241102D01*
Y241698D01*
X348713Y242250D01*
X348421Y242541D01*
X348338Y242850D01*
X348421Y243159D01*
X348713Y243450D01*
X348941Y244002D01*
Y244598D01*
X348713Y245150D01*
X348476Y245386D01*
X348346Y245711D01*
X348476Y246036D01*
X348713Y246273D01*
X348941Y246824D01*
Y247421D01*
X348713Y247972D01*
X348518Y248166D01*
X348343Y248493D01*
X348518Y248819D01*
X348713Y249014D01*
X348941Y249565D01*
Y250162D01*
X348713Y250713D01*
X348291Y251135D01*
X348258Y251148D01*
Y251690D01*
X348291Y251703D01*
X348713Y252125D01*
X348941Y252676D01*
Y253273D01*
X348713Y253824D01*
X348291Y254246D01*
X347739Y254474D01*
D02*
G37*
G36*
X357203Y256981D02*
X356208D01*
X355289Y256601D01*
X354586Y255897D01*
X354206Y254978D01*
Y253984D01*
X354586Y253065D01*
X355176Y252475D01*
Y242028D01*
X355171Y242000D01*
Y238700D01*
X355287Y238115D01*
X355330Y238051D01*
X355108Y237515D01*
Y236521D01*
X355489Y235602D01*
X356192Y234899D01*
X357111Y234518D01*
X358105D01*
X359024Y234899D01*
X359727Y235602D01*
X360108Y236521D01*
Y237515D01*
X359727Y238434D01*
X359024Y239137D01*
X358229Y239467D01*
Y241978D01*
X358235Y242006D01*
Y252475D01*
X358825Y253065D01*
X359206Y253984D01*
Y254978D01*
X358825Y255897D01*
X358122Y256601D01*
X357203Y256981D01*
D02*
G37*
G36*
X404198Y237224D02*
X403602D01*
X403050Y236995D01*
X402628Y236573D01*
X402400Y236022D01*
Y235425D01*
X402628Y234874D01*
X403050Y234452D01*
X403602Y234224D01*
X404198D01*
X404750Y234452D01*
X405172Y234874D01*
X405400Y235425D01*
Y236022D01*
X405172Y236573D01*
X404750Y236995D01*
X404198Y237224D01*
D02*
G37*
G36*
X347955Y236102D02*
X347248D01*
X346594Y235831D01*
X346093Y235330D01*
X345822Y234676D01*
Y233968D01*
X346093Y233314D01*
X346594Y232813D01*
X347248Y232542D01*
X347955D01*
X348610Y232813D01*
X349110Y233314D01*
X349381Y233968D01*
Y234676D01*
X349110Y235330D01*
X348610Y235831D01*
X347955Y236102D01*
D02*
G37*
G36*
X367178Y235391D02*
X366582D01*
X366030Y235163D01*
X365608Y234741D01*
X365380Y234189D01*
Y233593D01*
X365608Y233041D01*
X366030Y232619D01*
X366582Y232391D01*
X367178D01*
X367730Y232619D01*
X368152Y233041D01*
X368380Y233593D01*
Y234189D01*
X368152Y234741D01*
X367730Y235163D01*
X367178Y235391D01*
D02*
G37*
G36*
X378251Y240870D02*
X377654D01*
X377103Y240642D01*
X376681Y240220D01*
X376453Y239668D01*
Y239072D01*
X376681Y238520D01*
X376816Y238386D01*
X376681Y238251D01*
X376453Y237700D01*
Y237103D01*
X376681Y236552D01*
X376816Y236417D01*
X376681Y236283D01*
X376453Y235731D01*
Y235135D01*
X376681Y234583D01*
X376816Y234449D01*
X376681Y234314D01*
X376453Y233763D01*
Y233166D01*
X376681Y232615D01*
X377103Y232193D01*
X377654Y231965D01*
X378251D01*
X378802Y232193D01*
X378937Y232328D01*
X379072Y232193D01*
X379623Y231965D01*
X380220D01*
X380771Y232193D01*
X380906Y232328D01*
X381040Y232193D01*
X381591Y231965D01*
X382188D01*
X382739Y232193D01*
X382874Y232328D01*
X383009Y232193D01*
X383560Y231965D01*
X384157D01*
X384708Y232193D01*
X385130Y232615D01*
X385358Y233166D01*
Y233763D01*
X385130Y234314D01*
X384708Y234736D01*
X384157Y234965D01*
X383560D01*
X383009Y234736D01*
X382874Y234602D01*
X382739Y234736D01*
X382188Y234965D01*
X381591D01*
X381040Y234736D01*
X380906Y234602D01*
X380771Y234736D01*
X380220Y234965D01*
X379915D01*
X379577Y235089D01*
X379453Y235426D01*
Y235731D01*
X379224Y236283D01*
X379090Y236417D01*
X379224Y236552D01*
X379453Y237103D01*
Y237700D01*
X379224Y238251D01*
X379090Y238386D01*
X379224Y238520D01*
X379453Y239072D01*
Y239668D01*
X379224Y240220D01*
X378802Y240642D01*
X378251Y240870D01*
D02*
G37*
G36*
X397688Y234625D02*
X397092D01*
X396540Y234397D01*
X396118Y233975D01*
X395890Y233423D01*
Y232827D01*
X396118Y232275D01*
X396246Y232148D01*
X396447Y231739D01*
X396246Y231494D01*
X396039Y231288D01*
X395811Y230736D01*
Y230140D01*
X396039Y229588D01*
X396461Y229166D01*
X397013Y228938D01*
X397609D01*
X398161Y229166D01*
X398583Y229588D01*
X398811Y230140D01*
Y230736D01*
X398583Y231288D01*
X398455Y231415D01*
X398254Y231824D01*
X398455Y232069D01*
X398662Y232275D01*
X398890Y232827D01*
Y233423D01*
X398662Y233975D01*
X398240Y234397D01*
X397688Y234625D01*
D02*
G37*
G36*
X367193Y231816D02*
X366597D01*
X366045Y231588D01*
X365623Y231166D01*
X365395Y230614D01*
Y230018D01*
X365623Y229466D01*
X366045Y229044D01*
X366597Y228816D01*
X367193D01*
X367745Y229044D01*
X368167Y229466D01*
X368395Y230018D01*
Y230614D01*
X368167Y231166D01*
X367745Y231588D01*
X367193Y231816D01*
D02*
G37*
G36*
X351735Y231209D02*
X347405D01*
X346442Y231017D01*
X345625Y230472D01*
X345079Y229655D01*
X344888Y228692D01*
X345079Y227729D01*
X345625Y226912D01*
X346442Y226367D01*
X347405Y226175D01*
X351735D01*
X352699Y226367D01*
X353515Y226912D01*
X354061Y227729D01*
X354252Y228692D01*
X354061Y229655D01*
X353515Y230472D01*
X352699Y231017D01*
X351735Y231209D01*
D02*
G37*
G36*
X334688D02*
X331539D01*
X330575Y231017D01*
X329759Y230472D01*
X329213Y229655D01*
X329022Y228692D01*
X329213Y227729D01*
X329759Y226912D01*
X330575Y226367D01*
X331539Y226175D01*
X334688D01*
X335651Y226367D01*
X336468Y226912D01*
X337014Y227729D01*
X337205Y228692D01*
X337014Y229655D01*
X336468Y230472D01*
X335651Y231017D01*
X334688Y231209D01*
D02*
G37*
G36*
X340849Y224728D02*
X340253D01*
X339702Y224500D01*
X339665Y224464D01*
X339629Y224500D01*
X339078Y224728D01*
X338481D01*
X337930Y224500D01*
X337508Y224078D01*
X337280Y223527D01*
Y222930D01*
X337508Y222379D01*
X337643Y222244D01*
X337508Y222110D01*
X337280Y221558D01*
Y220961D01*
X337508Y220410D01*
X337643Y220276D01*
X337508Y220141D01*
X337280Y219590D01*
Y218993D01*
X337508Y218442D01*
X337930Y218020D01*
X338481Y217791D01*
X339078D01*
X339629Y218020D01*
X339665Y218056D01*
X339702Y218020D01*
X340253Y217791D01*
X340849D01*
X341401Y218020D01*
X341823Y218442D01*
X342051Y218993D01*
Y219590D01*
X341823Y220141D01*
X341688Y220276D01*
X341823Y220410D01*
X342051Y220961D01*
Y221558D01*
X341823Y222110D01*
X341688Y222244D01*
X341823Y222379D01*
X342051Y222930D01*
Y223527D01*
X341823Y224078D01*
X341401Y224500D01*
X340849Y224728D01*
D02*
G37*
G36*
X358169Y228821D02*
X357175D01*
X356256Y228441D01*
X355553Y227738D01*
X355172Y226819D01*
Y225824D01*
X355553Y224905D01*
X355851Y224607D01*
X351786Y220541D01*
X348465D01*
X347835Y221170D01*
X346917Y221551D01*
X345922D01*
X345003Y221170D01*
X344300Y220467D01*
X343919Y219548D01*
Y218554D01*
X344300Y217635D01*
X345003Y216932D01*
X345922Y216551D01*
X346917D01*
X347835Y216932D01*
X348386Y217482D01*
X352419D01*
X353005Y217599D01*
X353501Y217930D01*
X358806Y223236D01*
X359138Y223732D01*
X359254Y224317D01*
Y224368D01*
X359618Y224732D01*
X363751D01*
X363942Y224270D01*
X363891Y224219D01*
X363575Y223456D01*
Y222631D01*
X363891Y221868D01*
X364474Y221284D01*
X365237Y220969D01*
X366062D01*
X366825Y221284D01*
X367408Y221868D01*
X367724Y222631D01*
Y223456D01*
X367408Y224219D01*
X367357Y224270D01*
X367549Y224732D01*
X383000D01*
X383207Y224232D01*
X383117Y224142D01*
X382889Y223590D01*
Y222994D01*
X383117Y222442D01*
X383279Y222281D01*
X382995Y221857D01*
X382658Y221997D01*
X381663D01*
X380744Y221616D01*
X380041Y220913D01*
X379661Y219994D01*
Y219000D01*
X380041Y218081D01*
X380744Y217378D01*
X381663Y216997D01*
X382658D01*
X383577Y217378D01*
X384280Y218081D01*
X384661Y219000D01*
Y219994D01*
X384280Y220913D01*
X383837Y221356D01*
X384062Y221742D01*
X384108Y221792D01*
X384687D01*
X385239Y222020D01*
X385661Y222442D01*
X385889Y222994D01*
Y223590D01*
X385661Y224142D01*
X385571Y224232D01*
X385778Y224732D01*
X388357D01*
X388548Y224270D01*
X388497Y224219D01*
X388181Y223456D01*
Y222631D01*
X388497Y221868D01*
X389081Y221284D01*
X389843Y220969D01*
X390669D01*
X391431Y221284D01*
X392015Y221868D01*
X392331Y222631D01*
Y223456D01*
X392015Y224219D01*
X391964Y224270D01*
X392155Y224732D01*
X392634D01*
X393284Y224081D01*
X394203Y223701D01*
X395197D01*
X396116Y224081D01*
X396819Y224785D01*
X397200Y225704D01*
Y226698D01*
X396819Y227617D01*
X396116Y228320D01*
X395197Y228701D01*
X394203D01*
X393284Y228320D01*
X392754Y227790D01*
X359738D01*
X359088Y228441D01*
X358169Y228821D01*
D02*
G37*
%LPD*%
G36*
X328730Y251386D02*
X328725D01*
X328719D01*
X328686Y251380D01*
X328636Y251369D01*
X328575Y251352D01*
X328508Y251325D01*
X328436Y251297D01*
X328369Y251253D01*
X328308Y251203D01*
X328303Y251197D01*
X328286Y251175D01*
X328264Y251142D01*
X328242Y251103D01*
X328214Y251047D01*
X328192Y250986D01*
X328175Y250920D01*
X328170Y250842D01*
Y250831D01*
X328175Y250803D01*
X328181Y250764D01*
X328192Y250709D01*
X328214Y250648D01*
X328242Y250587D01*
X328286Y250520D01*
X328342Y250459D01*
X328347Y250453D01*
X328375Y250431D01*
X328414Y250409D01*
X328464Y250376D01*
X328530Y250348D01*
X328614Y250320D01*
X328708Y250304D01*
X328813Y250298D01*
X328819D01*
X328824D01*
X328858D01*
X328908Y250304D01*
X328974Y250315D01*
X329047Y250337D01*
X329119Y250364D01*
X329191Y250403D01*
X329257Y250453D01*
X329263Y250459D01*
X329285Y250481D01*
X329313Y250514D01*
X329341Y250553D01*
X329374Y250609D01*
X329396Y250670D01*
X329418Y250736D01*
X329424Y250814D01*
Y250870D01*
X329418Y250908D01*
X329413Y250958D01*
X329402Y251019D01*
X329385Y251080D01*
X329368Y251153D01*
X329962Y251075D01*
Y251025D01*
X329968Y250970D01*
X329973Y250903D01*
X329990Y250831D01*
X330012Y250753D01*
X330046Y250681D01*
X330090Y250614D01*
X330095Y250609D01*
X330118Y250587D01*
X330145Y250564D01*
X330190Y250531D01*
X330240Y250503D01*
X330301Y250476D01*
X330373Y250459D01*
X330456Y250453D01*
X330467D01*
X330489D01*
X330523Y250459D01*
X330567Y250470D01*
X330617Y250481D01*
X330667Y250503D01*
X330723Y250531D01*
X330767Y250570D01*
X330772Y250575D01*
X330784Y250592D01*
X330806Y250614D01*
X330828Y250653D01*
X330845Y250697D01*
X330867Y250747D01*
X330878Y250814D01*
X330884Y250881D01*
Y250914D01*
X330878Y250947D01*
X330867Y250992D01*
X330850Y251042D01*
X330828Y251097D01*
X330795Y251153D01*
X330750Y251203D01*
X330745Y251208D01*
X330728Y251225D01*
X330695Y251247D01*
X330650Y251275D01*
X330601Y251303D01*
X330534Y251325D01*
X330456Y251347D01*
X330367Y251363D01*
X330478Y252041D01*
X330484D01*
X330495Y252035D01*
X330512D01*
X330539Y252029D01*
X330601Y252013D01*
X330684Y251991D01*
X330772Y251957D01*
X330867Y251924D01*
X330956Y251880D01*
X331039Y251830D01*
X331050Y251824D01*
X331072Y251802D01*
X331111Y251769D01*
X331161Y251724D01*
X331211Y251669D01*
X331266Y251602D01*
X331322Y251519D01*
X331372Y251430D01*
Y251425D01*
X331378Y251419D01*
X331389Y251386D01*
X331411Y251330D01*
X331433Y251264D01*
X331455Y251180D01*
X331477Y251080D01*
X331488Y250975D01*
X331494Y250858D01*
Y250809D01*
X331488Y250770D01*
X331483Y250720D01*
X331477Y250670D01*
X331466Y250609D01*
X331450Y250548D01*
X331411Y250409D01*
X331383Y250337D01*
X331344Y250259D01*
X331305Y250187D01*
X331261Y250120D01*
X331205Y250048D01*
X331144Y249987D01*
X331139Y249982D01*
X331133Y249976D01*
X331117Y249959D01*
X331094Y249943D01*
X331039Y249898D01*
X330961Y249848D01*
X330867Y249798D01*
X330756Y249760D01*
X330634Y249726D01*
X330573Y249721D01*
X330506Y249715D01*
X330501D01*
X330484D01*
X330456Y249721D01*
X330423Y249726D01*
X330379Y249732D01*
X330328Y249743D01*
X330273Y249760D01*
X330212Y249782D01*
X330151Y249815D01*
X330084Y249848D01*
X330018Y249893D01*
X329951Y249948D01*
X329885Y250015D01*
X329818Y250087D01*
X329757Y250170D01*
X329696Y250270D01*
Y250265D01*
X329690Y250254D01*
Y250237D01*
X329679Y250215D01*
X329662Y250154D01*
X329629Y250081D01*
X329585Y249998D01*
X329529Y249909D01*
X329457Y249821D01*
X329374Y249743D01*
X329363Y249732D01*
X329329Y249710D01*
X329280Y249682D01*
X329207Y249643D01*
X329124Y249604D01*
X329019Y249576D01*
X328908Y249554D01*
X328780Y249543D01*
X328774D01*
X328758D01*
X328730D01*
X328697Y249549D01*
X328652Y249554D01*
X328603Y249565D01*
X328541Y249576D01*
X328480Y249587D01*
X328347Y249632D01*
X328275Y249665D01*
X328197Y249698D01*
X328125Y249743D01*
X328053Y249793D01*
X327981Y249848D01*
X327914Y249915D01*
X327909Y249921D01*
X327898Y249932D01*
X327881Y249954D01*
X327859Y249982D01*
X327831Y250020D01*
X327803Y250059D01*
X327770Y250115D01*
X327737Y250170D01*
X327703Y250231D01*
X327670Y250304D01*
X327642Y250381D01*
X327615Y250459D01*
X327592Y250548D01*
X327576Y250637D01*
X327565Y250736D01*
X327559Y250836D01*
Y250886D01*
X327565Y250925D01*
X327570Y250970D01*
X327576Y251019D01*
X327587Y251075D01*
X327598Y251142D01*
X327631Y251275D01*
X327687Y251419D01*
X327720Y251497D01*
X327759Y251563D01*
X327809Y251636D01*
X327859Y251702D01*
X327864Y251708D01*
X327875Y251719D01*
X327892Y251735D01*
X327914Y251758D01*
X327942Y251785D01*
X327981Y251813D01*
X328020Y251846D01*
X328070Y251880D01*
X328125Y251913D01*
X328181Y251952D01*
X328314Y252013D01*
X328469Y252063D01*
X328553Y252085D01*
X328641Y252096D01*
X328730Y251386D01*
D02*
G37*
D12*
X356700Y242000D02*
X356706Y242006D01*
X321700Y210908D02*
Y266782D01*
X442992D01*
Y210908D02*
Y266782D01*
X321700Y210908D02*
X442992D01*
D64*
X358168Y226261D02*
X394639D01*
X358107Y226322D02*
X358168Y226261D01*
X394639D02*
X394700Y226200D01*
X357672Y226322D02*
X357725Y226269D01*
Y224317D02*
Y226269D01*
X411065Y245600D02*
X411121Y245545D01*
X403500Y245600D02*
X411065D01*
X411105D02*
X423907D01*
X437054Y258748D01*
X442500D01*
X367688Y253074D02*
X370759D01*
X367652Y253038D02*
X367688Y253074D01*
X381385Y242447D02*
X400348D01*
X370759Y253074D02*
X381385Y242447D01*
X400348D02*
X403500Y245600D01*
X352419Y219012D02*
X357725Y224317D01*
X346419Y219051D02*
X346459Y219012D01*
X352419D01*
X357725Y225939D02*
X358107Y226322D01*
X356700Y238700D02*
Y242000D01*
X356706Y242006D02*
Y254481D01*
D65*
X442500Y258748D02*
D03*
D69*
X411121Y245545D02*
D03*
X380600Y258600D02*
D03*
X351414Y221542D02*
D03*
X414485Y254731D02*
D03*
X414581Y222837D02*
D03*
X403500Y245600D02*
D03*
D70*
X357672Y226322D02*
D03*
X357608Y237018D02*
D03*
X346419Y219051D02*
D03*
X332500Y224224D02*
D03*
X367280Y219309D02*
D03*
X394700Y226201D02*
D03*
X367652Y253038D02*
D03*
X363300Y259000D02*
D03*
X356706Y254481D02*
D03*
M02*
