M48
;Layer_Color=9474304
;FILE_FORMAT=2:5
INCH,LZ
;TYPE=PLATED
T3F00S00C0.02362
T4F00S00C0.03000
;TYPE=NON_PLATED
%
G90
G05
T03
G00X0331539Y0228692
M15
G01X0334688
M16
G00X0347405Y0228692
M15
G01X0351735
M16
G00X0347405Y0262708
M15
G01X0351735
M16
G00X0331539Y0262708
M15
G01X0334688
M16
T04
G00X034148Y0210917
M15
G01Y0211917
M16
G00X034948Y0210917
M15
G01Y0211917
M16
G00X035748Y0210917
M15
G01Y0211917
M16
G00X036548Y0210917
M15
G01Y0211917
M16
G00X0442Y0218752
M15
G01X0443
M16
G00X0442Y0226752
M15
G01X0443
M16
G00X0442Y023475
M15
G01X0443
M16
G00X0442Y024275
M15
G01X0443
M16
G00X0442Y0250748
M15
G01X0443
M16
G00X0442Y0258748
M15
G01X0443
M16
M17
M30
