G04*
G04 #@! TF.GenerationSoftware,Altium Limited,Altium Designer,22.9.1 (49)*
G04*
G04 Layer_Color=32896*
%FSLAX25Y25*%
%MOIN*%
G70*
G04*
G04 #@! TF.SameCoordinates,E7B6729E-600D-4C31-B664-834E27CDD885*
G04*
G04*
G04 #@! TF.FilePolarity,Positive*
G04*
G01*
G75*
%ADD12C,0.01000*%
%ADD13C,0.00787*%
%ADD14C,0.00500*%
D12*
X376953Y220618D02*
X376297Y221274D01*
X374985D01*
X374329Y220618D01*
Y219962D01*
X374985Y219306D01*
X375641D01*
X374985D01*
X374329Y218651D01*
Y217994D01*
X374985Y217339D01*
X376297D01*
X376953Y217994D01*
X373017Y221274D02*
Y218651D01*
X371705Y217339D01*
X370393Y218651D01*
Y221274D01*
X392720D02*
X395344D01*
Y219306D01*
X394032Y219962D01*
X393376D01*
X392720Y219306D01*
Y217994D01*
X393376Y217339D01*
X394688D01*
X395344Y217994D01*
X391408Y221274D02*
Y218651D01*
X390096Y217339D01*
X388784Y218651D01*
Y221274D01*
X321700Y210908D02*
Y266782D01*
X442992D01*
Y210908D02*
Y266782D01*
X321700Y210908D02*
X442992D01*
D13*
X360433Y235248D02*
X370866D01*
X360433Y222650D02*
Y235248D01*
Y222650D02*
X362598D01*
X368504D02*
X387402D01*
X393307D02*
X395472D01*
Y235248D01*
X393307D02*
X395472D01*
X385433D02*
X386614D01*
X377559D02*
X378740D01*
D14*
X342992Y217123D02*
X343325Y217456D01*
X343991D01*
X344324Y217123D01*
Y215790D01*
X343991Y215457D01*
X343325D01*
X342992Y215790D01*
X340992Y217123D02*
X341325Y217456D01*
X341992D01*
X342325Y217123D01*
Y215790D01*
X341992Y215457D01*
X341325D01*
X340992Y215790D01*
X340326Y215457D02*
X339659D01*
X339993D01*
Y217456D01*
X340326Y217123D01*
X377005Y225937D02*
Y223938D01*
X387018Y225959D02*
Y223959D01*
X387790Y229677D02*
Y231676D01*
X386790D01*
X386457Y231343D01*
Y230677D01*
X386790Y230343D01*
X387790D01*
X385457Y231010D02*
X384791D01*
X384458Y230677D01*
Y229677D01*
X385457D01*
X385791Y230010D01*
X385457Y230343D01*
X384458D01*
X383791Y229677D02*
X382792D01*
X382458Y230010D01*
X382792Y230343D01*
X383458D01*
X383791Y230677D01*
X383458Y231010D01*
X382458D01*
X381459Y231343D02*
Y231010D01*
X381792D01*
X381125D01*
X381459D01*
Y230010D01*
X381125Y229677D01*
X380126D02*
X379459D01*
X379793D01*
Y231010D01*
X380126D01*
X378460Y229677D02*
X377793D01*
X378127D01*
Y231676D01*
X378460D01*
X376794Y229677D02*
X376127D01*
X376460D01*
Y231676D01*
X376794D01*
X374128Y229677D02*
X374794D01*
X375127Y230010D01*
Y230677D01*
X374794Y231010D01*
X374128D01*
X373795Y230677D01*
Y230343D01*
X375127D01*
X373128Y229677D02*
X372128D01*
X371795Y230010D01*
X372128Y230343D01*
X372795D01*
X373128Y230677D01*
X372795Y231010D01*
X371795D01*
X359637Y217455D02*
Y215456D01*
X358638D01*
X358305Y215789D01*
Y217122D01*
X358638Y217455D01*
X359637D01*
X357638Y216455D02*
X356305D01*
X356972Y217122D02*
Y215789D01*
X365348Y217456D02*
Y215457D01*
X364348D01*
X364015Y215790D01*
Y217123D01*
X364348Y217456D01*
X365348D01*
X363349Y216456D02*
X362016D01*
X352647Y217123D02*
X352981Y217456D01*
X353647D01*
X353980Y217123D01*
Y215790D01*
X353647Y215457D01*
X352981D01*
X352647Y215790D01*
X350648Y217123D02*
X350981Y217456D01*
X351648D01*
X351981Y217123D01*
Y215790D01*
X351648Y215457D01*
X350981D01*
X350648Y215790D01*
X348649Y215457D02*
X349982D01*
X348649Y216790D01*
Y217123D01*
X348982Y217456D01*
X349648D01*
X349982Y217123D01*
X388095Y228728D02*
X389428D01*
Y227729D01*
X388761Y228062D01*
X388428D01*
X388095Y227729D01*
Y227062D01*
X388428Y226729D01*
X389095D01*
X389428Y227062D01*
X387429Y228728D02*
Y227395D01*
X386762Y226729D01*
X386096Y227395D01*
Y228728D01*
X383097Y226729D02*
X382430D01*
X382097Y227062D01*
Y227729D01*
X382430Y228062D01*
X383097D01*
X383430Y227729D01*
Y227062D01*
X383097Y226729D01*
X381431Y228062D02*
Y227062D01*
X381097Y226729D01*
X380098D01*
Y228062D01*
X377432Y228395D02*
X377099Y228728D01*
X376432D01*
X376099Y228395D01*
Y228062D01*
X376432Y227729D01*
X376765D01*
X376432D01*
X376099Y227395D01*
Y227062D01*
X376432Y226729D01*
X377099D01*
X377432Y227062D01*
X375432Y226729D02*
Y227062D01*
X375099D01*
Y226729D01*
X375432D01*
X373766Y228395D02*
X373433Y228728D01*
X372767D01*
X372433Y228395D01*
Y228062D01*
X372767Y227729D01*
X373100D01*
X372767D01*
X372433Y227395D01*
Y227062D01*
X372767Y226729D01*
X373433D01*
X373766Y227062D01*
X371767Y228728D02*
Y227395D01*
X371101Y226729D01*
X370434Y227395D01*
Y228728D01*
X387681Y225289D02*
X387015Y223956D01*
X386348Y225289D01*
X377684D02*
X377018Y223956D01*
X376351Y225289D01*
X358733Y250223D02*
X356733D01*
Y249223D01*
X357066Y248890D01*
X357733D01*
X358066Y249223D01*
Y250223D01*
X358733Y246891D02*
Y248224D01*
X357400Y246891D01*
X357066D01*
X356733Y247224D01*
Y247890D01*
X357066Y248224D01*
X358732Y243924D02*
X356732D01*
Y242924D01*
X357066Y242591D01*
X357732D01*
X358065Y242924D01*
Y243924D01*
X358732Y241925D02*
Y241258D01*
Y241591D01*
X356732D01*
X357066Y241925D01*
M02*
